  0
SECTION
  2
HEADER
  9
$ANGBASE
  50
0.0
  9
$ANGDIR
  70
  1
  9
$MEASUREMENT
  70
0
  0
ENDSEC
  0
SECTION
  2
TABLES
  0
TABLE
  2
LTYPE
  70
1
  0
LTYPE
  2
CONTINUOUS
  70
0
  3
Solid line
  72
65
  73
0
  40
0.0
  0
ENDTAB
  0
TABLE
  2
STYLE
  70
4
  0
STYLE
  2
KICAD
  70
0
  40
0
  41
1
  42
1
  50
0
  71
0
  3
isocp.shx
  0
STYLE
  2
KICADB
  70
0
  40
0
  41
1
  42
1
  50
0
  71
0
  3
isocp.shx
  0
STYLE
  2
KICADI
  70
0
  40
0
  41
1
  42
1
  50
15
  71
0
  3
isocp.shx
  0
STYLE
  2
KICADBI
  70
0
  40
0
  41
1
  42
1
  50
15
  71
0
  3
isocp.shx
  0
ENDTAB
  0
TABLE
  2
LAYER
  70
30
  0
LAYER
  2
BLACK
  70
0
  62
7
  6
CONTINUOUS
  0
LAYER
  2
GRAY1
  70
0
  62
251
  6
CONTINUOUS
  0
LAYER
  2
GRAY2
  70
0
  62
8
  6
CONTINUOUS
  0
LAYER
  2
GRAY3
  70
0
  62
9
  6
CONTINUOUS
  0
LAYER
  2
WHITE
  70
0
  62
7
  6
CONTINUOUS
  0
LAYER
  2
LYELLOW
  70
0
  62
51
  6
CONTINUOUS
  0
LAYER
  2
BLUE1
  70
0
  62
178
  6
CONTINUOUS
  0
LAYER
  2
GREEN1
  70
0
  62
98
  6
CONTINUOUS
  0
LAYER
  2
CYAN1
  70
0
  62
138
  6
CONTINUOUS
  0
LAYER
  2
RED1
  70
0
  62
18
  6
CONTINUOUS
  0
LAYER
  2
MAGENTA1
  70
0
  62
228
  6
CONTINUOUS
  0
LAYER
  2
BROWN1
  70
0
  62
58
  6
CONTINUOUS
  0
LAYER
  2
BLUE2
  70
0
  62
5
  6
CONTINUOUS
  0
LAYER
  2
GREEN2
  70
0
  62
3
  6
CONTINUOUS
  0
LAYER
  2
CYAN2
  70
0
  62
4
  6
CONTINUOUS
  0
LAYER
  2
RED2
  70
0
  62
1
  6
CONTINUOUS
  0
LAYER
  2
MAGENTA2
  70
0
  62
6
  6
CONTINUOUS
  0
LAYER
  2
BROWN2
  70
0
  62
54
  6
CONTINUOUS
  0
LAYER
  2
BLUE3
  70
0
  62
171
  6
CONTINUOUS
  0
LAYER
  2
GREEN3
  70
0
  62
91
  6
CONTINUOUS
  0
LAYER
  2
CYAN3
  70
0
  62
131
  6
CONTINUOUS
  0
LAYER
  2
RED3
  70
0
  62
11
  6
CONTINUOUS
  0
LAYER
  2
MAGENTA3
  70
0
  62
221
  6
CONTINUOUS
  0
LAYER
  2
YELLOW3
  70
0
  62
2
  6
CONTINUOUS
  0
LAYER
  2
BLUE4
  70
0
  62
5
  6
CONTINUOUS
  0
LAYER
  2
GREEN4
  70
0
  62
3
  6
CONTINUOUS
  0
LAYER
  2
CYAN4
  70
0
  62
4
  6
CONTINUOUS
  0
LAYER
  2
RED4
  70
0
  62
1
  6
CONTINUOUS
  0
LAYER
  2
MAGENTA4
  70
0
  62
6
  6
CONTINUOUS
  0
LAYER
  2
YELLOW4
  70
0
  62
2
  6
CONTINUOUS
  0
ENDTAB
  0
ENDSEC
  0
SECTION
  2
ENTITIES
0
LINE
8
Black
10
200.801
20
-93.5849
11
200.812
21
-93.5849
0
LINE
8
Black
10
200.812
20
-93.5849
11
200.822
21
-93.5887
0
LINE
8
Black
10
200.822
20
-93.5887
11
200.833
21
-93.5907
0
LINE
8
Black
10
200.833
20
-93.5907
11
200.843
21
-93.5962
0
LINE
8
Black
10
200.843
20
-93.5962
11
200.853
21
-93.6
0
LINE
8
Black
10
200.853
20
-93.6
11
200.862
21
-93.6072
0
LINE
8
Black
10
200.862
20
-93.6072
11
200.872
21
-93.6127
0
LINE
8
Black
10
200.872
20
-93.6127
11
200.879
21
-93.6212
0
LINE
8
Black
10
200.879
20
-93.6212
11
200.887
21
-93.6284
0
LINE
8
Black
10
200.887
20
-93.6284
11
200.893
21
-93.638
0
LINE
8
Black
10
200.893
20
-93.638
11
200.9
21
-93.6465
0
LINE
8
Black
10
200.9
20
-93.6465
11
200.904
21
-93.6569
0
LINE
8
Black
10
200.904
20
-93.6569
11
200.909
21
-93.6666
0
LINE
8
Black
10
200.909
20
-93.6666
11
200.911
21
-93.6775
0
LINE
8
Black
10
200.911
20
-93.6775
11
200.915
21
-93.6879
0
LINE
8
Black
10
200.915
20
-93.6879
11
200.915
21
-93.6991
0
LINE
8
Black
10
200.915
20
-93.6991
11
200.917
21
-93.71
0
LINE
8
Black
10
200.917
20
-93.71
11
200.917
21
-98.2535
0
LINE
8
Black
10
200.917
20
-98.2535
11
200.915
21
-98.2644
0
LINE
8
Black
10
200.915
20
-98.2644
11
200.915
21
-98.2756
0
LINE
8
Black
10
200.915
20
-98.2756
11
200.911
21
-98.286
0
LINE
8
Black
10
200.911
20
-98.286
11
200.909
21
-98.2969
0
LINE
8
Black
10
200.909
20
-98.2969
11
200.904
21
-98.3066
0
LINE
8
Black
10
200.904
20
-98.3066
11
200.9
21
-98.317
0
LINE
8
Black
10
200.9
20
-98.317
11
200.893
21
-98.3255
0
LINE
8
Black
10
200.893
20
-98.3255
11
200.887
21
-98.3351
0
LINE
8
Black
10
200.887
20
-98.3351
11
200.879
21
-98.3423
0
LINE
8
Black
10
200.879
20
-98.3423
11
200.872
21
-98.3508
0
LINE
8
Black
10
200.872
20
-98.3508
11
200.862
21
-98.3563
0
LINE
8
Black
10
200.862
20
-98.3563
11
200.853
21
-98.3635
0
LINE
8
Black
10
200.853
20
-98.3635
11
200.843
21
-98.3673
0
LINE
8
Black
10
200.843
20
-98.3673
11
200.833
21
-98.3728
0
LINE
8
Black
10
200.833
20
-98.3728
11
200.822
21
-98.3748
0
LINE
8
Black
10
200.822
20
-98.3748
11
200.812
21
-98.3786
0
LINE
8
Black
10
200.812
20
-98.3786
11
200.801
21
-98.3786
0
LINE
8
Black
10
200.801
20
-98.3786
11
200.79
21
-98.3805
0
LINE
8
Black
10
200.79
20
-98.3805
11
199.426
21
-98.3805
0
LINE
8
Black
10
199.426
20
-98.3805
11
199.341
21
-98.4649
0
LINE
8
Black
10
199.341
20
-98.4649
11
199.341
21
-98.8885
0
LINE
8
Black
10
199.341
20
-98.8885
11
201.337
21
-98.8885
0
LINE
8
Black
10
201.337
20
-98.8885
11
201.337
21
-100.158
0
LINE
8
Black
10
201.337
20
-100.158
11
199.341
21
-100.158
0
LINE
8
Black
10
199.341
20
-100.158
11
199.341
21
-100.582
0
LINE
8
Black
10
199.341
20
-100.582
11
199.426
21
-100.666
0
LINE
8
Black
10
199.426
20
-100.666
11
200.79
21
-100.666
0
LINE
8
Black
10
200.79
20
-100.666
11
200.801
21
-100.668
0
LINE
8
Black
10
200.801
20
-100.668
11
200.812
21
-100.668
0
LINE
8
Black
10
200.812
20
-100.668
11
200.822
21
-100.672
0
LINE
8
Black
10
200.822
20
-100.672
11
200.833
21
-100.674
0
LINE
8
Black
10
200.833
20
-100.674
11
200.843
21
-100.68
0
LINE
8
Black
10
200.843
20
-100.68
11
200.853
21
-100.684
0
LINE
8
Black
10
200.853
20
-100.684
11
200.862
21
-100.691
0
LINE
8
Black
10
200.862
20
-100.691
11
200.872
21
-100.696
0
LINE
8
Black
10
200.872
20
-100.696
11
200.879
21
-100.705
0
LINE
8
Black
10
200.879
20
-100.705
11
200.887
21
-100.712
0
LINE
8
Black
10
200.887
20
-100.712
11
200.893
21
-100.721
0
LINE
8
Black
10
200.893
20
-100.721
11
200.9
21
-100.73
0
LINE
8
Black
10
200.9
20
-100.73
11
200.904
21
-100.74
0
LINE
8
Black
10
200.904
20
-100.74
11
200.909
21
-100.75
0
LINE
8
Black
10
200.909
20
-100.75
11
200.911
21
-100.761
0
LINE
8
Black
10
200.911
20
-100.761
11
200.915
21
-100.771
0
LINE
8
Black
10
200.915
20
-100.771
11
200.915
21
-100.783
0
LINE
8
Black
10
200.915
20
-100.783
11
200.917
21
-100.793
0
LINE
8
Black
10
200.917
20
-100.793
11
200.917
21
-103.206
0
LINE
8
Black
10
200.917
20
-103.206
11
200.915
21
-103.217
0
LINE
8
Black
10
200.915
20
-103.217
11
200.915
21
-103.229
0
LINE
8
Black
10
200.915
20
-103.229
11
200.911
21
-103.239
0
LINE
8
Black
10
200.911
20
-103.239
11
200.909
21
-103.25
0
LINE
8
Black
10
200.909
20
-103.25
11
200.904
21
-103.26
0
LINE
8
Black
10
200.904
20
-103.26
11
200.9
21
-103.27
0
LINE
8
Black
10
200.9
20
-103.27
11
200.893
21
-103.279
0
LINE
8
Black
10
200.893
20
-103.279
11
200.887
21
-103.288
0
LINE
8
Black
10
200.887
20
-103.288
11
200.879
21
-103.295
0
LINE
8
Black
10
200.879
20
-103.295
11
200.872
21
-103.304
0
LINE
8
Black
10
200.872
20
-103.304
11
200.862
21
-103.309
0
LINE
8
Black
10
200.862
20
-103.309
11
200.853
21
-103.316
0
LINE
8
Black
10
200.853
20
-103.316
11
200.843
21
-103.32
0
LINE
8
Black
10
200.843
20
-103.32
11
200.833
21
-103.326
0
LINE
8
Black
10
200.833
20
-103.326
11
200.822
21
-103.328
0
LINE
8
Black
10
200.822
20
-103.328
11
200.812
21
-103.332
0
LINE
8
Black
10
200.812
20
-103.332
11
200.801
21
-103.332
0
LINE
8
Black
10
200.801
20
-103.332
11
200.79
21
-103.334
0
LINE
8
Black
10
200.79
20
-103.334
11
199.426
21
-103.334
0
LINE
8
Black
10
199.426
20
-103.334
11
199.341
21
-103.418
0
LINE
8
Black
10
199.341
20
-103.418
11
199.341
21
-103.841
0
LINE
8
Black
10
199.341
20
-103.841
11
201.337
21
-103.841
0
LINE
8
Black
10
201.337
20
-103.841
11
201.337
21
-105.111
0
LINE
8
Black
10
201.337
20
-105.111
11
199.341
21
-105.111
0
LINE
8
Black
10
199.341
20
-105.111
11
199.341
21
-105.535
0
LINE
8
Black
10
199.341
20
-105.535
11
199.426
21
-105.62
0
LINE
8
Black
10
199.426
20
-105.62
11
200.79
21
-105.62
0
LINE
8
Black
10
200.79
20
-105.62
11
200.801
21
-105.621
0
LINE
8
Black
10
200.801
20
-105.621
11
200.812
21
-105.621
0
LINE
8
Black
10
200.812
20
-105.621
11
200.822
21
-105.625
0
LINE
8
Black
10
200.822
20
-105.625
11
200.833
21
-105.627
0
LINE
8
Black
10
200.833
20
-105.627
11
200.843
21
-105.633
0
LINE
8
Black
10
200.843
20
-105.633
11
200.853
21
-105.637
0
LINE
8
Black
10
200.853
20
-105.637
11
200.862
21
-105.644
0
LINE
8
Black
10
200.862
20
-105.644
11
200.872
21
-105.649
0
LINE
8
Black
10
200.872
20
-105.649
11
200.879
21
-105.658
0
LINE
8
Black
10
200.879
20
-105.658
11
200.887
21
-105.665
0
LINE
8
Black
10
200.887
20
-105.665
11
200.893
21
-105.674
0
LINE
8
Black
10
200.893
20
-105.674
11
200.9
21
-105.683
0
LINE
8
Black
10
200.9
20
-105.683
11
200.904
21
-105.693
0
LINE
8
Black
10
200.904
20
-105.693
11
200.909
21
-105.703
0
LINE
8
Black
10
200.909
20
-105.703
11
200.911
21
-105.714
0
LINE
8
Black
10
200.911
20
-105.714
11
200.915
21
-105.724
0
LINE
8
Black
10
200.915
20
-105.724
11
200.915
21
-105.736
0
LINE
8
Black
10
200.915
20
-105.736
11
200.917
21
-105.746
0
LINE
8
Black
10
200.917
20
-105.746
11
200.917
21
-111.29
0
LINE
8
Black
10
200.917
20
-111.29
11
200.915
21
-111.301
0
LINE
8
Black
10
200.915
20
-111.301
11
200.915
21
-111.312
0
LINE
8
Black
10
200.915
20
-111.312
11
200.911
21
-111.322
0
LINE
8
Black
10
200.911
20
-111.322
11
200.909
21
-111.333
0
LINE
8
Black
10
200.909
20
-111.333
11
200.904
21
-111.343
0
LINE
8
Black
10
200.904
20
-111.343
11
200.9
21
-111.353
0
LINE
8
Black
10
200.9
20
-111.353
11
200.893
21
-111.362
0
LINE
8
Black
10
200.893
20
-111.362
11
200.887
21
-111.372
0
LINE
8
Black
10
200.887
20
-111.372
11
200.879
21
-111.379
0
LINE
8
Black
10
200.879
20
-111.379
11
200.872
21
-111.387
0
LINE
8
Black
10
200.872
20
-111.387
11
200.862
21
-111.393
0
LINE
8
Black
10
200.862
20
-111.393
11
200.853
21
-111.4
0
LINE
8
Black
10
200.853
20
-111.4
11
200.843
21
-111.404
0
LINE
8
Black
10
200.843
20
-111.404
11
200.833
21
-111.409
0
LINE
8
Black
10
200.833
20
-111.409
11
200.822
21
-111.411
0
LINE
8
Black
10
200.822
20
-111.411
11
200.812
21
-111.415
0
LINE
8
Black
10
200.812
20
-111.415
11
200.801
21
-111.415
0
LINE
8
Black
10
200.801
20
-111.415
11
200.79
21
-111.417
0
LINE
8
Black
10
200.79
20
-111.417
11
166.591
21
-111.417
0
LINE
8
Black
10
166.591
20
-111.417
11
166.572
21
-111.414
0
LINE
8
Black
10
166.572
20
-111.414
11
166.552
21
-111.411
0
LINE
8
Black
10
166.552
20
-111.411
11
166.55
21
-111.41
0
LINE
8
Black
10
166.55
20
-111.41
11
166.547
21
-111.409
0
LINE
8
Black
10
166.547
20
-111.409
11
166.531
21
-111.4
0
LINE
8
Black
10
166.531
20
-111.4
11
166.513
21
-111.391
0
LINE
8
Black
10
166.513
20
-111.391
11
166.512
21
-111.389
0
LINE
8
Black
10
166.512
20
-111.389
11
166.509
21
-111.387
0
LINE
8
Black
10
166.509
20
-111.387
11
166.497
21
-111.372
0
LINE
8
Black
10
166.497
20
-111.372
11
166.484
21
-111.358
0
LINE
8
Black
10
166.484
20
-111.358
11
166.483
21
-111.356
0
LINE
8
Black
10
166.483
20
-111.356
11
166.481
21
-111.353
0
LINE
8
Black
10
166.481
20
-111.353
11
166.474
21
-111.335
0
LINE
8
Black
10
166.474
20
-111.335
11
166.467
21
-111.317
0
LINE
8
Black
10
166.467
20
-111.317
11
166.467
21
-111.315
0
LINE
8
Black
10
166.467
20
-111.315
11
166.466
21
-111.312
0
LINE
8
Black
10
166.466
20
-111.312
11
166.466
21
-111.293
0
LINE
8
Black
10
166.466
20
-111.293
11
166.465
21
-111.273
0
LINE
8
Black
10
166.465
20
-111.273
11
166.466
21
-111.271
0
LINE
8
Black
10
166.466
20
-111.271
11
166.466
21
-111.268
0
LINE
8
Black
10
166.466
20
-111.268
11
166.472
21
-111.25
0
LINE
8
Black
10
166.472
20
-111.25
11
166.478
21
-111.231
0
LINE
8
Black
10
166.478
20
-111.231
11
166.48
21
-111.229
0
LINE
8
Black
10
166.48
20
-111.229
11
166.481
21
-111.227
0
LINE
8
Black
10
166.481
20
-111.227
11
166.493
21
-111.212
0
LINE
8
Black
10
166.493
20
-111.212
11
166.505
21
-111.196
0
LINE
8
Black
10
166.505
20
-111.196
11
166.507
21
-111.195
0
LINE
8
Black
10
166.507
20
-111.195
11
166.509
21
-111.193
0
LINE
8
Black
10
166.509
20
-111.193
11
166.526
21
-111.183
0
LINE
8
Black
10
166.526
20
-111.183
11
166.542
21
-111.173
0
LINE
8
Black
10
166.542
20
-111.173
11
166.587
21
-111.154
0
LINE
8
Black
10
166.587
20
-111.154
11
166.983
21
-110.759
0
LINE
8
Black
10
166.983
20
-110.759
11
167.198
21
-110.241
0
LINE
8
Black
10
167.198
20
-110.241
11
167.198
21
-109.681
0
LINE
8
Black
10
167.198
20
-109.681
11
166.984
21
-109.163
0
LINE
8
Black
10
166.984
20
-109.163
11
166.589
21
-108.767
0
LINE
8
Black
10
166.589
20
-108.767
11
166.071
21
-108.552
0
LINE
8
Black
10
166.071
20
-108.552
11
165.511
21
-108.552
0
LINE
8
Black
10
165.511
20
-108.552
11
164.993
21
-108.766
0
LINE
8
Black
10
164.993
20
-108.766
11
164.609
21
-109.149
0
LINE
8
Black
10
164.609
20
-109.149
11
164.6
21
-109.155
0
LINE
8
Black
10
164.6
20
-109.155
11
164.592
21
-109.163
0
LINE
8
Black
10
164.592
20
-109.163
11
164.582
21
-109.168
0
LINE
8
Black
10
164.582
20
-109.168
11
164.573
21
-109.174
0
LINE
8
Black
10
164.573
20
-109.174
11
164.563
21
-109.177
0
LINE
8
Black
10
164.563
20
-109.177
11
164.552
21
-109.182
0
LINE
8
Black
10
164.552
20
-109.182
11
164.541
21
-109.183
0
LINE
8
Black
10
164.541
20
-109.183
11
164.531
21
-109.186
0
LINE
8
Black
10
164.531
20
-109.186
11
164.52
21
-109.185
0
LINE
8
Black
10
164.52
20
-109.185
11
164.508
21
-109.186
0
LINE
8
Black
10
164.508
20
-109.186
11
164.498
21
-109.183
0
LINE
8
Black
10
164.498
20
-109.183
11
164.487
21
-109.182
0
LINE
8
Black
10
164.487
20
-109.182
11
164.477
21
-109.177
0
LINE
8
Black
10
164.477
20
-109.177
11
164.466
21
-109.174
0
LINE
8
Black
10
164.466
20
-109.174
11
164.457
21
-109.168
0
LINE
8
Black
10
164.457
20
-109.168
11
164.447
21
-109.163
0
LINE
8
Black
10
164.447
20
-109.163
11
164.439
21
-109.155
0
LINE
8
Black
10
164.439
20
-109.155
11
164.43
21
-109.149
0
LINE
8
Black
10
164.43
20
-109.149
11
164.049
21
-108.767
0
LINE
8
Black
10
164.049
20
-108.767
11
163.531
21
-108.552
0
LINE
8
Black
10
163.531
20
-108.552
11
162.971
21
-108.552
0
LINE
8
Black
10
162.971
20
-108.552
11
162.453
21
-108.766
0
LINE
8
Black
10
162.453
20
-108.766
11
162.069
21
-109.149
0
LINE
8
Black
10
162.069
20
-109.149
11
162.06
21
-109.155
0
LINE
8
Black
10
162.06
20
-109.155
11
162.052
21
-109.163
0
LINE
8
Black
10
162.052
20
-109.163
11
162.042
21
-109.168
0
LINE
8
Black
10
162.042
20
-109.168
11
162.033
21
-109.174
0
LINE
8
Black
10
162.033
20
-109.174
11
162.023
21
-109.177
0
LINE
8
Black
10
162.023
20
-109.177
11
162.012
21
-109.182
0
LINE
8
Black
10
162.012
20
-109.182
11
162.001
21
-109.183
0
LINE
8
Black
10
162.001
20
-109.183
11
161.991
21
-109.186
0
LINE
8
Black
10
161.991
20
-109.186
11
161.98
21
-109.185
0
LINE
8
Black
10
161.98
20
-109.185
11
161.968
21
-109.186
0
LINE
8
Black
10
161.968
20
-109.186
11
161.958
21
-109.183
0
LINE
8
Black
10
161.958
20
-109.183
11
161.947
21
-109.182
0
LINE
8
Black
10
161.947
20
-109.182
11
161.937
21
-109.177
0
LINE
8
Black
10
161.937
20
-109.177
11
161.926
21
-109.174
0
LINE
8
Black
10
161.926
20
-109.174
11
161.917
21
-109.168
0
LINE
8
Black
10
161.917
20
-109.168
11
161.907
21
-109.163
0
LINE
8
Black
10
161.907
20
-109.163
11
161.899
21
-109.155
0
LINE
8
Black
10
161.899
20
-109.155
11
161.89
21
-109.149
0
LINE
8
Black
10
161.89
20
-109.149
11
161.509
21
-108.767
0
LINE
8
Black
10
161.509
20
-108.767
11
160.991
21
-108.552
0
LINE
8
Black
10
160.991
20
-108.552
11
160.431
21
-108.552
0
LINE
8
Black
10
160.431
20
-108.552
11
159.913
21
-108.766
0
LINE
8
Black
10
159.913
20
-108.766
11
159.529
21
-109.149
0
LINE
8
Black
10
159.529
20
-109.149
11
159.52
21
-109.155
0
LINE
8
Black
10
159.52
20
-109.155
11
159.512
21
-109.163
0
LINE
8
Black
10
159.512
20
-109.163
11
159.502
21
-109.168
0
LINE
8
Black
10
159.502
20
-109.168
11
159.493
21
-109.174
0
LINE
8
Black
10
159.493
20
-109.174
11
159.483
21
-109.177
0
LINE
8
Black
10
159.483
20
-109.177
11
159.472
21
-109.182
0
LINE
8
Black
10
159.472
20
-109.182
11
159.461
21
-109.183
0
LINE
8
Black
10
159.461
20
-109.183
11
159.451
21
-109.186
0
LINE
8
Black
10
159.451
20
-109.186
11
159.44
21
-109.185
0
LINE
8
Black
10
159.44
20
-109.185
11
159.428
21
-109.186
0
LINE
8
Black
10
159.428
20
-109.186
11
159.418
21
-109.183
0
LINE
8
Black
10
159.418
20
-109.183
11
159.407
21
-109.182
0
LINE
8
Black
10
159.407
20
-109.182
11
159.397
21
-109.177
0
LINE
8
Black
10
159.397
20
-109.177
11
159.386
21
-109.174
0
LINE
8
Black
10
159.386
20
-109.174
11
159.377
21
-109.168
0
LINE
8
Black
10
159.377
20
-109.168
11
159.367
21
-109.163
0
LINE
8
Black
10
159.367
20
-109.163
11
159.359
21
-109.155
0
LINE
8
Black
10
159.359
20
-109.155
11
159.35
21
-109.149
0
LINE
8
Black
10
159.35
20
-109.149
11
158.969
21
-108.767
0
LINE
8
Black
10
158.969
20
-108.767
11
158.451
21
-108.552
0
LINE
8
Black
10
158.451
20
-108.552
11
157.891
21
-108.552
0
LINE
8
Black
10
157.891
20
-108.552
11
157.373
21
-108.766
0
LINE
8
Black
10
157.373
20
-108.766
11
156.989
21
-109.149
0
LINE
8
Black
10
156.989
20
-109.149
11
156.98
21
-109.155
0
LINE
8
Black
10
156.98
20
-109.155
11
156.972
21
-109.163
0
LINE
8
Black
10
156.972
20
-109.163
11
156.962
21
-109.168
0
LINE
8
Black
10
156.962
20
-109.168
11
156.953
21
-109.174
0
LINE
8
Black
10
156.953
20
-109.174
11
156.943
21
-109.177
0
LINE
8
Black
10
156.943
20
-109.177
11
156.932
21
-109.182
0
LINE
8
Black
10
156.932
20
-109.182
11
156.921
21
-109.183
0
LINE
8
Black
10
156.921
20
-109.183
11
156.911
21
-109.186
0
LINE
8
Black
10
156.911
20
-109.186
11
156.9
21
-109.185
0
LINE
8
Black
10
156.9
20
-109.185
11
156.888
21
-109.186
0
LINE
8
Black
10
156.888
20
-109.186
11
156.878
21
-109.183
0
LINE
8
Black
10
156.878
20
-109.183
11
156.867
21
-109.182
0
LINE
8
Black
10
156.867
20
-109.182
11
156.857
21
-109.177
0
LINE
8
Black
10
156.857
20
-109.177
11
156.846
21
-109.174
0
LINE
8
Black
10
156.846
20
-109.174
11
156.837
21
-109.168
0
LINE
8
Black
10
156.837
20
-109.168
11
156.827
21
-109.163
0
LINE
8
Black
10
156.827
20
-109.163
11
156.819
21
-109.155
0
LINE
8
Black
10
156.819
20
-109.155
11
156.81
21
-109.149
0
LINE
8
Black
10
156.81
20
-109.149
11
156.429
21
-108.767
0
LINE
8
Black
10
156.429
20
-108.767
11
155.911
21
-108.552
0
LINE
8
Black
10
155.911
20
-108.552
11
155.351
21
-108.552
0
LINE
8
Black
10
155.351
20
-108.552
11
154.833
21
-108.766
0
LINE
8
Black
10
154.833
20
-108.766
11
154.449
21
-109.149
0
LINE
8
Black
10
154.449
20
-109.149
11
154.44
21
-109.155
0
LINE
8
Black
10
154.44
20
-109.155
11
154.432
21
-109.163
0
LINE
8
Black
10
154.432
20
-109.163
11
154.422
21
-109.168
0
LINE
8
Black
10
154.422
20
-109.168
11
154.413
21
-109.174
0
LINE
8
Black
10
154.413
20
-109.174
11
154.403
21
-109.177
0
LINE
8
Black
10
154.403
20
-109.177
11
154.392
21
-109.182
0
LINE
8
Black
10
154.392
20
-109.182
11
154.381
21
-109.183
0
LINE
8
Black
10
154.381
20
-109.183
11
154.371
21
-109.186
0
LINE
8
Black
10
154.371
20
-109.186
11
154.36
21
-109.185
0
LINE
8
Black
10
154.36
20
-109.185
11
154.348
21
-109.186
0
LINE
8
Black
10
154.348
20
-109.186
11
154.338
21
-109.183
0
LINE
8
Black
10
154.338
20
-109.183
11
154.327
21
-109.182
0
LINE
8
Black
10
154.327
20
-109.182
11
154.317
21
-109.177
0
LINE
8
Black
10
154.317
20
-109.177
11
154.306
21
-109.174
0
LINE
8
Black
10
154.306
20
-109.174
11
154.297
21
-109.168
0
LINE
8
Black
10
154.297
20
-109.168
11
154.287
21
-109.163
0
LINE
8
Black
10
154.287
20
-109.163
11
154.279
21
-109.155
0
LINE
8
Black
10
154.279
20
-109.155
11
154.27
21
-109.149
0
LINE
8
Black
10
154.27
20
-109.149
11
153.889
21
-108.767
0
LINE
8
Black
10
153.889
20
-108.767
11
153.765
21
-108.716
0
LINE
8
Black
10
153.765
20
-108.716
11
153.751
21
-108.707
0
LINE
8
Black
10
153.751
20
-108.707
11
153.736
21
-108.699
0
LINE
8
Black
10
153.736
20
-108.699
11
153.733
21
-108.695
0
LINE
8
Black
10
153.733
20
-108.695
11
153.728
21
-108.692
0
LINE
8
Black
10
153.728
20
-108.692
11
153.718
21
-108.679
0
LINE
8
Black
10
153.718
20
-108.679
11
153.707
21
-108.667
0
LINE
8
Black
10
153.707
20
-108.667
11
153.704
21
-108.661
0
LINE
8
Black
10
153.704
20
-108.661
11
153.701
21
-108.657
0
LINE
8
Black
10
153.701
20
-108.657
11
153.696
21
-108.641
0
LINE
8
Black
10
153.696
20
-108.641
11
153.69
21
-108.626
0
LINE
8
Black
10
153.69
20
-108.626
11
153.689
21
-108.62
0
LINE
8
Black
10
153.689
20
-108.62
11
153.688
21
-108.615
0
LINE
8
Black
10
153.688
20
-108.615
11
153.689
21
-108.598
0
LINE
8
Black
10
153.689
20
-108.598
11
153.688
21
-108.582
0
LINE
8
Black
10
153.688
20
-108.582
11
153.69
21
-108.576
0
LINE
8
Black
10
153.69
20
-108.576
11
153.69
21
-108.571
0
LINE
8
Black
10
153.69
20
-108.571
11
153.696
21
-108.556
0
LINE
8
Black
10
153.696
20
-108.556
11
153.701
21
-108.54
0
LINE
8
Black
10
153.701
20
-108.54
11
153.705
21
-108.535
0
LINE
8
Black
10
153.705
20
-108.535
11
153.707
21
-108.53
0
LINE
8
Black
10
153.707
20
-108.53
11
153.718
21
-108.518
0
LINE
8
Black
10
153.718
20
-108.518
11
153.728
21
-108.505
0
LINE
8
Black
10
153.728
20
-108.505
11
153.733
21
-108.502
0
LINE
8
Black
10
153.733
20
-108.502
11
153.737
21
-108.498
0
LINE
8
Black
10
153.737
20
-108.498
11
153.751
21
-108.49
0
LINE
8
Black
10
153.751
20
-108.49
11
153.765
21
-108.481
0
LINE
8
Black
10
153.765
20
-108.481
11
154.07
21
-108.355
0
LINE
8
Black
10
154.07
20
-108.355
11
154.13
21
-108.295
0
LINE
8
Black
10
154.13
20
-108.295
11
154.135
21
-108.292
0
LINE
8
Black
10
154.135
20
-108.292
11
154.138
21
-108.288
0
LINE
8
Black
10
154.138
20
-108.288
11
154.153
21
-108.279
0
LINE
8
Black
10
154.153
20
-108.279
11
154.166
21
-108.27
0
LINE
8
Black
10
154.166
20
-108.27
11
154.172
21
-108.268
0
LINE
8
Black
10
154.172
20
-108.268
11
154.177
21
-108.266
0
LINE
8
Black
10
154.177
20
-108.266
11
154.193
21
-108.263
0
LINE
8
Black
10
154.193
20
-108.263
11
154.209
21
-108.258
0
LINE
8
Black
10
154.209
20
-108.258
11
154.215
21
-108.259
0
LINE
8
Black
10
154.215
20
-108.259
11
154.22
21
-108.258
0
LINE
8
Black
10
154.22
20
-108.258
11
184.78
21
-108.258
0
LINE
8
Black
10
184.78
20
-108.258
11
184.785
21
-108.259
0
LINE
8
Black
10
184.785
20
-108.259
11
184.791
21
-108.258
0
LINE
8
Black
10
184.791
20
-108.258
11
184.807
21
-108.263
0
LINE
8
Black
10
184.807
20
-108.263
11
184.823
21
-108.266
0
LINE
8
Black
10
184.823
20
-108.266
11
184.828
21
-108.268
0
LINE
8
Black
10
184.828
20
-108.268
11
184.833
21
-108.27
0
LINE
8
Black
10
184.833
20
-108.27
11
184.847
21
-108.279
0
LINE
8
Black
10
184.847
20
-108.279
11
184.861
21
-108.288
0
LINE
8
Black
10
184.861
20
-108.288
11
184.865
21
-108.292
0
LINE
8
Black
10
184.865
20
-108.292
11
184.87
21
-108.295
0
LINE
8
Black
10
184.87
20
-108.295
11
184.928
21
-108.354
0
LINE
8
Black
10
184.928
20
-108.354
11
185.299
21
-108.508
0
LINE
8
Black
10
185.299
20
-108.508
11
185.7
21
-108.508
0
LINE
8
Black
10
185.7
20
-108.508
11
186.07
21
-108.355
0
LINE
8
Black
10
186.07
20
-108.355
11
186.354
21
-108.072
0
LINE
8
Black
10
186.354
20
-108.072
11
186.508
21
-107.701
0
LINE
8
Black
10
186.508
20
-107.701
11
186.508
21
-107.3
0
LINE
8
Black
10
186.508
20
-107.3
11
186.355
21
-106.93
0
LINE
8
Black
10
186.355
20
-106.93
11
186.072
21
-106.646
0
LINE
8
Black
10
186.072
20
-106.646
11
186.003
21
-106.617
0
LINE
8
Black
10
186.003
20
-106.617
11
185.989
21
-106.608
0
LINE
8
Black
10
185.989
20
-106.608
11
185.974
21
-106.601
0
LINE
8
Black
10
185.974
20
-106.601
11
185.971
21
-106.597
0
LINE
8
Black
10
185.971
20
-106.597
11
185.966
21
-106.594
0
LINE
8
Black
10
185.966
20
-106.594
11
185.956
21
-106.581
0
LINE
8
Black
10
185.956
20
-106.581
11
185.945
21
-106.568
0
LINE
8
Black
10
185.945
20
-106.568
11
185.942
21
-106.563
0
LINE
8
Black
10
185.942
20
-106.563
11
185.939
21
-106.559
0
LINE
8
Black
10
185.939
20
-106.559
11
185.934
21
-106.543
0
LINE
8
Black
10
185.934
20
-106.543
11
185.928
21
-106.527
0
LINE
8
Black
10
185.928
20
-106.527
11
185.927
21
-106.522
0
LINE
8
Black
10
185.927
20
-106.522
11
185.926
21
-106.517
0
LINE
8
Black
10
185.926
20
-106.517
11
185.926
21
-106.5
0
LINE
8
Black
10
185.926
20
-106.5
11
185.926
21
-106.483
0
LINE
8
Black
10
185.926
20
-106.483
11
185.927
21
-106.478
0
LINE
8
Black
10
185.927
20
-106.478
11
185.928
21
-106.473
0
LINE
8
Black
10
185.928
20
-106.473
11
185.934
21
-106.457
0
LINE
8
Black
10
185.934
20
-106.457
11
185.939
21
-106.441
0
LINE
8
Black
10
185.939
20
-106.441
11
185.942
21
-106.437
0
LINE
8
Black
10
185.942
20
-106.437
11
185.945
21
-106.432
0
LINE
8
Black
10
185.945
20
-106.432
11
185.956
21
-106.42
0
LINE
8
Black
10
185.956
20
-106.42
11
185.966
21
-106.406
0
LINE
8
Black
10
185.966
20
-106.406
11
185.971
21
-106.403
0
LINE
8
Black
10
185.971
20
-106.403
11
185.974
21
-106.399
0
LINE
8
Black
10
185.974
20
-106.399
11
185.989
21
-106.392
0
LINE
8
Black
10
185.989
20
-106.392
11
186.003
21
-106.383
0
LINE
8
Black
10
186.003
20
-106.383
11
186.07
21
-106.355
0
LINE
8
Black
10
186.07
20
-106.355
11
186.354
21
-106.072
0
LINE
8
Black
10
186.354
20
-106.072
11
186.508
21
-105.701
0
LINE
8
Black
10
186.508
20
-105.701
11
186.508
21
-105.3
0
LINE
8
Black
10
186.508
20
-105.3
11
186.355
21
-104.93
0
LINE
8
Black
10
186.355
20
-104.93
11
186.277
21
-104.852
0
LINE
8
Black
10
186.277
20
-104.852
11
186.072
21
-104.646
0
LINE
8
Black
10
186.072
20
-104.646
11
185.701
21
-104.492
0
LINE
8
Black
10
185.701
20
-104.492
11
185.3
21
-104.492
0
LINE
8
Black
10
185.3
20
-104.492
11
184.93
21
-104.645
0
LINE
8
Black
10
184.93
20
-104.645
11
184.87
21
-104.705
0
LINE
8
Black
10
184.87
20
-104.705
11
184.865
21
-104.708
0
LINE
8
Black
10
184.865
20
-104.708
11
184.862
21
-104.712
0
LINE
8
Black
10
184.862
20
-104.712
11
184.847
21
-104.721
0
LINE
8
Black
10
184.847
20
-104.721
11
184.834
21
-104.73
0
LINE
8
Black
10
184.834
20
-104.73
11
184.828
21
-104.732
0
LINE
8
Black
10
184.828
20
-104.732
11
184.823
21
-104.734
0
LINE
8
Black
10
184.823
20
-104.734
11
184.807
21
-104.737
0
LINE
8
Black
10
184.807
20
-104.737
11
184.791
21
-104.742
0
LINE
8
Black
10
184.791
20
-104.742
11
184.785
21
-104.741
0
LINE
8
Black
10
184.785
20
-104.741
11
184.78
21
-104.742
0
LINE
8
Black
10
184.78
20
-104.742
11
168.774
21
-104.742
0
LINE
8
Black
10
168.774
20
-104.742
11
168.755
21
-104.739
0
LINE
8
Black
10
168.755
20
-104.739
11
168.735
21
-104.736
0
LINE
8
Black
10
168.735
20
-104.736
11
168.733
21
-104.735
0
LINE
8
Black
10
168.733
20
-104.735
11
168.73
21
-104.734
0
LINE
8
Black
10
168.73
20
-104.734
11
168.713
21
-104.725
0
LINE
8
Black
10
168.713
20
-104.725
11
168.696
21
-104.716
0
LINE
8
Black
10
168.696
20
-104.716
11
168.694
21
-104.714
0
LINE
8
Black
10
168.694
20
-104.714
11
168.692
21
-104.712
0
LINE
8
Black
10
168.692
20
-104.712
11
168.68
21
-104.697
0
LINE
8
Black
10
168.68
20
-104.697
11
168.666
21
-104.683
0
LINE
8
Black
10
168.666
20
-104.683
11
168.665
21
-104.681
0
LINE
8
Black
10
168.665
20
-104.681
11
168.664
21
-104.678
0
LINE
8
Black
10
168.664
20
-104.678
11
168.657
21
-104.66
0
LINE
8
Black
10
168.657
20
-104.66
11
168.65
21
-104.642
0
LINE
8
Black
10
168.65
20
-104.642
11
168.65
21
-104.64
0
LINE
8
Black
10
168.65
20
-104.64
11
168.649
21
-104.637
0
LINE
8
Black
10
168.649
20
-104.637
11
168.649
21
-104.618
0
LINE
8
Black
10
168.649
20
-104.618
11
168.648
21
-104.598
0
LINE
8
Black
10
168.648
20
-104.598
11
168.649
21
-104.596
0
LINE
8
Black
10
168.649
20
-104.596
11
168.649
21
-104.593
0
LINE
8
Black
10
168.649
20
-104.593
11
168.655
21
-104.575
0
LINE
8
Black
10
168.655
20
-104.575
11
168.661
21
-104.556
0
LINE
8
Black
10
168.661
20
-104.556
11
168.663
21
-104.554
0
LINE
8
Black
10
168.663
20
-104.554
11
168.664
21
-104.551
0
LINE
8
Black
10
168.664
20
-104.551
11
168.676
21
-104.537
0
LINE
8
Black
10
168.676
20
-104.537
11
168.688
21
-104.521
0
LINE
8
Black
10
168.688
20
-104.521
11
168.69
21
-104.52
0
LINE
8
Black
10
168.69
20
-104.52
11
168.692
21
-104.518
0
LINE
8
Black
10
168.692
20
-104.518
11
168.709
21
-104.508
0
LINE
8
Black
10
168.709
20
-104.508
11
168.725
21
-104.498
0
LINE
8
Black
10
168.725
20
-104.498
11
169.07
21
-104.355
0
LINE
8
Black
10
169.07
20
-104.355
11
169.354
21
-104.072
0
LINE
8
Black
10
169.354
20
-104.072
11
169.508
21
-103.701
0
LINE
8
Black
10
169.508
20
-103.701
11
169.508
21
-103.3
0
LINE
8
Black
10
169.508
20
-103.3
11
169.355
21
-102.93
0
LINE
8
Black
10
169.355
20
-102.93
11
169.072
21
-102.646
0
LINE
8
Black
10
169.072
20
-102.646
11
168.701
21
-102.492
0
LINE
8
Black
10
168.701
20
-102.492
11
168.3
21
-102.492
0
LINE
8
Black
10
168.3
20
-102.492
11
167.93
21
-102.645
0
LINE
8
Black
10
167.93
20
-102.645
11
167.87
21
-102.705
0
LINE
8
Black
10
167.87
20
-102.705
11
167.865
21
-102.708
0
LINE
8
Black
10
167.865
20
-102.708
11
167.862
21
-102.712
0
LINE
8
Black
10
167.862
20
-102.712
11
167.847
21
-102.721
0
LINE
8
Black
10
167.847
20
-102.721
11
167.834
21
-102.73
0
LINE
8
Black
10
167.834
20
-102.73
11
167.828
21
-102.732
0
LINE
8
Black
10
167.828
20
-102.732
11
167.823
21
-102.734
0
LINE
8
Black
10
167.823
20
-102.734
11
167.807
21
-102.737
0
LINE
8
Black
10
167.807
20
-102.737
11
167.791
21
-102.742
0
LINE
8
Black
10
167.791
20
-102.742
11
167.785
21
-102.741
0
LINE
8
Black
10
167.785
20
-102.741
11
167.78
21
-102.742
0
LINE
8
Black
10
167.78
20
-102.742
11
159.22
21
-102.742
0
LINE
8
Black
10
159.22
20
-102.742
11
159.215
21
-102.741
0
LINE
8
Black
10
159.215
20
-102.741
11
159.209
21
-102.742
0
LINE
8
Black
10
159.209
20
-102.742
11
159.193
21
-102.737
0
LINE
8
Black
10
159.193
20
-102.737
11
159.177
21
-102.734
0
LINE
8
Black
10
159.177
20
-102.734
11
159.172
21
-102.732
0
LINE
8
Black
10
159.172
20
-102.732
11
159.167
21
-102.73
0
LINE
8
Black
10
159.167
20
-102.73
11
159.153
21
-102.721
0
LINE
8
Black
10
159.153
20
-102.721
11
159.139
21
-102.712
0
LINE
8
Black
10
159.139
20
-102.712
11
159.135
21
-102.708
0
LINE
8
Black
10
159.135
20
-102.708
11
159.13
21
-102.705
0
LINE
8
Black
10
159.13
20
-102.705
11
159.072
21
-102.646
0
LINE
8
Black
10
159.072
20
-102.646
11
158.701
21
-102.492
0
LINE
8
Black
10
158.701
20
-102.492
11
158.3
21
-102.492
0
LINE
8
Black
10
158.3
20
-102.492
11
157.93
21
-102.645
0
LINE
8
Black
10
157.93
20
-102.645
11
157.646
21
-102.928
0
LINE
8
Black
10
157.646
20
-102.928
11
157.492
21
-103.299
0
LINE
8
Black
10
157.492
20
-103.299
11
157.492
21
-103.7
0
LINE
8
Black
10
157.492
20
-103.7
11
157.645
21
-104.07
0
LINE
8
Black
10
157.645
20
-104.07
11
157.928
21
-104.354
0
LINE
8
Black
10
157.928
20
-104.354
11
158.274
21
-104.498
0
LINE
8
Black
10
158.274
20
-104.498
11
158.29
21
-104.508
0
LINE
8
Black
10
158.29
20
-104.508
11
158.307
21
-104.518
0
LINE
8
Black
10
158.307
20
-104.518
11
158.309
21
-104.52
0
LINE
8
Black
10
158.309
20
-104.52
11
158.311
21
-104.521
0
LINE
8
Black
10
158.311
20
-104.521
11
158.323
21
-104.537
0
LINE
8
Black
10
158.323
20
-104.537
11
158.336
21
-104.551
0
LINE
8
Black
10
158.336
20
-104.551
11
158.337
21
-104.554
0
LINE
8
Black
10
158.337
20
-104.554
11
158.338
21
-104.556
0
LINE
8
Black
10
158.338
20
-104.556
11
158.344
21
-104.575
0
LINE
8
Black
10
158.344
20
-104.575
11
158.351
21
-104.593
0
LINE
8
Black
10
158.351
20
-104.593
11
158.351
21
-104.596
0
LINE
8
Black
10
158.351
20
-104.596
11
158.351
21
-104.599
0
LINE
8
Black
10
158.351
20
-104.599
11
158.351
21
-104.618
0
LINE
8
Black
10
158.351
20
-104.618
11
158.351
21
-104.637
0
LINE
8
Black
10
158.351
20
-104.637
11
158.35
21
-104.64
0
LINE
8
Black
10
158.35
20
-104.64
11
158.35
21
-104.643
0
LINE
8
Black
10
158.35
20
-104.643
11
158.342
21
-104.66
0
LINE
8
Black
10
158.342
20
-104.66
11
158.336
21
-104.678
0
LINE
8
Black
10
158.336
20
-104.678
11
158.334
21
-104.681
0
LINE
8
Black
10
158.334
20
-104.681
11
158.333
21
-104.683
0
LINE
8
Black
10
158.333
20
-104.683
11
158.32
21
-104.698
0
LINE
8
Black
10
158.32
20
-104.698
11
158.307
21
-104.712
0
LINE
8
Black
10
158.307
20
-104.712
11
158.305
21
-104.714
0
LINE
8
Black
10
158.305
20
-104.714
11
158.303
21
-104.716
0
LINE
8
Black
10
158.303
20
-104.716
11
158.286
21
-104.725
0
LINE
8
Black
10
158.286
20
-104.725
11
158.269
21
-104.734
0
LINE
8
Black
10
158.269
20
-104.734
11
158.266
21
-104.735
0
LINE
8
Black
10
158.266
20
-104.735
11
158.264
21
-104.736
0
LINE
8
Black
10
158.264
20
-104.736
11
158.245
21
-104.739
0
LINE
8
Black
10
158.245
20
-104.739
11
158.226
21
-104.742
0
LINE
8
Black
10
158.226
20
-104.742
11
149.22
21
-104.742
0
LINE
8
Black
10
149.22
20
-104.742
11
149.215
21
-104.741
0
LINE
8
Black
10
149.215
20
-104.741
11
149.209
21
-104.742
0
LINE
8
Black
10
149.209
20
-104.742
11
149.193
21
-104.737
0
LINE
8
Black
10
149.193
20
-104.737
11
149.177
21
-104.734
0
LINE
8
Black
10
149.177
20
-104.734
11
149.172
21
-104.732
0
LINE
8
Black
10
149.172
20
-104.732
11
149.167
21
-104.73
0
LINE
8
Black
10
149.167
20
-104.73
11
149.153
21
-104.721
0
LINE
8
Black
10
149.153
20
-104.721
11
149.139
21
-104.712
0
LINE
8
Black
10
149.139
20
-104.712
11
149.135
21
-104.708
0
LINE
8
Black
10
149.135
20
-104.708
11
149.13
21
-104.705
0
LINE
8
Black
10
149.13
20
-104.705
11
149.072
21
-104.646
0
LINE
8
Black
10
149.072
20
-104.646
11
148.701
21
-104.492
0
LINE
8
Black
10
148.701
20
-104.492
11
148.3
21
-104.492
0
LINE
8
Black
10
148.3
20
-104.492
11
147.93
21
-104.645
0
LINE
8
Black
10
147.93
20
-104.645
11
147.646
21
-104.928
0
LINE
8
Black
10
147.646
20
-104.928
11
147.492
21
-105.299
0
LINE
8
Black
10
147.492
20
-105.299
11
147.492
21
-105.7
0
LINE
8
Black
10
147.492
20
-105.7
11
147.645
21
-106.07
0
LINE
8
Black
10
147.645
20
-106.07
11
147.928
21
-106.354
0
LINE
8
Black
10
147.928
20
-106.354
11
148.299
21
-106.508
0
LINE
8
Black
10
148.299
20
-106.508
11
148.7
21
-106.508
0
LINE
8
Black
10
148.7
20
-106.508
11
149.07
21
-106.355
0
LINE
8
Black
10
149.07
20
-106.355
11
149.13
21
-106.295
0
LINE
8
Black
10
149.13
20
-106.295
11
149.135
21
-106.292
0
LINE
8
Black
10
149.135
20
-106.292
11
149.138
21
-106.288
0
LINE
8
Black
10
149.138
20
-106.288
11
149.153
21
-106.279
0
LINE
8
Black
10
149.153
20
-106.279
11
149.166
21
-106.27
0
LINE
8
Black
10
149.166
20
-106.27
11
149.172
21
-106.268
0
LINE
8
Black
10
149.172
20
-106.268
11
149.177
21
-106.266
0
LINE
8
Black
10
149.177
20
-106.266
11
149.193
21
-106.263
0
LINE
8
Black
10
149.193
20
-106.263
11
149.209
21
-106.258
0
LINE
8
Black
10
149.209
20
-106.258
11
149.215
21
-106.259
0
LINE
8
Black
10
149.215
20
-106.259
11
149.22
21
-106.258
0
LINE
8
Black
10
149.22
20
-106.258
11
153.226
21
-106.258
0
LINE
8
Black
10
153.226
20
-106.258
11
153.245
21
-106.261
0
LINE
8
Black
10
153.245
20
-106.261
11
153.265
21
-106.264
0
LINE
8
Black
10
153.265
20
-106.264
11
153.267
21
-106.265
0
LINE
8
Black
10
153.267
20
-106.265
11
153.27
21
-106.266
0
LINE
8
Black
10
153.27
20
-106.266
11
153.287
21
-106.275
0
LINE
8
Black
10
153.287
20
-106.275
11
153.304
21
-106.284
0
LINE
8
Black
10
153.304
20
-106.284
11
153.306
21
-106.286
0
LINE
8
Black
10
153.306
20
-106.286
11
153.308
21
-106.288
0
LINE
8
Black
10
153.308
20
-106.288
11
153.32
21
-106.303
0
LINE
8
Black
10
153.32
20
-106.303
11
153.334
21
-106.317
0
LINE
8
Black
10
153.334
20
-106.317
11
153.335
21
-106.319
0
LINE
8
Black
10
153.335
20
-106.319
11
153.336
21
-106.322
0
LINE
8
Black
10
153.336
20
-106.322
11
153.343
21
-106.34
0
LINE
8
Black
10
153.343
20
-106.34
11
153.35
21
-106.358
0
LINE
8
Black
10
153.35
20
-106.358
11
153.35
21
-106.36
0
LINE
8
Black
10
153.35
20
-106.36
11
153.351
21
-106.363
0
LINE
8
Black
10
153.351
20
-106.363
11
153.351
21
-106.382
0
LINE
8
Black
10
153.351
20
-106.382
11
153.352
21
-106.402
0
LINE
8
Black
10
153.352
20
-106.402
11
153.351
21
-106.404
0
LINE
8
Black
10
153.351
20
-106.404
11
153.351
21
-106.407
0
LINE
8
Black
10
153.351
20
-106.407
11
153.345
21
-106.425
0
LINE
8
Black
10
153.345
20
-106.425
11
153.339
21
-106.444
0
LINE
8
Black
10
153.339
20
-106.444
11
153.337
21
-106.446
0
LINE
8
Black
10
153.337
20
-106.446
11
153.336
21
-106.448
0
LINE
8
Black
10
153.336
20
-106.448
11
153.324
21
-106.463
0
LINE
8
Black
10
153.324
20
-106.463
11
153.312
21
-106.479
0
LINE
8
Black
10
153.312
20
-106.479
11
153.31
21
-106.48
0
LINE
8
Black
10
153.31
20
-106.48
11
153.308
21
-106.482
0
LINE
8
Black
10
153.308
20
-106.482
11
153.291
21
-106.492
0
LINE
8
Black
10
153.291
20
-106.492
11
153.275
21
-106.502
0
LINE
8
Black
10
153.275
20
-106.502
11
152.93
21
-106.645
0
LINE
8
Black
10
152.93
20
-106.645
11
152.646
21
-106.928
0
LINE
8
Black
10
152.646
20
-106.928
11
152.492
21
-107.299
0
LINE
8
Black
10
152.492
20
-107.299
11
152.492
21
-107.7
0
LINE
8
Black
10
152.492
20
-107.7
11
152.645
21
-108.07
0
LINE
8
Black
10
152.645
20
-108.07
11
152.909
21
-108.335
0
LINE
8
Black
10
152.909
20
-108.335
11
152.919
21
-108.349
0
LINE
8
Black
10
152.919
20
-108.349
11
152.929
21
-108.361
0
LINE
8
Black
10
152.929
20
-108.361
11
152.931
21
-108.367
0
LINE
8
Black
10
152.931
20
-108.367
11
152.935
21
-108.371
0
LINE
8
Black
10
152.935
20
-108.371
11
152.939
21
-108.387
0
LINE
8
Black
10
152.939
20
-108.387
11
152.945
21
-108.403
0
LINE
8
Black
10
152.945
20
-108.403
11
152.945
21
-108.408
0
LINE
8
Black
10
152.945
20
-108.408
11
152.946
21
-108.414
0
LINE
8
Black
10
152.946
20
-108.414
11
152.944
21
-108.43
0
LINE
8
Black
10
152.944
20
-108.43
11
152.944
21
-108.447
0
LINE
8
Black
10
152.944
20
-108.447
11
152.943
21
-108.452
0
LINE
8
Black
10
152.943
20
-108.452
11
152.942
21
-108.458
0
LINE
8
Black
10
152.942
20
-108.458
11
152.935
21
-108.473
0
LINE
8
Black
10
152.935
20
-108.473
11
152.929
21
-108.488
0
LINE
8
Black
10
152.929
20
-108.488
11
152.926
21
-108.493
0
LINE
8
Black
10
152.926
20
-108.493
11
152.923
21
-108.498
0
LINE
8
Black
10
152.923
20
-108.498
11
152.912
21
-108.509
0
LINE
8
Black
10
152.912
20
-108.509
11
152.901
21
-108.522
0
LINE
8
Black
10
152.901
20
-108.522
11
152.896
21
-108.525
0
LINE
8
Black
10
152.896
20
-108.525
11
152.892
21
-108.529
0
LINE
8
Black
10
152.892
20
-108.529
11
152.877
21
-108.536
0
LINE
8
Black
10
152.877
20
-108.536
11
152.863
21
-108.544
0
LINE
8
Black
10
152.863
20
-108.544
11
152.857
21
-108.545
0
LINE
8
Black
10
152.857
20
-108.545
11
152.852
21
-108.547
0
LINE
8
Black
10
152.852
20
-108.547
11
152.836
21
-108.549
0
LINE
8
Black
10
152.836
20
-108.549
11
152.819
21
-108.552
0
LINE
8
Black
10
152.819
20
-108.552
11
152.811
21
-108.552
0
LINE
8
Black
10
152.811
20
-108.552
11
152.293
21
-108.766
0
LINE
8
Black
10
152.293
20
-108.766
11
151.909
21
-109.149
0
LINE
8
Black
10
151.909
20
-109.149
11
151.9
21
-109.155
0
LINE
8
Black
10
151.9
20
-109.155
11
151.892
21
-109.163
0
LINE
8
Black
10
151.892
20
-109.163
11
151.882
21
-109.168
0
LINE
8
Black
10
151.882
20
-109.168
11
151.873
21
-109.174
0
LINE
8
Black
10
151.873
20
-109.174
11
151.863
21
-109.177
0
LINE
8
Black
10
151.863
20
-109.177
11
151.852
21
-109.182
0
LINE
8
Black
10
151.852
20
-109.182
11
151.841
21
-109.183
0
LINE
8
Black
10
151.841
20
-109.183
11
151.831
21
-109.186
0
LINE
8
Black
10
151.831
20
-109.186
11
151.82
21
-109.185
0
LINE
8
Black
10
151.82
20
-109.185
11
151.808
21
-109.186
0
LINE
8
Black
10
151.808
20
-109.186
11
151.798
21
-109.183
0
LINE
8
Black
10
151.798
20
-109.183
11
151.787
21
-109.182
0
LINE
8
Black
10
151.787
20
-109.182
11
151.777
21
-109.177
0
LINE
8
Black
10
151.777
20
-109.177
11
151.766
21
-109.174
0
LINE
8
Black
10
151.766
20
-109.174
11
151.757
21
-109.168
0
LINE
8
Black
10
151.757
20
-109.168
11
151.747
21
-109.163
0
LINE
8
Black
10
151.747
20
-109.163
11
151.739
21
-109.155
0
LINE
8
Black
10
151.739
20
-109.155
11
151.73
21
-109.149
0
LINE
8
Black
10
151.73
20
-109.149
11
151.349
21
-108.767
0
LINE
8
Black
10
151.349
20
-108.767
11
150.831
21
-108.552
0
LINE
8
Black
10
150.831
20
-108.552
11
150.271
21
-108.552
0
LINE
8
Black
10
150.271
20
-108.552
11
149.753
21
-108.766
0
LINE
8
Black
10
149.753
20
-108.766
11
149.369
21
-109.149
0
LINE
8
Black
10
149.369
20
-109.149
11
149.36
21
-109.155
0
LINE
8
Black
10
149.36
20
-109.155
11
149.352
21
-109.163
0
LINE
8
Black
10
149.352
20
-109.163
11
149.342
21
-109.168
0
LINE
8
Black
10
149.342
20
-109.168
11
149.333
21
-109.174
0
LINE
8
Black
10
149.333
20
-109.174
11
149.323
21
-109.177
0
LINE
8
Black
10
149.323
20
-109.177
11
149.312
21
-109.182
0
LINE
8
Black
10
149.312
20
-109.182
11
149.301
21
-109.183
0
LINE
8
Black
10
149.301
20
-109.183
11
149.291
21
-109.186
0
LINE
8
Black
10
149.291
20
-109.186
11
149.28
21
-109.185
0
LINE
8
Black
10
149.28
20
-109.185
11
149.268
21
-109.186
0
LINE
8
Black
10
149.268
20
-109.186
11
149.258
21
-109.183
0
LINE
8
Black
10
149.258
20
-109.183
11
149.247
21
-109.182
0
LINE
8
Black
10
149.247
20
-109.182
11
149.237
21
-109.177
0
LINE
8
Black
10
149.237
20
-109.177
11
149.226
21
-109.174
0
LINE
8
Black
10
149.226
20
-109.174
11
149.217
21
-109.168
0
LINE
8
Black
10
149.217
20
-109.168
11
149.207
21
-109.163
0
LINE
8
Black
10
149.207
20
-109.163
11
149.199
21
-109.155
0
LINE
8
Black
10
149.199
20
-109.155
11
149.19
21
-109.149
0
LINE
8
Black
10
149.19
20
-109.149
11
148.809
21
-108.767
0
LINE
8
Black
10
148.809
20
-108.767
11
148.291
21
-108.552
0
LINE
8
Black
10
148.291
20
-108.552
11
147.731
21
-108.552
0
LINE
8
Black
10
147.731
20
-108.552
11
147.213
21
-108.766
0
LINE
8
Black
10
147.213
20
-108.766
11
146.816
21
-109.163
0
LINE
8
Black
10
146.816
20
-109.163
11
146.814
21
-109.165
0
LINE
8
Black
10
146.814
20
-109.165
11
146.812
21
-109.171
0
LINE
8
Black
10
146.812
20
-109.171
11
146.803
21
-109.183
0
LINE
8
Black
10
146.803
20
-109.183
11
146.794
21
-109.196
0
LINE
8
Black
10
146.794
20
-109.196
11
146.789
21
-109.2
0
LINE
8
Black
10
146.789
20
-109.2
11
146.785
21
-109.205
0
LINE
8
Black
10
146.785
20
-109.205
11
146.772
21
-109.214
0
LINE
8
Black
10
146.772
20
-109.214
11
146.759
21
-109.223
0
LINE
8
Black
10
146.759
20
-109.223
11
146.753
21
-109.225
0
LINE
8
Black
10
146.753
20
-109.225
11
146.747
21
-109.228
0
LINE
8
Black
10
146.747
20
-109.228
11
146.732
21
-109.231
0
LINE
8
Black
10
146.732
20
-109.231
11
146.717
21
-109.236
0
LINE
8
Black
10
146.717
20
-109.236
11
146.71
21
-109.236
0
LINE
8
Black
10
146.71
20
-109.236
11
146.704
21
-109.237
0
LINE
8
Black
10
146.704
20
-109.237
11
146.689
21
-109.235
0
LINE
8
Black
10
146.689
20
-109.235
11
146.673
21
-109.234
0
LINE
8
Black
10
146.673
20
-109.234
11
146.667
21
-109.232
0
LINE
8
Black
10
146.667
20
-109.232
11
146.66
21
-109.231
0
LINE
8
Black
10
146.66
20
-109.231
11
146.584
21
-109.205
0
LINE
8
Black
10
146.584
20
-109.205
11
146.26
21
-109.529
0
LINE
8
Black
10
146.26
20
-109.529
11
146.36
21
-109.803
0
LINE
8
Black
10
146.36
20
-109.803
11
146.36
21
-110.117
0
LINE
8
Black
10
146.36
20
-110.117
11
146.26
21
-110.391
0
LINE
8
Black
10
146.26
20
-110.391
11
146.584
21
-110.715
0
LINE
8
Black
10
146.584
20
-110.715
11
146.66
21
-110.69
0
LINE
8
Black
10
146.66
20
-110.69
11
146.667
21
-110.689
0
LINE
8
Black
10
146.667
20
-110.689
11
146.673
21
-110.686
0
LINE
8
Black
10
146.673
20
-110.686
11
146.688
21
-110.685
0
LINE
8
Black
10
146.688
20
-110.685
11
146.703
21
-110.683
0
LINE
8
Black
10
146.703
20
-110.683
11
146.71
21
-110.684
0
LINE
8
Black
10
146.71
20
-110.684
11
146.717
21
-110.684
0
LINE
8
Black
10
146.717
20
-110.684
11
146.732
21
-110.689
0
LINE
8
Black
10
146.732
20
-110.689
11
146.747
21
-110.692
0
LINE
8
Black
10
146.747
20
-110.692
11
146.753
21
-110.695
0
LINE
8
Black
10
146.753
20
-110.695
11
146.759
21
-110.697
0
LINE
8
Black
10
146.759
20
-110.697
11
146.771
21
-110.707
0
LINE
8
Black
10
146.771
20
-110.707
11
146.784
21
-110.715
0
LINE
8
Black
10
146.784
20
-110.715
11
146.789
21
-110.72
0
LINE
8
Black
10
146.789
20
-110.72
11
146.794
21
-110.724
0
LINE
8
Black
10
146.794
20
-110.724
11
146.802
21
-110.737
0
LINE
8
Black
10
146.802
20
-110.737
11
146.812
21
-110.749
0
LINE
8
Black
10
146.812
20
-110.749
11
146.814
21
-110.754
0
LINE
8
Black
10
146.814
20
-110.754
11
147.211
21
-111.153
0
LINE
8
Black
10
147.211
20
-111.153
11
147.259
21
-111.173
0
LINE
8
Black
10
147.259
20
-111.173
11
147.275
21
-111.183
0
LINE
8
Black
10
147.275
20
-111.183
11
147.292
21
-111.193
0
LINE
8
Black
10
147.292
20
-111.193
11
147.294
21
-111.195
0
LINE
8
Black
10
147.294
20
-111.195
11
147.296
21
-111.196
0
LINE
8
Black
10
147.296
20
-111.196
11
147.308
21
-111.212
0
LINE
8
Black
10
147.308
20
-111.212
11
147.32
21
-111.227
0
LINE
8
Black
10
147.32
20
-111.227
11
147.321
21
-111.229
0
LINE
8
Black
10
147.321
20
-111.229
11
147.323
21
-111.231
0
LINE
8
Black
10
147.323
20
-111.231
11
147.329
21
-111.25
0
LINE
8
Black
10
147.329
20
-111.25
11
147.335
21
-111.268
0
LINE
8
Black
10
147.335
20
-111.268
11
147.335
21
-111.271
0
LINE
8
Black
10
147.335
20
-111.271
11
147.336
21
-111.274
0
LINE
8
Black
10
147.336
20
-111.274
11
147.335
21
-111.293
0
LINE
8
Black
10
147.335
20
-111.293
11
147.335
21
-111.312
0
LINE
8
Black
10
147.335
20
-111.312
11
147.334
21
-111.315
0
LINE
8
Black
10
147.334
20
-111.315
11
147.334
21
-111.318
0
LINE
8
Black
10
147.334
20
-111.318
11
147.327
21
-111.335
0
LINE
8
Black
10
147.327
20
-111.335
11
147.32
21
-111.353
0
LINE
8
Black
10
147.32
20
-111.353
11
147.318
21
-111.356
0
LINE
8
Black
10
147.318
20
-111.356
11
147.317
21
-111.358
0
LINE
8
Black
10
147.317
20
-111.358
11
147.304
21
-111.373
0
LINE
8
Black
10
147.304
20
-111.373
11
147.292
21
-111.387
0
LINE
8
Black
10
147.292
20
-111.387
11
147.289
21
-111.389
0
LINE
8
Black
10
147.289
20
-111.389
11
147.288
21
-111.391
0
LINE
8
Black
10
147.288
20
-111.391
11
147.27
21
-111.4
0
LINE
8
Black
10
147.27
20
-111.4
11
147.254
21
-111.409
0
LINE
8
Black
10
147.254
20
-111.409
11
147.251
21
-111.41
0
LINE
8
Black
10
147.251
20
-111.41
11
147.248
21
-111.411
0
LINE
8
Black
10
147.248
20
-111.411
11
147.229
21
-111.414
0
LINE
8
Black
10
147.229
20
-111.414
11
147.21
21
-111.417
0
LINE
8
Black
10
147.21
20
-111.417
11
146.286
21
-111.417
0
LINE
8
Black
10
146.286
20
-111.417
11
146.277
21
-111.415
0
LINE
8
Black
10
146.277
20
-111.415
11
146.267
21
-111.416
0
LINE
8
Black
10
146.267
20
-111.416
11
146.255
21
-111.412
0
LINE
8
Black
10
146.255
20
-111.412
11
146.243
21
-111.409
0
LINE
8
Black
10
146.243
20
-111.409
11
146.235
21
-111.405
0
LINE
8
Black
10
146.235
20
-111.405
11
146.226
21
-111.401
0
LINE
8
Black
10
146.226
20
-111.401
11
146.216
21
-111.394
0
LINE
8
Black
10
146.216
20
-111.394
11
146.205
21
-111.387
0
LINE
8
Black
10
146.205
20
-111.387
11
146.199
21
-111.38
0
LINE
8
Black
10
146.199
20
-111.38
11
146.191
21
-111.374
0
LINE
8
Black
10
146.191
20
-111.374
11
146.185
21
-111.363
0
LINE
8
Black
10
146.185
20
-111.363
11
146.176
21
-111.353
0
LINE
8
Black
10
146.176
20
-111.353
11
146.173
21
-111.344
0
LINE
8
Black
10
146.173
20
-111.344
11
146.168
21
-111.336
0
LINE
8
Black
10
146.168
20
-111.336
11
146.166
21
-111.324
0
LINE
8
Black
10
146.166
20
-111.324
11
146.161
21
-111.312
0
LINE
8
Black
10
146.161
20
-111.312
11
146.161
21
-111.302
0
LINE
8
Black
10
146.161
20
-111.302
11
146.159
21
-111.293
0
LINE
8
Black
10
146.159
20
-111.293
11
146.161
21
-111.281
0
LINE
8
Black
10
146.161
20
-111.281
11
146.161
21
-111.268
0
LINE
8
Black
10
146.161
20
-111.268
11
146.165
21
-111.259
0
LINE
8
Black
10
146.165
20
-111.259
11
146.166
21
-111.249
0
LINE
8
Black
10
146.166
20
-111.249
11
146.225
21
-111.074
0
LINE
8
Black
10
146.225
20
-111.074
11
145.894
21
-110.743
0
LINE
8
Black
10
145.894
20
-110.743
11
145.779
21
-110.809
0
LINE
8
Black
10
145.779
20
-110.809
11
145.47
21
-110.863
0
LINE
8
Black
10
145.47
20
-110.863
11
145.161
21
-110.809
0
LINE
8
Black
10
145.161
20
-110.809
11
145.046
21
-110.743
0
LINE
8
Black
10
145.046
20
-110.743
11
144.715
21
-111.074
0
LINE
8
Black
10
144.715
20
-111.074
11
144.774
21
-111.249
0
LINE
8
Black
10
144.774
20
-111.249
11
144.775
21
-111.259
0
LINE
8
Black
10
144.775
20
-111.259
11
144.779
21
-111.268
0
LINE
8
Black
10
144.779
20
-111.268
11
144.779
21
-111.281
0
LINE
8
Black
10
144.779
20
-111.281
11
144.781
21
-111.293
0
LINE
8
Black
10
144.781
20
-111.293
11
144.779
21
-111.302
0
LINE
8
Black
10
144.779
20
-111.302
11
144.779
21
-111.312
0
LINE
8
Black
10
144.779
20
-111.312
11
144.774
21
-111.324
0
LINE
8
Black
10
144.774
20
-111.324
11
144.772
21
-111.336
0
LINE
8
Black
10
144.772
20
-111.336
11
144.767
21
-111.344
0
LINE
8
Black
10
144.767
20
-111.344
11
144.764
21
-111.353
0
LINE
8
Black
10
144.764
20
-111.353
11
144.755
21
-111.363
0
LINE
8
Black
10
144.755
20
-111.363
11
144.749
21
-111.374
0
LINE
8
Black
10
144.749
20
-111.374
11
144.741
21
-111.38
0
LINE
8
Black
10
144.741
20
-111.38
11
144.735
21
-111.387
0
LINE
8
Black
10
144.735
20
-111.387
11
144.724
21
-111.394
0
LINE
8
Black
10
144.724
20
-111.394
11
144.714
21
-111.401
0
LINE
8
Black
10
144.714
20
-111.401
11
144.705
21
-111.405
0
LINE
8
Black
10
144.705
20
-111.405
11
144.697
21
-111.409
0
LINE
8
Black
10
144.697
20
-111.409
11
144.685
21
-111.412
0
LINE
8
Black
10
144.685
20
-111.412
11
144.673
21
-111.416
0
LINE
8
Black
10
144.673
20
-111.416
11
144.663
21
-111.415
0
LINE
8
Black
10
144.663
20
-111.415
11
144.654
21
-111.417
0
LINE
8
Black
10
144.654
20
-111.417
11
143.731
21
-111.417
0
LINE
8
Black
10
143.731
20
-111.417
11
143.712
21
-111.414
0
LINE
8
Black
10
143.712
20
-111.414
11
143.692
21
-111.411
0
LINE
8
Black
10
143.692
20
-111.411
11
143.69
21
-111.41
0
LINE
8
Black
10
143.69
20
-111.41
11
143.687
21
-111.409
0
LINE
8
Black
10
143.687
20
-111.409
11
143.671
21
-111.4
0
LINE
8
Black
10
143.671
20
-111.4
11
143.653
21
-111.391
0
LINE
8
Black
10
143.653
20
-111.391
11
143.652
21
-111.389
0
LINE
8
Black
10
143.652
20
-111.389
11
143.649
21
-111.387
0
LINE
8
Black
10
143.649
20
-111.387
11
143.637
21
-111.372
0
LINE
8
Black
10
143.637
20
-111.372
11
143.624
21
-111.358
0
LINE
8
Black
10
143.624
20
-111.358
11
143.623
21
-111.356
0
LINE
8
Black
10
143.623
20
-111.356
11
143.621
21
-111.353
0
LINE
8
Black
10
143.621
20
-111.353
11
143.614
21
-111.335
0
LINE
8
Black
10
143.614
20
-111.335
11
143.607
21
-111.317
0
LINE
8
Black
10
143.607
20
-111.317
11
143.607
21
-111.315
0
LINE
8
Black
10
143.607
20
-111.315
11
143.606
21
-111.312
0
LINE
8
Black
10
143.606
20
-111.312
11
143.606
21
-111.293
0
LINE
8
Black
10
143.606
20
-111.293
11
143.605
21
-111.273
0
LINE
8
Black
10
143.605
20
-111.273
11
143.606
21
-111.271
0
LINE
8
Black
10
143.606
20
-111.271
11
143.606
21
-111.268
0
LINE
8
Black
10
143.606
20
-111.268
11
143.612
21
-111.25
0
LINE
8
Black
10
143.612
20
-111.25
11
143.618
21
-111.231
0
LINE
8
Black
10
143.618
20
-111.231
11
143.62
21
-111.229
0
LINE
8
Black
10
143.62
20
-111.229
11
143.621
21
-111.227
0
LINE
8
Black
10
143.621
20
-111.227
11
143.633
21
-111.212
0
LINE
8
Black
10
143.633
20
-111.212
11
143.645
21
-111.196
0
LINE
8
Black
10
143.645
20
-111.196
11
143.647
21
-111.195
0
LINE
8
Black
10
143.647
20
-111.195
11
143.649
21
-111.193
0
LINE
8
Black
10
143.649
20
-111.193
11
143.666
21
-111.183
0
LINE
8
Black
10
143.666
20
-111.183
11
143.682
21
-111.173
0
LINE
8
Black
10
143.682
20
-111.173
11
143.727
21
-111.154
0
LINE
8
Black
10
143.727
20
-111.154
11
144.124
21
-110.757
0
LINE
8
Black
10
144.124
20
-110.757
11
144.126
21
-110.755
0
LINE
8
Black
10
144.126
20
-110.755
11
144.128
21
-110.749
0
LINE
8
Black
10
144.128
20
-110.749
11
144.137
21
-110.737
0
LINE
8
Black
10
144.137
20
-110.737
11
144.146
21
-110.724
0
LINE
8
Black
10
144.146
20
-110.724
11
144.151
21
-110.72
0
LINE
8
Black
10
144.151
20
-110.72
11
144.155
21
-110.715
0
LINE
8
Black
10
144.155
20
-110.715
11
144.168
21
-110.706
0
LINE
8
Black
10
144.168
20
-110.706
11
144.181
21
-110.697
0
LINE
8
Black
10
144.181
20
-110.697
11
144.187
21
-110.695
0
LINE
8
Black
10
144.187
20
-110.695
11
144.193
21
-110.692
0
LINE
8
Black
10
144.193
20
-110.692
11
144.208
21
-110.689
0
LINE
8
Black
10
144.208
20
-110.689
11
144.223
21
-110.684
0
LINE
8
Black
10
144.223
20
-110.684
11
144.23
21
-110.684
0
LINE
8
Black
10
144.23
20
-110.684
11
144.236
21
-110.683
0
LINE
8
Black
10
144.236
20
-110.683
11
144.251
21
-110.685
0
LINE
8
Black
10
144.251
20
-110.685
11
144.267
21
-110.686
0
LINE
8
Black
10
144.267
20
-110.686
11
144.273
21
-110.688
0
LINE
8
Black
10
144.273
20
-110.688
11
144.28
21
-110.689
0
LINE
8
Black
10
144.28
20
-110.689
11
144.356
21
-110.715
0
LINE
8
Black
10
144.356
20
-110.715
11
144.68
21
-110.391
0
LINE
8
Black
10
144.68
20
-110.391
11
144.58
21
-110.117
0
LINE
8
Black
10
144.58
20
-110.117
11
144.58
21
-109.803
0
LINE
8
Black
10
144.58
20
-109.803
11
144.68
21
-109.529
0
LINE
8
Black
10
144.68
20
-109.529
11
144.356
21
-109.205
0
LINE
8
Black
10
144.356
20
-109.205
11
144.28
21
-109.23
0
LINE
8
Black
10
144.28
20
-109.23
11
144.273
21
-109.231
0
LINE
8
Black
10
144.273
20
-109.231
11
144.267
21
-109.234
0
LINE
8
Black
10
144.267
20
-109.234
11
144.252
21
-109.235
0
LINE
8
Black
10
144.252
20
-109.235
11
144.237
21
-109.237
0
LINE
8
Black
10
144.237
20
-109.237
11
144.23
21
-109.236
0
LINE
8
Black
10
144.23
20
-109.236
11
144.223
21
-109.236
0
LINE
8
Black
10
144.223
20
-109.236
11
144.208
21
-109.231
0
LINE
8
Black
10
144.208
20
-109.231
11
144.193
21
-109.228
0
LINE
8
Black
10
144.193
20
-109.228
11
144.187
21
-109.225
0
LINE
8
Black
10
144.187
20
-109.225
11
144.181
21
-109.223
0
LINE
8
Black
10
144.181
20
-109.223
11
144.169
21
-109.213
0
LINE
8
Black
10
144.169
20
-109.213
11
144.156
21
-109.205
0
LINE
8
Black
10
144.156
20
-109.205
11
144.151
21
-109.2
0
LINE
8
Black
10
144.151
20
-109.2
11
144.146
21
-109.196
0
LINE
8
Black
10
144.146
20
-109.196
11
144.138
21
-109.183
0
LINE
8
Black
10
144.138
20
-109.183
11
144.128
21
-109.171
0
LINE
8
Black
10
144.128
20
-109.171
11
144.126
21
-109.166
0
LINE
8
Black
10
144.126
20
-109.166
11
143.931
21
-108.97
0
LINE
8
Black
10
143.931
20
-108.97
11
143.729
21
-108.767
0
LINE
8
Black
10
143.729
20
-108.767
11
143.211
21
-108.552
0
LINE
8
Black
10
143.211
20
-108.552
11
142.651
21
-108.552
0
LINE
8
Black
10
142.651
20
-108.552
11
142.133
21
-108.766
0
LINE
8
Black
10
142.133
20
-108.766
11
141.749
21
-109.149
0
LINE
8
Black
10
141.749
20
-109.149
11
141.74
21
-109.155
0
LINE
8
Black
10
141.74
20
-109.155
11
141.732
21
-109.163
0
LINE
8
Black
10
141.732
20
-109.163
11
141.722
21
-109.168
0
LINE
8
Black
10
141.722
20
-109.168
11
141.713
21
-109.174
0
LINE
8
Black
10
141.713
20
-109.174
11
141.703
21
-109.177
0
LINE
8
Black
10
141.703
20
-109.177
11
141.692
21
-109.182
0
LINE
8
Black
10
141.692
20
-109.182
11
141.681
21
-109.183
0
LINE
8
Black
10
141.681
20
-109.183
11
141.671
21
-109.186
0
LINE
8
Black
10
141.671
20
-109.186
11
141.66
21
-109.185
0
LINE
8
Black
10
141.66
20
-109.185
11
141.648
21
-109.186
0
LINE
8
Black
10
141.648
20
-109.186
11
141.638
21
-109.183
0
LINE
8
Black
10
141.638
20
-109.183
11
141.627
21
-109.182
0
LINE
8
Black
10
141.627
20
-109.182
11
141.617
21
-109.177
0
LINE
8
Black
10
141.617
20
-109.177
11
141.606
21
-109.174
0
LINE
8
Black
10
141.606
20
-109.174
11
141.597
21
-109.168
0
LINE
8
Black
10
141.597
20
-109.168
11
141.587
21
-109.163
0
LINE
8
Black
10
141.587
20
-109.163
11
141.579
21
-109.155
0
LINE
8
Black
10
141.579
20
-109.155
11
141.57
21
-109.149
0
LINE
8
Black
10
141.57
20
-109.149
11
141.189
21
-108.767
0
LINE
8
Black
10
141.189
20
-108.767
11
140.671
21
-108.552
0
LINE
8
Black
10
140.671
20
-108.552
11
140.111
21
-108.552
0
LINE
8
Black
10
140.111
20
-108.552
11
139.593
21
-108.766
0
LINE
8
Black
10
139.593
20
-108.766
11
139.209
21
-109.149
0
LINE
8
Black
10
139.209
20
-109.149
11
139.2
21
-109.155
0
LINE
8
Black
10
139.2
20
-109.155
11
139.192
21
-109.163
0
LINE
8
Black
10
139.192
20
-109.163
11
139.182
21
-109.168
0
LINE
8
Black
10
139.182
20
-109.168
11
139.173
21
-109.174
0
LINE
8
Black
10
139.173
20
-109.174
11
139.163
21
-109.177
0
LINE
8
Black
10
139.163
20
-109.177
11
139.152
21
-109.182
0
LINE
8
Black
10
139.152
20
-109.182
11
139.141
21
-109.183
0
LINE
8
Black
10
139.141
20
-109.183
11
139.131
21
-109.186
0
LINE
8
Black
10
139.131
20
-109.186
11
139.12
21
-109.185
0
LINE
8
Black
10
139.12
20
-109.185
11
139.108
21
-109.186
0
LINE
8
Black
10
139.108
20
-109.186
11
139.098
21
-109.183
0
LINE
8
Black
10
139.098
20
-109.183
11
139.087
21
-109.182
0
LINE
8
Black
10
139.087
20
-109.182
11
139.077
21
-109.177
0
LINE
8
Black
10
139.077
20
-109.177
11
139.066
21
-109.174
0
LINE
8
Black
10
139.066
20
-109.174
11
139.057
21
-109.168
0
LINE
8
Black
10
139.057
20
-109.168
11
139.047
21
-109.163
0
LINE
8
Black
10
139.047
20
-109.163
11
139.039
21
-109.155
0
LINE
8
Black
10
139.039
20
-109.155
11
139.03
21
-109.149
0
LINE
8
Black
10
139.03
20
-109.149
11
138.649
21
-108.767
0
LINE
8
Black
10
138.649
20
-108.767
11
138.131
21
-108.552
0
LINE
8
Black
10
138.131
20
-108.552
11
137.571
21
-108.552
0
LINE
8
Black
10
137.571
20
-108.552
11
137.053
21
-108.766
0
LINE
8
Black
10
137.053
20
-108.766
11
136.657
21
-109.161
0
LINE
8
Black
10
136.657
20
-109.161
11
136.442
21
-109.679
0
LINE
8
Black
10
136.442
20
-109.679
11
136.442
21
-110.239
0
LINE
8
Black
10
136.442
20
-110.239
11
136.656
21
-110.757
0
LINE
8
Black
10
136.656
20
-110.757
11
137.051
21
-111.153
0
LINE
8
Black
10
137.051
20
-111.153
11
137.099
21
-111.173
0
LINE
8
Black
10
137.099
20
-111.173
11
137.115
21
-111.183
0
LINE
8
Black
10
137.115
20
-111.183
11
137.132
21
-111.193
0
LINE
8
Black
10
137.132
20
-111.193
11
137.134
21
-111.195
0
LINE
8
Black
10
137.134
20
-111.195
11
137.136
21
-111.196
0
LINE
8
Black
10
137.136
20
-111.196
11
137.148
21
-111.212
0
LINE
8
Black
10
137.148
20
-111.212
11
137.16
21
-111.227
0
LINE
8
Black
10
137.16
20
-111.227
11
137.161
21
-111.229
0
LINE
8
Black
10
137.161
20
-111.229
11
137.163
21
-111.231
0
LINE
8
Black
10
137.163
20
-111.231
11
137.169
21
-111.25
0
LINE
8
Black
10
137.169
20
-111.25
11
137.175
21
-111.268
0
LINE
8
Black
10
137.175
20
-111.268
11
137.175
21
-111.271
0
LINE
8
Black
10
137.175
20
-111.271
11
137.176
21
-111.274
0
LINE
8
Black
10
137.176
20
-111.274
11
137.175
21
-111.293
0
LINE
8
Black
10
137.175
20
-111.293
11
137.175
21
-111.312
0
LINE
8
Black
10
137.175
20
-111.312
11
137.174
21
-111.315
0
LINE
8
Black
10
137.174
20
-111.315
11
137.174
21
-111.318
0
LINE
8
Black
10
137.174
20
-111.318
11
137.167
21
-111.335
0
LINE
8
Black
10
137.167
20
-111.335
11
137.16
21
-111.353
0
LINE
8
Black
10
137.16
20
-111.353
11
137.158
21
-111.356
0
LINE
8
Black
10
137.158
20
-111.356
11
137.157
21
-111.358
0
LINE
8
Black
10
137.157
20
-111.358
11
137.144
21
-111.373
0
LINE
8
Black
10
137.144
20
-111.373
11
137.132
21
-111.387
0
LINE
8
Black
10
137.132
20
-111.387
11
137.129
21
-111.389
0
LINE
8
Black
10
137.129
20
-111.389
11
137.128
21
-111.391
0
LINE
8
Black
10
137.128
20
-111.391
11
137.11
21
-111.4
0
LINE
8
Black
10
137.11
20
-111.4
11
137.094
21
-111.409
0
LINE
8
Black
10
137.094
20
-111.409
11
137.091
21
-111.41
0
LINE
8
Black
10
137.091
20
-111.41
11
137.088
21
-111.411
0
LINE
8
Black
10
137.088
20
-111.411
11
137.069
21
-111.414
0
LINE
8
Black
10
137.069
20
-111.414
11
137.05
21
-111.417
0
LINE
8
Black
10
137.05
20
-111.417
11
112.635
21
-111.417
0
LINE
8
Black
10
112.635
20
-111.417
11
112.624
21
-111.415
0
LINE
8
Black
10
112.624
20
-111.415
11
112.613
21
-111.415
0
LINE
8
Black
10
112.613
20
-111.415
11
112.603
21
-111.411
0
LINE
8
Black
10
112.603
20
-111.411
11
112.592
21
-111.409
0
LINE
8
Black
10
112.592
20
-111.409
11
112.582
21
-111.404
0
LINE
8
Black
10
112.582
20
-111.404
11
112.572
21
-111.4
0
LINE
8
Black
10
112.572
20
-111.4
11
112.563
21
-111.393
0
LINE
8
Black
10
112.563
20
-111.393
11
112.553
21
-111.387
0
LINE
8
Black
10
112.553
20
-111.387
11
112.546
21
-111.379
0
LINE
8
Black
10
112.546
20
-111.379
11
112.538
21
-111.372
0
LINE
8
Black
10
112.538
20
-111.372
11
112.532
21
-111.362
0
LINE
8
Black
10
112.532
20
-111.362
11
112.525
21
-111.353
0
LINE
8
Black
10
112.525
20
-111.353
11
112.521
21
-111.343
0
LINE
8
Black
10
112.521
20
-111.343
11
112.516
21
-111.333
0
LINE
8
Black
10
112.516
20
-111.333
11
112.514
21
-111.322
0
LINE
8
Black
10
112.514
20
-111.322
11
112.51
21
-111.312
0
LINE
8
Black
10
112.51
20
-111.312
11
112.51
21
-111.301
0
LINE
8
Black
10
112.51
20
-111.301
11
112.508
21
-111.29
0
LINE
8
Black
10
112.508
20
-111.29
11
112.508
21
-109.338
0
LINE
8
Black
10
112.508
20
-109.338
11
112.424
21
-109.254
0
LINE
8
Black
10
112.424
20
-109.254
11
112
21
-109.254
0
LINE
8
Black
10
112
20
-109.254
11
112
21
-111.5
0
LINE
8
Black
10
112
20
-111.5
11
102
21
-111.5
0
LINE
8
Black
10
102
20
-111.5
11
102
21
-106.5
0
LINE
8
Black
10
102
20
-106.5
11
106.746
21
-106.5
0
LINE
8
Black
10
106.746
20
-106.5
11
106.746
21
-106.076
0
LINE
8
Black
10
106.746
20
-106.076
11
106.662
21
-105.992
0
LINE
8
Black
10
106.662
20
-105.992
11
102.21
21
-105.992
0
LINE
8
Black
10
102.21
20
-105.992
11
102.199
21
-105.99
0
LINE
8
Black
10
102.199
20
-105.99
11
102.188
21
-105.99
0
LINE
8
Black
10
102.188
20
-105.99
11
102.178
21
-105.986
0
LINE
8
Black
10
102.178
20
-105.986
11
102.167
21
-105.984
0
LINE
8
Black
10
102.167
20
-105.984
11
102.157
21
-105.979
0
LINE
8
Black
10
102.157
20
-105.979
11
102.146
21
-105.975
0
LINE
8
Black
10
102.146
20
-105.975
11
102.138
21
-105.968
0
LINE
8
Black
10
102.138
20
-105.968
11
102.128
21
-105.962
0
LINE
8
Black
10
102.128
20
-105.962
11
102.121
21
-105.954
0
LINE
8
Black
10
102.121
20
-105.954
11
102.113
21
-105.947
0
LINE
8
Black
10
102.113
20
-105.947
11
102.107
21
-105.937
0
LINE
8
Black
10
102.107
20
-105.937
11
102.1
21
-105.928
0
LINE
8
Black
10
102.1
20
-105.928
11
102.096
21
-105.918
0
LINE
8
Black
10
102.096
20
-105.918
11
102.091
21
-105.908
0
LINE
8
Black
10
102.091
20
-105.908
11
102.089
21
-105.897
0
LINE
8
Black
10
102.089
20
-105.897
11
102.085
21
-105.887
0
LINE
8
Black
10
102.085
20
-105.887
11
102.085
21
-105.876
0
LINE
8
Black
10
102.085
20
-105.876
11
102.083
21
-105.865
0
LINE
8
Black
10
102.083
20
-105.865
11
102.083
21
-105.647
0
LINE
8
Black
10
102.083
20
-105.647
11
102.085
21
-105.636
0
LINE
8
Black
10
102.085
20
-105.636
11
102.085
21
-105.625
0
LINE
8
Black
10
102.085
20
-105.625
11
102.089
21
-105.615
0
LINE
8
Black
10
102.089
20
-105.615
11
102.091
21
-105.604
0
LINE
8
Black
10
102.091
20
-105.604
11
102.096
21
-105.594
0
LINE
8
Black
10
102.096
20
-105.594
11
102.1
21
-105.584
0
LINE
8
Black
10
102.1
20
-105.584
11
102.107
21
-105.575
0
LINE
8
Black
10
102.107
20
-105.575
11
102.113
21
-105.566
0
LINE
8
Black
10
102.113
20
-105.566
11
102.121
21
-105.559
0
LINE
8
Black
10
102.121
20
-105.559
11
102.128
21
-105.55
0
LINE
8
Black
10
102.128
20
-105.55
11
102.138
21
-105.545
0
LINE
8
Black
10
102.138
20
-105.545
11
102.146
21
-105.537
0
LINE
8
Black
10
102.146
20
-105.537
11
102.157
21
-105.534
0
LINE
8
Black
10
102.157
20
-105.534
11
102.167
21
-105.528
0
LINE
8
Black
10
102.167
20
-105.528
11
102.178
21
-105.526
0
LINE
8
Black
10
102.178
20
-105.526
11
102.188
21
-105.522
0
LINE
8
Black
10
102.188
20
-105.522
11
102.199
21
-105.522
0
LINE
8
Black
10
102.199
20
-105.522
11
102.21
21
-105.52
0
LINE
8
Black
10
102.21
20
-105.52
11
111.988
21
-105.52
0
LINE
8
Black
10
111.988
20
-105.52
11
112.187
21
-105.483
0
LINE
8
Black
10
112.187
20
-105.483
11
112.361
21
-105.371
0
LINE
8
Black
10
112.361
20
-105.371
11
112.477
21
-105.201
0
LINE
8
Black
10
112.477
20
-105.201
11
112.52
21
-104.987
0
LINE
8
Black
10
112.52
20
-104.987
11
112.52
21
-103.884
0
LINE
8
Black
10
112.52
20
-103.884
11
112.52
21
-103.635
0
LINE
8
Black
10
112.52
20
-103.635
11
112.522
21
-103.624
0
LINE
8
Black
10
112.522
20
-103.624
11
112.522
21
-103.613
0
LINE
8
Black
10
112.522
20
-103.613
11
112.526
21
-103.603
0
LINE
8
Black
10
112.526
20
-103.603
11
112.528
21
-103.592
0
LINE
8
Black
10
112.528
20
-103.592
11
112.534
21
-103.582
0
LINE
8
Black
10
112.534
20
-103.582
11
112.537
21
-103.572
0
LINE
8
Black
10
112.537
20
-103.572
11
112.545
21
-103.563
0
LINE
8
Black
10
112.545
20
-103.563
11
112.55
21
-103.553
0
LINE
8
Black
10
112.55
20
-103.553
11
112.559
21
-103.546
0
LINE
8
Black
10
112.559
20
-103.546
11
112.566
21
-103.538
0
LINE
8
Black
10
112.566
20
-103.538
11
112.575
21
-103.532
0
LINE
8
Black
10
112.575
20
-103.532
11
112.584
21
-103.525
0
LINE
8
Black
10
112.584
20
-103.525
11
112.594
21
-103.521
0
LINE
8
Black
10
112.594
20
-103.521
11
112.604
21
-103.516
0
LINE
8
Black
10
112.604
20
-103.516
11
112.615
21
-103.514
0
LINE
8
Black
10
112.615
20
-103.514
11
112.625
21
-103.51
0
LINE
8
Black
10
112.625
20
-103.51
11
112.636
21
-103.51
0
LINE
8
Black
10
112.636
20
-103.51
11
112.647
21
-103.508
0
LINE
8
Black
10
112.647
20
-103.508
11
121.999
21
-103.508
0
LINE
8
Black
10
121.999
20
-103.508
11
121.999
21
-103.508
0
LINE
8
Black
10
121.999
20
-103.508
11
121.999
21
-103.508
0
LINE
8
Black
10
121.999
20
-103.508
11
122.219
21
-103.508
0
LINE
8
Black
10
122.219
20
-103.508
11
122.22
21
-103.508
0
LINE
8
Black
10
122.22
20
-103.508
11
122.22
21
-103.508
0
LINE
8
Black
10
122.22
20
-103.508
11
122.224
21
-103.508
0
LINE
8
Black
10
122.224
20
-103.508
11
122.225
21
-103.508
0
LINE
8
Black
10
122.225
20
-103.508
11
123.987
21
-103.508
0
LINE
8
Black
10
123.987
20
-103.508
11
124.385
21
-103.429
0
LINE
8
Black
10
124.385
20
-103.429
11
124.722
21
-103.204
0
LINE
8
Black
10
124.722
20
-103.204
11
125.054
21
-102.872
0
LINE
8
Black
10
125.054
20
-102.872
11
125.099
21
-102.804
0
LINE
8
Black
10
125.099
20
-102.804
11
125.099
21
-102.804
0
LINE
8
Black
10
125.099
20
-102.804
11
125.279
21
-102.535
0
LINE
8
Black
10
125.279
20
-102.535
11
125.331
21
-102.271
0
LINE
8
Black
10
125.331
20
-102.271
11
125.337
21
-102.257
0
LINE
8
Black
10
125.337
20
-102.257
11
125.341
21
-102.242
0
LINE
8
Black
10
125.341
20
-102.242
11
125.345
21
-102.236
0
LINE
8
Black
10
125.345
20
-102.236
11
125.347
21
-102.23
0
LINE
8
Black
10
125.347
20
-102.23
11
125.358
21
-102.218
0
LINE
8
Black
10
125.358
20
-102.218
11
125.366
21
-102.206
0
LINE
8
Black
10
125.366
20
-102.206
11
126.862
21
-100.71
0
LINE
8
Black
10
126.862
20
-100.71
11
127.777
21
-99.7952
0
LINE
8
Black
10
127.777
20
-99.7952
11
127.781
21
-99.792
0
LINE
8
Black
10
127.781
20
-99.792
11
127.785
21
-99.7877
0
LINE
8
Black
10
127.785
20
-99.7877
11
127.799
21
-99.7794
0
LINE
8
Black
10
127.799
20
-99.7794
11
127.813
21
-99.7699
0
LINE
8
Black
10
127.813
20
-99.7699
11
127.818
21
-99.7685
0
LINE
8
Black
10
127.818
20
-99.7685
11
127.823
21
-99.7657
0
LINE
8
Black
10
127.823
20
-99.7657
11
127.839
21
-99.7628
0
LINE
8
Black
10
127.839
20
-99.7628
11
127.856
21
-99.7585
0
LINE
8
Black
10
127.856
20
-99.7585
11
127.861
21
-99.759
0
LINE
8
Black
10
127.861
20
-99.759
11
127.867
21
-99.758
0
LINE
8
Black
10
127.867
20
-99.758
11
129.365
21
-99.758
0
LINE
8
Black
10
129.365
20
-99.758
11
129.374
21
-99.7597
0
LINE
8
Black
10
129.374
20
-99.7597
11
129.384
21
-99.7594
0
LINE
8
Black
10
129.384
20
-99.7594
11
129.396
21
-99.7635
0
LINE
8
Black
10
129.396
20
-99.7635
11
129.408
21
-99.7657
0
LINE
8
Black
10
129.408
20
-99.7657
11
129.416
21
-99.7705
0
LINE
8
Black
10
129.416
20
-99.7705
11
129.425
21
-99.7735
0
LINE
8
Black
10
129.425
20
-99.7735
11
129.435
21
-99.7814
0
LINE
8
Black
10
129.435
20
-99.7814
11
129.446
21
-99.7877
0
LINE
8
Black
10
129.446
20
-99.7877
11
129.452
21
-99.7951
0
LINE
8
Black
10
129.452
20
-99.7951
11
129.46
21
-99.801
0
LINE
8
Black
10
129.46
20
-99.801
11
129.467
21
-99.8118
0
LINE
8
Black
10
129.467
20
-99.8118
11
129.475
21
-99.8215
0
LINE
8
Black
10
129.475
20
-99.8215
11
129.478
21
-99.8305
0
LINE
8
Black
10
129.478
20
-99.8305
11
129.483
21
-99.8387
0
LINE
8
Black
10
129.483
20
-99.8387
11
129.485
21
-99.8511
0
LINE
8
Black
10
129.485
20
-99.8511
11
129.49
21
-99.8629
0
LINE
8
Black
10
129.49
20
-99.8629
11
129.49
21
-99.8725
0
LINE
8
Black
10
129.49
20
-99.8725
11
129.492
21
-99.8819
0
LINE
8
Black
10
129.492
20
-99.8819
11
129.49
21
-99.8944
0
LINE
8
Black
10
129.49
20
-99.8944
11
129.49
21
-99.9071
0
LINE
8
Black
10
129.49
20
-99.9071
11
129.486
21
-99.9161
0
LINE
8
Black
10
129.486
20
-99.9161
11
129.485
21
-99.9255
0
LINE
8
Black
10
129.485
20
-99.9255
11
129.485
21
-99.9257
0
LINE
8
Black
10
129.485
20
-99.9257
11
129.816
21
-100.257
0
LINE
8
Black
10
129.816
20
-100.257
11
129.931
21
-100.191
0
LINE
8
Black
10
129.931
20
-100.191
11
130.24
21
-100.137
0
LINE
8
Black
10
130.24
20
-100.137
11
130.549
21
-100.191
0
LINE
8
Black
10
130.549
20
-100.191
11
130.664
21
-100.257
0
LINE
8
Black
10
130.664
20
-100.257
11
130.995
21
-99.9257
0
LINE
8
Black
10
130.995
20
-99.9257
11
130.995
21
-99.9255
0
LINE
8
Black
10
130.995
20
-99.9255
11
130.994
21
-99.9161
0
LINE
8
Black
10
130.994
20
-99.9161
11
130.99
21
-99.9071
0
LINE
8
Black
10
130.99
20
-99.9071
11
130.99
21
-99.8944
0
LINE
8
Black
10
130.99
20
-99.8944
11
130.988
21
-99.8819
0
LINE
8
Black
10
130.988
20
-99.8819
11
130.99
21
-99.8725
0
LINE
8
Black
10
130.99
20
-99.8725
11
130.99
21
-99.8629
0
LINE
8
Black
10
130.99
20
-99.8629
11
130.995
21
-99.8511
0
LINE
8
Black
10
130.995
20
-99.8511
11
130.997
21
-99.8387
0
LINE
8
Black
10
130.997
20
-99.8387
11
131.002
21
-99.8305
0
LINE
8
Black
10
131.002
20
-99.8305
11
131.005
21
-99.8215
0
LINE
8
Black
10
131.005
20
-99.8215
11
131.013
21
-99.8118
0
LINE
8
Black
10
131.013
20
-99.8118
11
131.02
21
-99.801
0
LINE
8
Black
10
131.02
20
-99.801
11
131.028
21
-99.7951
0
LINE
8
Black
10
131.028
20
-99.7951
11
131.034
21
-99.7877
0
LINE
8
Black
10
131.034
20
-99.7877
11
131.045
21
-99.7814
0
LINE
8
Black
10
131.045
20
-99.7814
11
131.055
21
-99.7735
0
LINE
8
Black
10
131.055
20
-99.7735
11
131.064
21
-99.7705
0
LINE
8
Black
10
131.064
20
-99.7705
11
131.072
21
-99.7657
0
LINE
8
Black
10
131.072
20
-99.7657
11
131.084
21
-99.7635
0
LINE
8
Black
10
131.084
20
-99.7635
11
131.096
21
-99.7594
0
LINE
8
Black
10
131.096
20
-99.7594
11
131.106
21
-99.7597
0
LINE
8
Black
10
131.106
20
-99.7597
11
131.115
21
-99.758
0
LINE
8
Black
10
131.115
20
-99.758
11
145.78
21
-99.758
0
LINE
8
Black
10
145.78
20
-99.758
11
145.785
21
-99.759
0
LINE
8
Black
10
145.785
20
-99.759
11
145.791
21
-99.7585
0
LINE
8
Black
10
145.791
20
-99.7585
11
145.807
21
-99.7628
0
LINE
8
Black
10
145.807
20
-99.7628
11
145.823
21
-99.7657
0
LINE
8
Black
10
145.823
20
-99.7657
11
145.828
21
-99.7685
0
LINE
8
Black
10
145.828
20
-99.7685
11
145.833
21
-99.7699
0
LINE
8
Black
10
145.833
20
-99.7699
11
145.847
21
-99.7794
0
LINE
8
Black
10
145.847
20
-99.7794
11
145.861
21
-99.7877
0
LINE
8
Black
10
145.861
20
-99.7877
11
145.865
21
-99.792
0
LINE
8
Black
10
145.865
20
-99.792
11
145.87
21
-99.7953
0
LINE
8
Black
10
145.87
20
-99.7953
11
145.928
21
-99.854
0
LINE
8
Black
10
145.928
20
-99.854
11
146.299
21
-100.008
0
LINE
8
Black
10
146.299
20
-100.008
11
146.7
21
-100.008
0
LINE
8
Black
10
146.7
20
-100.008
11
147.07
21
-99.855
0
LINE
8
Black
10
147.07
20
-99.855
11
147.354
21
-99.5717
0
LINE
8
Black
10
147.354
20
-99.5717
11
147.508
21
-99.2014
0
LINE
8
Black
10
147.508
20
-99.2014
11
147.508
21
-98.8004
0
LINE
8
Black
10
147.508
20
-98.8004
11
147.46
21
-98.6835
0
LINE
8
Black
10
147.46
20
-98.6835
11
147.457
21
-98.67
0
LINE
8
Black
10
147.457
20
-98.67
11
147.452
21
-98.6571
0
LINE
8
Black
10
147.452
20
-98.6571
11
147.452
21
-98.6486
0
LINE
8
Black
10
147.452
20
-98.6486
11
147.45
21
-98.6404
0
LINE
8
Black
10
147.45
20
-98.6404
11
147.452
21
-98.6268
0
LINE
8
Black
10
147.452
20
-98.6268
11
147.452
21
-98.6129
0
LINE
8
Black
10
147.452
20
-98.6129
11
147.455
21
-98.605
0
LINE
8
Black
10
147.455
20
-98.605
11
147.456
21
-98.5967
0
LINE
8
Black
10
147.456
20
-98.5967
11
147.463
21
-98.5845
0
LINE
8
Black
10
147.463
20
-98.5845
11
147.467
21
-98.5715
0
LINE
8
Black
10
147.467
20
-98.5715
11
147.473
21
-98.5651
0
LINE
8
Black
10
147.473
20
-98.5651
11
147.477
21
-98.5576
0
LINE
8
Black
10
147.477
20
-98.5576
11
147.487
21
-98.5483
0
LINE
8
Black
10
147.487
20
-98.5483
11
147.496
21
-98.5377
0
LINE
8
Black
10
147.496
20
-98.5377
11
147.503
21
-98.5335
0
LINE
8
Black
10
147.503
20
-98.5335
11
147.509
21
-98.5278
0
LINE
8
Black
10
147.509
20
-98.5278
11
147.522
21
-98.5226
0
LINE
8
Black
10
147.522
20
-98.5226
11
147.534
21
-98.5157
0
LINE
8
Black
10
147.534
20
-98.5157
11
147.542
21
-98.5142
0
LINE
8
Black
10
147.542
20
-98.5142
11
147.55
21
-98.511
0
LINE
8
Black
10
147.55
20
-98.511
11
147.564
21
-98.5104
0
LINE
8
Black
10
147.564
20
-98.5104
11
147.577
21
-98.508
0
LINE
8
Black
10
147.577
20
-98.508
11
183.03
21
-98.508
0
LINE
8
Black
10
183.03
20
-98.508
11
183.035
21
-98.509
0
LINE
8
Black
10
183.035
20
-98.509
11
183.041
21
-98.5085
0
LINE
8
Black
10
183.041
20
-98.5085
11
183.057
21
-98.5128
0
LINE
8
Black
10
183.057
20
-98.5128
11
183.073
21
-98.5157
0
LINE
8
Black
10
183.073
20
-98.5157
11
183.078
21
-98.5185
0
LINE
8
Black
10
183.078
20
-98.5185
11
183.084
21
-98.5199
0
LINE
8
Black
10
183.084
20
-98.5199
11
183.097
21
-98.5294
0
LINE
8
Black
10
183.097
20
-98.5294
11
183.112
21
-98.5377
0
LINE
8
Black
10
183.112
20
-98.5377
11
183.115
21
-98.542
0
LINE
8
Black
10
183.115
20
-98.542
11
183.12
21
-98.5452
0
LINE
8
Black
10
183.12
20
-98.5452
11
184.787
21
-100.212
0
LINE
8
Black
10
184.787
20
-100.212
11
184.787
21
-100.212
0
LINE
8
Black
10
184.787
20
-100.212
11
184.787
21
-100.212
0
LINE
8
Black
10
184.787
20
-100.212
11
184.928
21
-100.354
0
LINE
8
Black
10
184.928
20
-100.354
11
185.299
21
-100.508
0
LINE
8
Black
10
185.299
20
-100.508
11
185.7
21
-100.508
0
LINE
8
Black
10
185.7
20
-100.508
11
186.07
21
-100.355
0
LINE
8
Black
10
186.07
20
-100.355
11
186.354
21
-100.072
0
LINE
8
Black
10
186.354
20
-100.072
11
186.483
21
-99.7605
0
LINE
8
Black
10
186.483
20
-99.7605
11
186.508
21
-99.7014
0
LINE
8
Black
10
186.508
20
-99.7014
11
186.508
21
-99.3004
0
LINE
8
Black
10
186.508
20
-99.3004
11
186.355
21
-98.9298
0
LINE
8
Black
10
186.355
20
-98.9298
11
186.277
21
-98.8519
0
LINE
8
Black
10
186.277
20
-98.8519
11
186.058
21
-98.6319
0
LINE
8
Black
10
186.058
20
-98.6319
11
186.057
21
-98.6318
0
LINE
8
Black
10
186.057
20
-98.6318
11
186.057
21
-98.6313
0
LINE
8
Black
10
186.057
20
-98.6313
11
186.054
21
-98.6286
0
LINE
8
Black
10
186.054
20
-98.6286
11
186.053
21
-98.628
0
LINE
8
Black
10
186.053
20
-98.628
11
184.222
21
-96.7961
0
LINE
8
Black
10
184.222
20
-96.7961
11
184.045
21
-96.6782
0
LINE
8
Black
10
184.045
20
-96.6782
11
184.045
21
-96.6782
0
LINE
8
Black
10
184.045
20
-96.6782
11
183.885
21
-96.571
0
LINE
8
Black
10
183.885
20
-96.571
11
183.487
21
-96.492
0
LINE
8
Black
10
183.487
20
-96.492
11
146.635
21
-96.492
0
LINE
8
Black
10
146.635
20
-96.492
11
146.624
21
-96.4901
0
LINE
8
Black
10
146.624
20
-96.4901
11
146.613
21
-96.4901
0
LINE
8
Black
10
146.613
20
-96.4901
11
146.603
21
-96.4863
0
LINE
8
Black
10
146.603
20
-96.4863
11
146.592
21
-96.4843
0
LINE
8
Black
10
146.592
20
-96.4843
11
146.582
21
-96.4788
0
LINE
8
Black
10
146.582
20
-96.4788
11
146.571
21
-96.475
0
LINE
8
Black
10
146.571
20
-96.475
11
146.563
21
-96.4678
0
LINE
8
Black
10
146.563
20
-96.4678
11
146.553
21
-96.4623
0
LINE
8
Black
10
146.553
20
-96.4623
11
146.546
21
-96.4538
0
LINE
8
Black
10
146.546
20
-96.4538
11
146.538
21
-96.4466
0
LINE
8
Black
10
146.538
20
-96.4466
11
146.532
21
-96.437
0
LINE
8
Black
10
146.532
20
-96.437
11
146.525
21
-96.4285
0
LINE
8
Black
10
146.525
20
-96.4285
11
146.521
21
-96.4181
0
LINE
8
Black
10
146.521
20
-96.4181
11
146.516
21
-96.4084
0
LINE
8
Black
10
146.516
20
-96.4084
11
146.514
21
-96.3975
0
LINE
8
Black
10
146.514
20
-96.3975
11
146.51
21
-96.3871
0
LINE
8
Black
10
146.51
20
-96.3871
11
146.51
21
-96.3759
0
LINE
8
Black
10
146.51
20
-96.3759
11
146.508
21
-96.365
0
LINE
8
Black
10
146.508
20
-96.365
11
146.508
21
-95.726
0
LINE
8
Black
10
146.508
20
-95.726
11
146.509
21
-95.7204
0
LINE
8
Black
10
146.509
20
-95.7204
11
146.508
21
-95.7148
0
LINE
8
Black
10
146.508
20
-95.7148
11
146.513
21
-95.6988
0
LINE
8
Black
10
146.513
20
-95.6988
11
146.516
21
-95.6825
0
LINE
8
Black
10
146.516
20
-95.6825
11
146.518
21
-95.6776
0
LINE
8
Black
10
146.518
20
-95.6776
11
146.52
21
-95.6722
0
LINE
8
Black
10
146.52
20
-95.6722
11
146.529
21
-95.6586
0
LINE
8
Black
10
146.529
20
-95.6586
11
146.538
21
-95.6443
0
LINE
8
Black
10
146.538
20
-95.6443
11
146.542
21
-95.6407
0
LINE
8
Black
10
146.542
20
-95.6407
11
146.545
21
-95.6361
0
LINE
8
Black
10
146.545
20
-95.6361
11
146.651
21
-95.5309
0
LINE
8
Black
10
146.651
20
-95.5309
11
146.66
21
-95.5246
0
LINE
8
Black
10
146.66
20
-95.5246
11
146.668
21
-95.5167
0
LINE
8
Black
10
146.668
20
-95.5167
11
146.678
21
-95.512
0
LINE
8
Black
10
146.678
20
-95.512
11
146.687
21
-95.5057
0
LINE
8
Black
10
146.687
20
-95.5057
11
146.697
21
-95.5028
0
LINE
8
Black
10
146.697
20
-95.5028
11
146.708
21
-95.4981
0
LINE
8
Black
10
146.708
20
-95.4981
11
146.719
21
-95.4972
0
LINE
8
Black
10
146.719
20
-95.4972
11
146.729
21
-95.4943
0
LINE
8
Black
10
146.729
20
-95.4943
11
146.74
21
-95.4953
0
LINE
8
Black
10
146.74
20
-95.4953
11
146.752
21
-95.4943
0
LINE
8
Black
10
146.752
20
-95.4943
11
146.762
21
-95.4972
0
LINE
8
Black
10
146.762
20
-95.4972
11
146.773
21
-95.4982
0
LINE
8
Black
10
146.773
20
-95.4982
11
146.783
21
-95.5029
0
LINE
8
Black
10
146.783
20
-95.5029
11
146.794
21
-95.5058
0
LINE
8
Black
10
146.794
20
-95.5058
11
146.803
21
-95.5121
0
LINE
8
Black
10
146.803
20
-95.5121
11
146.813
21
-95.5168
0
LINE
8
Black
10
146.813
20
-95.5168
11
146.821
21
-95.5247
0
LINE
8
Black
10
146.821
20
-95.5247
11
146.83
21
-95.5311
0
LINE
8
Black
10
146.83
20
-95.5311
11
147.211
21
-95.9129
0
LINE
8
Black
10
147.211
20
-95.9129
11
147.729
21
-96.1278
0
LINE
8
Black
10
147.729
20
-96.1278
11
148.289
21
-96.1282
0
LINE
8
Black
10
148.289
20
-96.1282
11
148.807
21
-95.9143
0
LINE
8
Black
10
148.807
20
-95.9143
11
149.191
21
-95.5309
0
LINE
8
Black
10
149.191
20
-95.5309
11
149.2
21
-95.5246
0
LINE
8
Black
10
149.2
20
-95.5246
11
149.208
21
-95.5167
0
LINE
8
Black
10
149.208
20
-95.5167
11
149.218
21
-95.512
0
LINE
8
Black
10
149.218
20
-95.512
11
149.227
21
-95.5057
0
LINE
8
Black
10
149.227
20
-95.5057
11
149.237
21
-95.5028
0
LINE
8
Black
10
149.237
20
-95.5028
11
149.248
21
-95.4981
0
LINE
8
Black
10
149.248
20
-95.4981
11
149.259
21
-95.4972
0
LINE
8
Black
10
149.259
20
-95.4972
11
149.269
21
-95.4943
0
LINE
8
Black
10
149.269
20
-95.4943
11
149.28
21
-95.4953
0
LINE
8
Black
10
149.28
20
-95.4953
11
149.292
21
-95.4943
0
LINE
8
Black
10
149.292
20
-95.4943
11
149.302
21
-95.4972
0
LINE
8
Black
10
149.302
20
-95.4972
11
149.313
21
-95.4982
0
LINE
8
Black
10
149.313
20
-95.4982
11
149.323
21
-95.5029
0
LINE
8
Black
10
149.323
20
-95.5029
11
149.334
21
-95.5058
0
LINE
8
Black
10
149.334
20
-95.5058
11
149.343
21
-95.5121
0
LINE
8
Black
10
149.343
20
-95.5121
11
149.353
21
-95.5168
0
LINE
8
Black
10
149.353
20
-95.5168
11
149.361
21
-95.5247
0
LINE
8
Black
10
149.361
20
-95.5247
11
149.37
21
-95.5311
0
LINE
8
Black
10
149.37
20
-95.5311
11
149.751
21
-95.9129
0
LINE
8
Black
10
149.751
20
-95.9129
11
150.269
21
-96.1278
0
LINE
8
Black
10
150.269
20
-96.1278
11
150.829
21
-96.1282
0
LINE
8
Black
10
150.829
20
-96.1282
11
151.347
21
-95.9143
0
LINE
8
Black
10
151.347
20
-95.9143
11
151.731
21
-95.5309
0
LINE
8
Black
10
151.731
20
-95.5309
11
151.74
21
-95.5246
0
LINE
8
Black
10
151.74
20
-95.5246
11
151.748
21
-95.5167
0
LINE
8
Black
10
151.748
20
-95.5167
11
151.758
21
-95.512
0
LINE
8
Black
10
151.758
20
-95.512
11
151.767
21
-95.5057
0
LINE
8
Black
10
151.767
20
-95.5057
11
151.777
21
-95.5028
0
LINE
8
Black
10
151.777
20
-95.5028
11
151.788
21
-95.4981
0
LINE
8
Black
10
151.788
20
-95.4981
11
151.799
21
-95.4972
0
LINE
8
Black
10
151.799
20
-95.4972
11
151.809
21
-95.4943
0
LINE
8
Black
10
151.809
20
-95.4943
11
151.82
21
-95.4953
0
LINE
8
Black
10
151.82
20
-95.4953
11
151.832
21
-95.4943
0
LINE
8
Black
10
151.832
20
-95.4943
11
151.842
21
-95.4972
0
LINE
8
Black
10
151.842
20
-95.4972
11
151.853
21
-95.4982
0
LINE
8
Black
10
151.853
20
-95.4982
11
151.863
21
-95.5029
0
LINE
8
Black
10
151.863
20
-95.5029
11
151.874
21
-95.5058
0
LINE
8
Black
10
151.874
20
-95.5058
11
151.883
21
-95.5121
0
LINE
8
Black
10
151.883
20
-95.5121
11
151.893
21
-95.5168
0
LINE
8
Black
10
151.893
20
-95.5168
11
151.901
21
-95.5247
0
LINE
8
Black
10
151.901
20
-95.5247
11
151.91
21
-95.5311
0
LINE
8
Black
10
151.91
20
-95.5311
11
152.291
21
-95.9129
0
LINE
8
Black
10
152.291
20
-95.9129
11
152.809
21
-96.1278
0
LINE
8
Black
10
152.809
20
-96.1278
11
153.369
21
-96.1282
0
LINE
8
Black
10
153.369
20
-96.1282
11
153.887
21
-95.9143
0
LINE
8
Black
10
153.887
20
-95.9143
11
154.271
21
-95.5309
0
LINE
8
Black
10
154.271
20
-95.5309
11
154.28
21
-95.5246
0
LINE
8
Black
10
154.28
20
-95.5246
11
154.288
21
-95.5167
0
LINE
8
Black
10
154.288
20
-95.5167
11
154.298
21
-95.512
0
LINE
8
Black
10
154.298
20
-95.512
11
154.307
21
-95.5057
0
LINE
8
Black
10
154.307
20
-95.5057
11
154.317
21
-95.5028
0
LINE
8
Black
10
154.317
20
-95.5028
11
154.328
21
-95.4981
0
LINE
8
Black
10
154.328
20
-95.4981
11
154.339
21
-95.4972
0
LINE
8
Black
10
154.339
20
-95.4972
11
154.349
21
-95.4943
0
LINE
8
Black
10
154.349
20
-95.4943
11
154.36
21
-95.4953
0
LINE
8
Black
10
154.36
20
-95.4953
11
154.372
21
-95.4943
0
LINE
8
Black
10
154.372
20
-95.4943
11
154.382
21
-95.4972
0
LINE
8
Black
10
154.382
20
-95.4972
11
154.393
21
-95.4982
0
LINE
8
Black
10
154.393
20
-95.4982
11
154.403
21
-95.5029
0
LINE
8
Black
10
154.403
20
-95.5029
11
154.414
21
-95.5058
0
LINE
8
Black
10
154.414
20
-95.5058
11
154.423
21
-95.5121
0
LINE
8
Black
10
154.423
20
-95.5121
11
154.433
21
-95.5168
0
LINE
8
Black
10
154.433
20
-95.5168
11
154.441
21
-95.5247
0
LINE
8
Black
10
154.441
20
-95.5247
11
154.45
21
-95.5311
0
LINE
8
Black
10
154.45
20
-95.5311
11
154.831
21
-95.9129
0
LINE
8
Black
10
154.831
20
-95.9129
11
155.349
21
-96.1278
0
LINE
8
Black
10
155.349
20
-96.1278
11
155.909
21
-96.1282
0
LINE
8
Black
10
155.909
20
-96.1282
11
156.427
21
-95.9143
0
LINE
8
Black
10
156.427
20
-95.9143
11
156.811
21
-95.5309
0
LINE
8
Black
10
156.811
20
-95.5309
11
156.82
21
-95.5246
0
LINE
8
Black
10
156.82
20
-95.5246
11
156.828
21
-95.5167
0
LINE
8
Black
10
156.828
20
-95.5167
11
156.838
21
-95.512
0
LINE
8
Black
10
156.838
20
-95.512
11
156.847
21
-95.5057
0
LINE
8
Black
10
156.847
20
-95.5057
11
156.857
21
-95.5028
0
LINE
8
Black
10
156.857
20
-95.5028
11
156.868
21
-95.4981
0
LINE
8
Black
10
156.868
20
-95.4981
11
156.879
21
-95.4972
0
LINE
8
Black
10
156.879
20
-95.4972
11
156.889
21
-95.4943
0
LINE
8
Black
10
156.889
20
-95.4943
11
156.9
21
-95.4953
0
LINE
8
Black
10
156.9
20
-95.4953
11
156.912
21
-95.4943
0
LINE
8
Black
10
156.912
20
-95.4943
11
156.922
21
-95.4972
0
LINE
8
Black
10
156.922
20
-95.4972
11
156.933
21
-95.4982
0
LINE
8
Black
10
156.933
20
-95.4982
11
156.943
21
-95.5029
0
LINE
8
Black
10
156.943
20
-95.5029
11
156.954
21
-95.5058
0
LINE
8
Black
10
156.954
20
-95.5058
11
156.963
21
-95.5121
0
LINE
8
Black
10
156.963
20
-95.5121
11
156.973
21
-95.5168
0
LINE
8
Black
10
156.973
20
-95.5168
11
156.981
21
-95.5247
0
LINE
8
Black
10
156.981
20
-95.5247
11
156.99
21
-95.5311
0
LINE
8
Black
10
156.99
20
-95.5311
11
157.371
21
-95.9129
0
LINE
8
Black
10
157.371
20
-95.9129
11
157.889
21
-96.1278
0
LINE
8
Black
10
157.889
20
-96.1278
11
158.449
21
-96.1282
0
LINE
8
Black
10
158.449
20
-96.1282
11
158.967
21
-95.9143
0
LINE
8
Black
10
158.967
20
-95.9143
11
159.351
21
-95.5309
0
LINE
8
Black
10
159.351
20
-95.5309
11
159.36
21
-95.5246
0
LINE
8
Black
10
159.36
20
-95.5246
11
159.368
21
-95.5167
0
LINE
8
Black
10
159.368
20
-95.5167
11
159.378
21
-95.512
0
LINE
8
Black
10
159.378
20
-95.512
11
159.387
21
-95.5057
0
LINE
8
Black
10
159.387
20
-95.5057
11
159.397
21
-95.5028
0
LINE
8
Black
10
159.397
20
-95.5028
11
159.408
21
-95.4981
0
LINE
8
Black
10
159.408
20
-95.4981
11
159.419
21
-95.4972
0
LINE
8
Black
10
159.419
20
-95.4972
11
159.429
21
-95.4943
0
LINE
8
Black
10
159.429
20
-95.4943
11
159.44
21
-95.4953
0
LINE
8
Black
10
159.44
20
-95.4953
11
159.452
21
-95.4943
0
LINE
8
Black
10
159.452
20
-95.4943
11
159.462
21
-95.4972
0
LINE
8
Black
10
159.462
20
-95.4972
11
159.473
21
-95.4982
0
LINE
8
Black
10
159.473
20
-95.4982
11
159.483
21
-95.5029
0
LINE
8
Black
10
159.483
20
-95.5029
11
159.494
21
-95.5058
0
LINE
8
Black
10
159.494
20
-95.5058
11
159.503
21
-95.5121
0
LINE
8
Black
10
159.503
20
-95.5121
11
159.513
21
-95.5168
0
LINE
8
Black
10
159.513
20
-95.5168
11
159.521
21
-95.5247
0
LINE
8
Black
10
159.521
20
-95.5247
11
159.53
21
-95.5311
0
LINE
8
Black
10
159.53
20
-95.5311
11
159.911
21
-95.9129
0
LINE
8
Black
10
159.911
20
-95.9129
11
160.429
21
-96.1278
0
LINE
8
Black
10
160.429
20
-96.1278
11
160.989
21
-96.1282
0
LINE
8
Black
10
160.989
20
-96.1282
11
161.507
21
-95.9143
0
LINE
8
Black
10
161.507
20
-95.9143
11
161.891
21
-95.5309
0
LINE
8
Black
10
161.891
20
-95.5309
11
161.9
21
-95.5246
0
LINE
8
Black
10
161.9
20
-95.5246
11
161.908
21
-95.5167
0
LINE
8
Black
10
161.908
20
-95.5167
11
161.918
21
-95.512
0
LINE
8
Black
10
161.918
20
-95.512
11
161.927
21
-95.5057
0
LINE
8
Black
10
161.927
20
-95.5057
11
161.937
21
-95.5028
0
LINE
8
Black
10
161.937
20
-95.5028
11
161.948
21
-95.4981
0
LINE
8
Black
10
161.948
20
-95.4981
11
161.959
21
-95.4972
0
LINE
8
Black
10
161.959
20
-95.4972
11
161.969
21
-95.4943
0
LINE
8
Black
10
161.969
20
-95.4943
11
161.98
21
-95.4953
0
LINE
8
Black
10
161.98
20
-95.4953
11
161.992
21
-95.4943
0
LINE
8
Black
10
161.992
20
-95.4943
11
162.002
21
-95.4972
0
LINE
8
Black
10
162.002
20
-95.4972
11
162.013
21
-95.4982
0
LINE
8
Black
10
162.013
20
-95.4982
11
162.023
21
-95.5029
0
LINE
8
Black
10
162.023
20
-95.5029
11
162.034
21
-95.5058
0
LINE
8
Black
10
162.034
20
-95.5058
11
162.043
21
-95.5121
0
LINE
8
Black
10
162.043
20
-95.5121
11
162.053
21
-95.5168
0
LINE
8
Black
10
162.053
20
-95.5168
11
162.061
21
-95.5247
0
LINE
8
Black
10
162.061
20
-95.5247
11
162.07
21
-95.5311
0
LINE
8
Black
10
162.07
20
-95.5311
11
162.451
21
-95.9129
0
LINE
8
Black
10
162.451
20
-95.9129
11
162.969
21
-96.1278
0
LINE
8
Black
10
162.969
20
-96.1278
11
163.529
21
-96.1282
0
LINE
8
Black
10
163.529
20
-96.1282
11
164.047
21
-95.9143
0
LINE
8
Black
10
164.047
20
-95.9143
11
164.431
21
-95.5309
0
LINE
8
Black
10
164.431
20
-95.5309
11
164.44
21
-95.5246
0
LINE
8
Black
10
164.44
20
-95.5246
11
164.448
21
-95.5167
0
LINE
8
Black
10
164.448
20
-95.5167
11
164.458
21
-95.512
0
LINE
8
Black
10
164.458
20
-95.512
11
164.467
21
-95.5057
0
LINE
8
Black
10
164.467
20
-95.5057
11
164.477
21
-95.5028
0
LINE
8
Black
10
164.477
20
-95.5028
11
164.488
21
-95.4981
0
LINE
8
Black
10
164.488
20
-95.4981
11
164.499
21
-95.4972
0
LINE
8
Black
10
164.499
20
-95.4972
11
164.509
21
-95.4943
0
LINE
8
Black
10
164.509
20
-95.4943
11
164.52
21
-95.4953
0
LINE
8
Black
10
164.52
20
-95.4953
11
164.532
21
-95.4943
0
LINE
8
Black
10
164.532
20
-95.4943
11
164.542
21
-95.4972
0
LINE
8
Black
10
164.542
20
-95.4972
11
164.553
21
-95.4982
0
LINE
8
Black
10
164.553
20
-95.4982
11
164.563
21
-95.5029
0
LINE
8
Black
10
164.563
20
-95.5029
11
164.574
21
-95.5058
0
LINE
8
Black
10
164.574
20
-95.5058
11
164.583
21
-95.5121
0
LINE
8
Black
10
164.583
20
-95.5121
11
164.593
21
-95.5168
0
LINE
8
Black
10
164.593
20
-95.5168
11
164.601
21
-95.5247
0
LINE
8
Black
10
164.601
20
-95.5247
11
164.61
21
-95.5311
0
LINE
8
Black
10
164.61
20
-95.5311
11
164.991
21
-95.9129
0
LINE
8
Black
10
164.991
20
-95.9129
11
165.509
21
-96.1278
0
LINE
8
Black
10
165.509
20
-96.1278
11
166.069
21
-96.1282
0
LINE
8
Black
10
166.069
20
-96.1282
11
166.587
21
-95.9143
0
LINE
8
Black
10
166.587
20
-95.9143
11
166.983
21
-95.5186
0
LINE
8
Black
10
166.983
20
-95.5186
11
167.198
21
-95.0013
0
LINE
8
Black
10
167.198
20
-95.0013
11
167.198
21
-94.4412
0
LINE
8
Black
10
167.198
20
-94.4412
11
166.984
21
-93.9235
0
LINE
8
Black
10
166.984
20
-93.9235
11
166.861
21
-93.7997
0
LINE
8
Black
10
166.861
20
-93.7997
11
166.851
21
-93.7862
0
LINE
8
Black
10
166.851
20
-93.7862
11
166.841
21
-93.7735
0
LINE
8
Black
10
166.841
20
-93.7735
11
166.839
21
-93.7682
0
LINE
8
Black
10
166.839
20
-93.7682
11
166.836
21
-93.7636
0
LINE
8
Black
10
166.836
20
-93.7636
11
166.831
21
-93.7476
0
LINE
8
Black
10
166.831
20
-93.7476
11
166.826
21
-93.7321
0
LINE
8
Black
10
166.826
20
-93.7321
11
166.826
21
-93.7264
0
LINE
8
Black
10
166.826
20
-93.7264
11
166.824
21
-93.721
0
LINE
8
Black
10
166.824
20
-93.721
11
166.826
21
-93.7045
0
LINE
8
Black
10
166.826
20
-93.7045
11
166.826
21
-93.6879
0
LINE
8
Black
10
166.826
20
-93.6879
11
166.828
21
-93.6826
0
LINE
8
Black
10
166.828
20
-93.6826
11
166.828
21
-93.677
0
LINE
8
Black
10
166.828
20
-93.677
11
166.835
21
-93.662
0
LINE
8
Black
10
166.835
20
-93.662
11
166.841
21
-93.6465
0
LINE
8
Black
10
166.841
20
-93.6465
11
166.844
21
-93.6422
0
LINE
8
Black
10
166.844
20
-93.6422
11
166.847
21
-93.6371
0
LINE
8
Black
10
166.847
20
-93.6371
11
166.858
21
-93.6254
0
LINE
8
Black
10
166.858
20
-93.6254
11
166.869
21
-93.6127
0
LINE
8
Black
10
166.869
20
-93.6127
11
166.874
21
-93.6099
0
LINE
8
Black
10
166.874
20
-93.6099
11
166.878
21
-93.6059
0
LINE
8
Black
10
166.878
20
-93.6059
11
166.893
21
-93.5989
0
LINE
8
Black
10
166.893
20
-93.5989
11
166.907
21
-93.5907
0
LINE
8
Black
10
166.907
20
-93.5907
11
166.913
21
-93.5897
0
LINE
8
Black
10
166.913
20
-93.5897
11
166.918
21
-93.5873
0
LINE
8
Black
10
166.918
20
-93.5873
11
166.934
21
-93.5859
0
LINE
8
Black
10
166.934
20
-93.5859
11
166.951
21
-93.583
0
LINE
8
Black
10
166.951
20
-93.583
11
200.79
21
-93.583
0
LINE
8
Black
10
200.79
20
-93.583
11
200.801
21
-93.5849
0
LINE
8
Black
10
114.203
20
-104.926
11
113.807
21
-105.321
0
LINE
8
Black
10
113.807
20
-105.321
11
113.592
21
-105.839
0
LINE
8
Black
10
113.592
20
-105.839
11
113.592
21
-106.399
0
LINE
8
Black
10
113.592
20
-106.399
11
113.806
21
-106.917
0
LINE
8
Black
10
113.806
20
-106.917
11
114.189
21
-107.301
0
LINE
8
Black
10
114.189
20
-107.301
11
114.195
21
-107.31
0
LINE
8
Black
10
114.195
20
-107.31
11
114.203
21
-107.318
0
LINE
8
Black
10
114.203
20
-107.318
11
114.208
21
-107.328
0
LINE
8
Black
10
114.208
20
-107.328
11
114.214
21
-107.337
0
LINE
8
Black
10
114.214
20
-107.337
11
114.217
21
-107.347
0
LINE
8
Black
10
114.217
20
-107.347
11
114.222
21
-107.358
0
LINE
8
Black
10
114.222
20
-107.358
11
114.223
21
-107.369
0
LINE
8
Black
10
114.223
20
-107.369
11
114.226
21
-107.379
0
LINE
8
Black
10
114.226
20
-107.379
11
114.225
21
-107.39
0
LINE
8
Black
10
114.225
20
-107.39
11
114.226
21
-107.402
0
LINE
8
Black
10
114.226
20
-107.402
11
114.223
21
-107.412
0
LINE
8
Black
10
114.223
20
-107.412
11
114.222
21
-107.423
0
LINE
8
Black
10
114.222
20
-107.423
11
114.217
21
-107.433
0
LINE
8
Black
10
114.217
20
-107.433
11
114.214
21
-107.444
0
LINE
8
Black
10
114.214
20
-107.444
11
114.208
21
-107.453
0
LINE
8
Black
10
114.208
20
-107.453
11
114.203
21
-107.463
0
LINE
8
Black
10
114.203
20
-107.463
11
114.195
21
-107.471
0
LINE
8
Black
10
114.195
20
-107.471
11
114.189
21
-107.48
0
LINE
8
Black
10
114.189
20
-107.48
11
113.807
21
-107.861
0
LINE
8
Black
10
113.807
20
-107.861
11
113.592
21
-108.379
0
LINE
8
Black
10
113.592
20
-108.379
11
113.592
21
-108.939
0
LINE
8
Black
10
113.592
20
-108.939
11
113.806
21
-109.457
0
LINE
8
Black
10
113.806
20
-109.457
11
114.201
21
-109.853
0
LINE
8
Black
10
114.201
20
-109.853
11
114.719
21
-110.068
0
LINE
8
Black
10
114.719
20
-110.068
11
115.279
21
-110.068
0
LINE
8
Black
10
115.279
20
-110.068
11
115.797
21
-109.854
0
LINE
8
Black
10
115.797
20
-109.854
11
116.193
21
-109.459
0
LINE
8
Black
10
116.193
20
-109.459
11
116.408
21
-108.941
0
LINE
8
Black
10
116.408
20
-108.941
11
116.408
21
-108.381
0
LINE
8
Black
10
116.408
20
-108.381
11
116.194
21
-107.863
0
LINE
8
Black
10
116.194
20
-107.863
11
115.811
21
-107.479
0
LINE
8
Black
10
115.811
20
-107.479
11
115.805
21
-107.47
0
LINE
8
Black
10
115.805
20
-107.47
11
115.797
21
-107.462
0
LINE
8
Black
10
115.797
20
-107.462
11
115.792
21
-107.452
0
LINE
8
Black
10
115.792
20
-107.452
11
115.786
21
-107.443
0
LINE
8
Black
10
115.786
20
-107.443
11
115.783
21
-107.433
0
LINE
8
Black
10
115.783
20
-107.433
11
115.778
21
-107.422
0
LINE
8
Black
10
115.778
20
-107.422
11
115.777
21
-107.411
0
LINE
8
Black
10
115.777
20
-107.411
11
115.774
21
-107.401
0
LINE
8
Black
10
115.774
20
-107.401
11
115.775
21
-107.39
0
LINE
8
Black
10
115.775
20
-107.39
11
115.774
21
-107.378
0
LINE
8
Black
10
115.774
20
-107.378
11
115.777
21
-107.368
0
LINE
8
Black
10
115.777
20
-107.368
11
115.778
21
-107.357
0
LINE
8
Black
10
115.778
20
-107.357
11
115.783
21
-107.347
0
LINE
8
Black
10
115.783
20
-107.347
11
115.786
21
-107.336
0
LINE
8
Black
10
115.786
20
-107.336
11
115.792
21
-107.327
0
LINE
8
Black
10
115.792
20
-107.327
11
115.797
21
-107.317
0
LINE
8
Black
10
115.797
20
-107.317
11
115.805
21
-107.309
0
LINE
8
Black
10
115.805
20
-107.309
11
115.811
21
-107.3
0
LINE
8
Black
10
115.811
20
-107.3
11
116.193
21
-106.919
0
LINE
8
Black
10
116.193
20
-106.919
11
116.408
21
-106.401
0
LINE
8
Black
10
116.408
20
-106.401
11
116.408
21
-105.841
0
LINE
8
Black
10
116.408
20
-105.841
11
116.194
21
-105.323
0
LINE
8
Black
10
116.194
20
-105.323
11
115.799
21
-104.927
0
LINE
8
Black
10
115.799
20
-104.927
11
115.281
21
-104.712
0
LINE
8
Black
10
115.281
20
-104.712
11
114.721
21
-104.712
0
LINE
8
Black
10
114.721
20
-104.712
11
114.203
21
-104.926
0
LINE
8
Black
10
145.128
20
-108.565
11
144.758
21
-108.719
0
LINE
8
Black
10
144.758
20
-108.719
11
144.715
21
-108.846
0
LINE
8
Black
10
144.715
20
-108.846
11
145.046
21
-109.177
0
LINE
8
Black
10
145.046
20
-109.177
11
145.161
21
-109.111
0
LINE
8
Black
10
145.161
20
-109.111
11
145.47
21
-109.057
0
LINE
8
Black
10
145.47
20
-109.057
11
145.779
21
-109.111
0
LINE
8
Black
10
145.779
20
-109.111
11
145.894
21
-109.177
0
LINE
8
Black
10
145.894
20
-109.177
11
146.225
21
-108.846
0
LINE
8
Black
10
146.225
20
-108.846
11
146.183
21
-108.722
0
LINE
8
Black
10
146.183
20
-108.722
11
145.691
21
-108.541
0
LINE
8
Black
10
145.691
20
-108.541
11
145.128
21
-108.565
0
LINE
8
Black
10
107.338
20
-105.992
11
107.254
21
-106.076
0
LINE
8
Black
10
107.254
20
-106.076
11
107.254
21
-106.5
0
LINE
8
Black
10
107.254
20
-106.5
11
112
21
-106.5
0
LINE
8
Black
10
112
20
-106.5
11
112
21
-108.746
0
LINE
8
Black
10
112
20
-108.746
11
112.424
21
-108.746
0
LINE
8
Black
10
112.424
20
-108.746
11
112.508
21
-108.662
0
LINE
8
Black
10
112.508
20
-108.662
11
112.508
21
-106.424
0
LINE
8
Black
10
112.508
20
-106.424
11
112.508
21
-106.399
0
LINE
8
Black
10
112.508
20
-106.399
11
112.431
21
-106.212
0
LINE
8
Black
10
112.431
20
-106.212
11
112.288
21
-106.069
0
LINE
8
Black
10
112.288
20
-106.069
11
112.101
21
-105.992
0
LINE
8
Black
10
112.101
20
-105.992
11
107.338
21
-105.992
0
LINE
8
Black
10
130.549
20
-101.889
11
130.24
21
-101.943
0
LINE
8
Black
10
130.24
20
-101.943
11
129.931
21
-101.889
0
LINE
8
Black
10
129.931
20
-101.889
11
129.816
21
-101.823
0
LINE
8
Black
10
129.816
20
-101.823
11
129.485
21
-102.154
0
LINE
8
Black
10
129.485
20
-102.154
11
129.51
21
-102.23
0
LINE
8
Black
10
129.51
20
-102.23
11
129.511
21
-102.237
0
LINE
8
Black
10
129.511
20
-102.237
11
129.514
21
-102.243
0
LINE
8
Black
10
129.514
20
-102.243
11
129.515
21
-102.258
0
LINE
8
Black
10
129.515
20
-102.258
11
129.517
21
-102.273
0
LINE
8
Black
10
129.517
20
-102.273
11
129.516
21
-102.28
0
LINE
8
Black
10
129.516
20
-102.28
11
129.516
21
-102.287
0
LINE
8
Black
10
129.516
20
-102.287
11
129.511
21
-102.302
0
LINE
8
Black
10
129.511
20
-102.302
11
129.508
21
-102.317
0
LINE
8
Black
10
129.508
20
-102.317
11
129.505
21
-102.323
0
LINE
8
Black
10
129.505
20
-102.323
11
129.503
21
-102.329
0
LINE
8
Black
10
129.503
20
-102.329
11
129.493
21
-102.341
0
LINE
8
Black
10
129.493
20
-102.341
11
129.485
21
-102.354
0
LINE
8
Black
10
129.485
20
-102.354
11
129.48
21
-102.359
0
LINE
8
Black
10
129.48
20
-102.359
11
129.476
21
-102.364
0
LINE
8
Black
10
129.476
20
-102.364
11
129.463
21
-102.372
0
LINE
8
Black
10
129.463
20
-102.372
11
129.451
21
-102.382
0
LINE
8
Black
10
129.451
20
-102.382
11
129.446
21
-102.384
0
LINE
8
Black
10
129.446
20
-102.384
11
129.047
21
-102.781
0
LINE
8
Black
10
129.047
20
-102.781
11
128.832
21
-103.299
0
LINE
8
Black
10
128.832
20
-103.299
11
128.832
21
-103.859
0
LINE
8
Black
10
128.832
20
-103.859
11
129.046
21
-104.377
0
LINE
8
Black
10
129.046
20
-104.377
11
129.429
21
-104.761
0
LINE
8
Black
10
129.429
20
-104.761
11
129.435
21
-104.77
0
LINE
8
Black
10
129.435
20
-104.77
11
129.443
21
-104.778
0
LINE
8
Black
10
129.443
20
-104.778
11
129.448
21
-104.788
0
LINE
8
Black
10
129.448
20
-104.788
11
129.454
21
-104.797
0
LINE
8
Black
10
129.454
20
-104.797
11
129.457
21
-104.807
0
LINE
8
Black
10
129.457
20
-104.807
11
129.462
21
-104.818
0
LINE
8
Black
10
129.462
20
-104.818
11
129.463
21
-104.829
0
LINE
8
Black
10
129.463
20
-104.829
11
129.466
21
-104.839
0
LINE
8
Black
10
129.466
20
-104.839
11
129.465
21
-104.85
0
LINE
8
Black
10
129.465
20
-104.85
11
129.466
21
-104.862
0
LINE
8
Black
10
129.466
20
-104.862
11
129.463
21
-104.872
0
LINE
8
Black
10
129.463
20
-104.872
11
129.462
21
-104.883
0
LINE
8
Black
10
129.462
20
-104.883
11
129.457
21
-104.893
0
LINE
8
Black
10
129.457
20
-104.893
11
129.454
21
-104.904
0
LINE
8
Black
10
129.454
20
-104.904
11
129.448
21
-104.913
0
LINE
8
Black
10
129.448
20
-104.913
11
129.443
21
-104.923
0
LINE
8
Black
10
129.443
20
-104.923
11
129.435
21
-104.931
0
LINE
8
Black
10
129.435
20
-104.931
11
129.429
21
-104.94
0
LINE
8
Black
10
129.429
20
-104.94
11
129.047
21
-105.321
0
LINE
8
Black
10
129.047
20
-105.321
11
128.832
21
-105.839
0
LINE
8
Black
10
128.832
20
-105.839
11
128.832
21
-106.399
0
LINE
8
Black
10
128.832
20
-106.399
11
129.046
21
-106.917
0
LINE
8
Black
10
129.046
20
-106.917
11
129.441
21
-107.313
0
LINE
8
Black
10
129.441
20
-107.313
11
129.959
21
-107.528
0
LINE
8
Black
10
129.959
20
-107.528
11
130.519
21
-107.528
0
LINE
8
Black
10
130.519
20
-107.528
11
131.037
21
-107.314
0
LINE
8
Black
10
131.037
20
-107.314
11
131.433
21
-106.919
0
LINE
8
Black
10
131.433
20
-106.919
11
131.648
21
-106.401
0
LINE
8
Black
10
131.648
20
-106.401
11
131.648
21
-105.841
0
LINE
8
Black
10
131.648
20
-105.841
11
131.434
21
-105.323
0
LINE
8
Black
10
131.434
20
-105.323
11
131.051
21
-104.939
0
LINE
8
Black
10
131.051
20
-104.939
11
131.045
21
-104.93
0
LINE
8
Black
10
131.045
20
-104.93
11
131.037
21
-104.922
0
LINE
8
Black
10
131.037
20
-104.922
11
131.032
21
-104.912
0
LINE
8
Black
10
131.032
20
-104.912
11
131.026
21
-104.903
0
LINE
8
Black
10
131.026
20
-104.903
11
131.023
21
-104.893
0
LINE
8
Black
10
131.023
20
-104.893
11
131.018
21
-104.882
0
LINE
8
Black
10
131.018
20
-104.882
11
131.017
21
-104.871
0
LINE
8
Black
10
131.017
20
-104.871
11
131.014
21
-104.861
0
LINE
8
Black
10
131.014
20
-104.861
11
131.015
21
-104.85
0
LINE
8
Black
10
131.015
20
-104.85
11
131.014
21
-104.838
0
LINE
8
Black
10
131.014
20
-104.838
11
131.017
21
-104.828
0
LINE
8
Black
10
131.017
20
-104.828
11
131.018
21
-104.817
0
LINE
8
Black
10
131.018
20
-104.817
11
131.023
21
-104.807
0
LINE
8
Black
10
131.023
20
-104.807
11
131.026
21
-104.796
0
LINE
8
Black
10
131.026
20
-104.796
11
131.032
21
-104.787
0
LINE
8
Black
10
131.032
20
-104.787
11
131.037
21
-104.777
0
LINE
8
Black
10
131.037
20
-104.777
11
131.045
21
-104.769
0
LINE
8
Black
10
131.045
20
-104.769
11
131.051
21
-104.76
0
LINE
8
Black
10
131.051
20
-104.76
11
131.433
21
-104.379
0
LINE
8
Black
10
131.433
20
-104.379
11
131.648
21
-103.861
0
LINE
8
Black
10
131.648
20
-103.861
11
131.648
21
-103.301
0
LINE
8
Black
10
131.648
20
-103.301
11
131.434
21
-102.783
0
LINE
8
Black
10
131.434
20
-102.783
11
131.037
21
-102.386
0
LINE
8
Black
10
131.037
20
-102.386
11
131.035
21
-102.384
0
LINE
8
Black
10
131.035
20
-102.384
11
131.029
21
-102.382
0
LINE
8
Black
10
131.029
20
-102.382
11
131.017
21
-102.373
0
LINE
8
Black
10
131.017
20
-102.373
11
131.004
21
-102.364
0
LINE
8
Black
10
131.004
20
-102.364
11
131
21
-102.359
0
LINE
8
Black
10
131
20
-102.359
11
130.995
21
-102.355
0
LINE
8
Black
10
130.995
20
-102.355
11
130.986
21
-102.342
0
LINE
8
Black
10
130.986
20
-102.342
11
130.977
21
-102.329
0
LINE
8
Black
10
130.977
20
-102.329
11
130.975
21
-102.323
0
LINE
8
Black
10
130.975
20
-102.323
11
130.972
21
-102.317
0
LINE
8
Black
10
130.972
20
-102.317
11
130.969
21
-102.302
0
LINE
8
Black
10
130.969
20
-102.302
11
130.964
21
-102.287
0
LINE
8
Black
10
130.964
20
-102.287
11
130.964
21
-102.28
0
LINE
8
Black
10
130.964
20
-102.28
11
130.963
21
-102.274
0
LINE
8
Black
10
130.963
20
-102.274
11
130.965
21
-102.259
0
LINE
8
Black
10
130.965
20
-102.259
11
130.966
21
-102.243
0
LINE
8
Black
10
130.966
20
-102.243
11
130.968
21
-102.237
0
LINE
8
Black
10
130.968
20
-102.237
11
130.969
21
-102.23
0
LINE
8
Black
10
130.969
20
-102.23
11
130.995
21
-102.154
0
LINE
8
Black
10
130.995
20
-102.154
11
130.664
21
-101.823
0
LINE
8
Black
10
130.664
20
-101.823
11
130.549
21
-101.889
0
LINE
8
Black
10
196.414
20
-104.73
11
196.329
21
-104.815
0
LINE
8
Black
10
196.329
20
-104.815
11
196.329
21
-105.213
0
LINE
8
Black
10
196.329
20
-105.213
11
196.407
21
-105.399
0
LINE
8
Black
10
196.407
20
-105.399
11
196.55
21
-105.542
0
LINE
8
Black
10
196.55
20
-105.542
11
196.736
21
-105.62
0
LINE
8
Black
10
196.736
20
-105.62
11
198.749
21
-105.62
0
LINE
8
Black
10
198.749
20
-105.62
11
198.833
21
-105.535
0
LINE
8
Black
10
198.833
20
-105.535
11
198.833
21
-105.111
0
LINE
8
Black
10
198.833
20
-105.111
11
196.837
21
-105.111
0
LINE
8
Black
10
196.837
20
-105.111
11
196.837
21
-104.73
0
LINE
8
Black
10
196.837
20
-104.73
11
196.414
21
-104.73
0
LINE
8
Black
10
196.736
20
-103.334
11
196.55
21
-103.411
0
LINE
8
Black
10
196.55
20
-103.411
11
196.407
21
-103.554
0
LINE
8
Black
10
196.407
20
-103.554
11
196.329
21
-103.74
0
LINE
8
Black
10
196.329
20
-103.74
11
196.329
21
-104.138
0
LINE
8
Black
10
196.329
20
-104.138
11
196.414
21
-104.222
0
LINE
8
Black
10
196.414
20
-104.222
11
196.837
21
-104.222
0
LINE
8
Black
10
196.837
20
-104.222
11
196.837
21
-103.841
0
LINE
8
Black
10
196.837
20
-103.841
11
198.833
21
-103.841
0
LINE
8
Black
10
198.833
20
-103.841
11
198.833
21
-103.418
0
LINE
8
Black
10
198.833
20
-103.418
11
198.749
21
-103.334
0
LINE
8
Black
10
198.749
20
-103.334
11
196.736
21
-103.334
0
LINE
8
Black
10
129.002
20
-100.327
11
128.821
21
-100.819
0
LINE
8
Black
10
128.821
20
-100.819
11
128.845
21
-101.382
0
LINE
8
Black
10
128.845
20
-101.382
11
128.999
21
-101.752
0
LINE
8
Black
10
128.999
20
-101.752
11
129.126
21
-101.795
0
LINE
8
Black
10
129.126
20
-101.795
11
129.45
21
-101.471
0
LINE
8
Black
10
129.45
20
-101.471
11
129.35
21
-101.197
0
LINE
8
Black
10
129.35
20
-101.197
11
129.35
21
-100.883
0
LINE
8
Black
10
129.35
20
-100.883
11
129.45
21
-100.609
0
LINE
8
Black
10
129.45
20
-100.609
11
129.126
21
-100.285
0
LINE
8
Black
10
129.126
20
-100.285
11
129.002
21
-100.327
0
LINE
8
Black
10
131.03
20
-100.609
11
131.13
21
-100.883
0
LINE
8
Black
10
131.13
20
-100.883
11
131.13
21
-101.197
0
LINE
8
Black
10
131.13
20
-101.197
11
131.03
21
-101.471
0
LINE
8
Black
10
131.03
20
-101.471
11
131.354
21
-101.795
0
LINE
8
Black
10
131.354
20
-101.795
11
131.478
21
-101.753
0
LINE
8
Black
10
131.478
20
-101.753
11
131.659
21
-101.261
0
LINE
8
Black
10
131.659
20
-101.261
11
131.635
21
-100.698
0
LINE
8
Black
10
131.635
20
-100.698
11
131.481
21
-100.328
0
LINE
8
Black
10
131.481
20
-100.328
11
131.354
21
-100.285
0
LINE
8
Black
10
131.354
20
-100.285
11
131.03
21
-100.609
0
LINE
8
Black
10
196.414
20
-99.7775
11
196.329
21
-99.8619
0
LINE
8
Black
10
196.329
20
-99.8619
11
196.329
21
-100.26
0
LINE
8
Black
10
196.329
20
-100.26
11
196.407
21
-100.446
0
LINE
8
Black
10
196.407
20
-100.446
11
196.55
21
-100.589
0
LINE
8
Black
10
196.55
20
-100.589
11
196.736
21
-100.666
0
LINE
8
Black
10
196.736
20
-100.666
11
198.749
21
-100.666
0
LINE
8
Black
10
198.749
20
-100.666
11
198.833
21
-100.582
0
LINE
8
Black
10
198.833
20
-100.582
11
198.833
21
-100.158
0
LINE
8
Black
10
198.833
20
-100.158
11
196.837
21
-100.158
0
LINE
8
Black
10
196.837
20
-100.158
11
196.837
21
-99.7775
0
LINE
8
Black
10
196.837
20
-99.7775
11
196.414
21
-99.7775
0
LINE
8
Black
10
196.736
20
-98.3805
11
196.55
21
-98.4578
0
LINE
8
Black
10
196.55
20
-98.4578
11
196.407
21
-98.6007
0
LINE
8
Black
10
196.407
20
-98.6007
11
196.329
21
-98.7875
0
LINE
8
Black
10
196.329
20
-98.7875
11
196.329
21
-99.1851
0
LINE
8
Black
10
196.329
20
-99.1851
11
196.414
21
-99.2695
0
LINE
8
Black
10
196.414
20
-99.2695
11
196.837
21
-99.2695
0
LINE
8
Black
10
196.837
20
-99.2695
11
196.837
21
-98.8885
0
LINE
8
Black
10
196.837
20
-98.8885
11
198.833
21
-98.8885
0
LINE
8
Black
10
198.833
20
-98.8885
11
198.833
21
-98.4649
0
LINE
8
Black
10
198.833
20
-98.4649
11
198.749
21
-98.3805
0
LINE
8
Black
10
198.749
20
-98.3805
11
196.736
21
-98.3805
0
LINE
8
Black
10
115.309
20
-107.811
11
115.581
21
-107.968
0
LINE
8
Black
10
115.581
20
-107.968
11
115.782
21
-108.208
0
LINE
8
Black
10
115.782
20
-108.208
11
115.89
21
-108.503
0
LINE
8
Black
10
115.89
20
-108.503
11
115.89
21
-108.817
0
LINE
8
Black
10
115.89
20
-108.817
11
115.782
21
-109.112
0
LINE
8
Black
10
115.782
20
-109.112
11
115.581
21
-109.352
0
LINE
8
Black
10
115.581
20
-109.352
11
115.309
21
-109.509
0
LINE
8
Black
10
115.309
20
-109.509
11
115
21
-109.563
0
LINE
8
Black
10
115
20
-109.563
11
114.691
21
-109.509
0
LINE
8
Black
10
114.691
20
-109.509
11
114.419
21
-109.352
0
LINE
8
Black
10
114.419
20
-109.352
11
114.218
21
-109.112
0
LINE
8
Black
10
114.218
20
-109.112
11
114.11
21
-108.817
0
LINE
8
Black
10
114.11
20
-108.817
11
114.11
21
-108.503
0
LINE
8
Black
10
114.11
20
-108.503
11
114.218
21
-108.208
0
LINE
8
Black
10
114.218
20
-108.208
11
114.419
21
-107.968
0
LINE
8
Black
10
114.419
20
-107.968
11
114.691
21
-107.811
0
LINE
8
Black
10
114.691
20
-107.811
11
115
21
-107.757
0
LINE
8
Black
10
115
20
-107.757
11
115.309
21
-107.811
0
LINE
8
Black
10
115.309
20
-105.271
11
115.581
21
-105.428
0
LINE
8
Black
10
115.581
20
-105.428
11
115.782
21
-105.668
0
LINE
8
Black
10
115.782
20
-105.668
11
115.89
21
-105.963
0
LINE
8
Black
10
115.89
20
-105.963
11
115.89
21
-106.277
0
LINE
8
Black
10
115.89
20
-106.277
11
115.782
21
-106.572
0
LINE
8
Black
10
115.782
20
-106.572
11
115.581
21
-106.812
0
LINE
8
Black
10
115.581
20
-106.812
11
115.309
21
-106.969
0
LINE
8
Black
10
115.309
20
-106.969
11
115
21
-107.023
0
LINE
8
Black
10
115
20
-107.023
11
114.691
21
-106.969
0
LINE
8
Black
10
114.691
20
-106.969
11
114.419
21
-106.812
0
LINE
8
Black
10
114.419
20
-106.812
11
114.218
21
-106.572
0
LINE
8
Black
10
114.218
20
-106.572
11
114.11
21
-106.277
0
LINE
8
Black
10
114.11
20
-106.277
11
114.11
21
-105.963
0
LINE
8
Black
10
114.11
20
-105.963
11
114.218
21
-105.668
0
LINE
8
Black
10
114.218
20
-105.668
11
114.419
21
-105.428
0
LINE
8
Black
10
114.419
20
-105.428
11
114.691
21
-105.271
0
LINE
8
Black
10
114.691
20
-105.271
11
115
21
-105.217
0
LINE
8
Black
10
115
20
-105.217
11
115.309
21
-105.271
0
LINE
8
Black
10
130.549
20
-105.271
11
130.821
21
-105.428
0
LINE
8
Black
10
130.821
20
-105.428
11
131.022
21
-105.668
0
LINE
8
Black
10
131.022
20
-105.668
11
131.13
21
-105.963
0
LINE
8
Black
10
131.13
20
-105.963
11
131.13
21
-106.277
0
LINE
8
Black
10
131.13
20
-106.277
11
131.022
21
-106.572
0
LINE
8
Black
10
131.022
20
-106.572
11
130.821
21
-106.812
0
LINE
8
Black
10
130.821
20
-106.812
11
130.549
21
-106.969
0
LINE
8
Black
10
130.549
20
-106.969
11
130.24
21
-107.023
0
LINE
8
Black
10
130.24
20
-107.023
11
129.931
21
-106.969
0
LINE
8
Black
10
129.931
20
-106.969
11
129.659
21
-106.812
0
LINE
8
Black
10
129.659
20
-106.812
11
129.458
21
-106.572
0
LINE
8
Black
10
129.458
20
-106.572
11
129.35
21
-106.277
0
LINE
8
Black
10
129.35
20
-106.277
11
129.35
21
-105.963
0
LINE
8
Black
10
129.35
20
-105.963
11
129.458
21
-105.668
0
LINE
8
Black
10
129.458
20
-105.668
11
129.659
21
-105.428
0
LINE
8
Black
10
129.659
20
-105.428
11
129.931
21
-105.271
0
LINE
8
Black
10
129.931
20
-105.271
11
130.24
21
-105.217
0
LINE
8
Black
10
130.24
20
-105.217
11
130.549
21
-105.271
0
LINE
8
Black
10
130.549
20
-102.731
11
130.821
21
-102.888
0
LINE
8
Black
10
130.821
20
-102.888
11
131.022
21
-103.128
0
LINE
8
Black
10
131.022
20
-103.128
11
131.13
21
-103.423
0
LINE
8
Black
10
131.13
20
-103.423
11
131.13
21
-103.737
0
LINE
8
Black
10
131.13
20
-103.737
11
131.022
21
-104.032
0
LINE
8
Black
10
131.022
20
-104.032
11
130.821
21
-104.272
0
LINE
8
Black
10
130.821
20
-104.272
11
130.549
21
-104.429
0
LINE
8
Black
10
130.549
20
-104.429
11
130.24
21
-104.483
0
LINE
8
Black
10
130.24
20
-104.483
11
129.931
21
-104.429
0
LINE
8
Black
10
129.931
20
-104.429
11
129.659
21
-104.272
0
LINE
8
Black
10
129.659
20
-104.272
11
129.458
21
-104.032
0
LINE
8
Black
10
129.458
20
-104.032
11
129.35
21
-103.737
0
LINE
8
Black
10
129.35
20
-103.737
11
129.35
21
-103.423
0
LINE
8
Black
10
129.35
20
-103.423
11
129.458
21
-103.128
0
LINE
8
Black
10
129.458
20
-103.128
11
129.659
21
-102.888
0
LINE
8
Black
10
129.659
20
-102.888
11
129.931
21
-102.731
0
LINE
8
Black
10
129.931
20
-102.731
11
130.24
21
-102.677
0
LINE
8
Black
10
130.24
20
-102.677
11
130.549
21
-102.731
0
LINE
8
Black
10
148.319
20
-109.111
11
148.591
21
-109.268
0
LINE
8
Black
10
148.591
20
-109.268
11
148.792
21
-109.508
0
LINE
8
Black
10
148.792
20
-109.508
11
148.9
21
-109.803
0
LINE
8
Black
10
148.9
20
-109.803
11
148.9
21
-110.117
0
LINE
8
Black
10
148.9
20
-110.117
11
148.792
21
-110.412
0
LINE
8
Black
10
148.792
20
-110.412
11
148.591
21
-110.652
0
LINE
8
Black
10
148.591
20
-110.652
11
148.319
21
-110.809
0
LINE
8
Black
10
148.319
20
-110.809
11
148.01
21
-110.863
0
LINE
8
Black
10
148.01
20
-110.863
11
147.701
21
-110.809
0
LINE
8
Black
10
147.701
20
-110.809
11
147.429
21
-110.652
0
LINE
8
Black
10
147.429
20
-110.652
11
147.228
21
-110.412
0
LINE
8
Black
10
147.228
20
-110.412
11
147.12
21
-110.117
0
LINE
8
Black
10
147.12
20
-110.117
11
147.12
21
-109.803
0
LINE
8
Black
10
147.12
20
-109.803
11
147.228
21
-109.508
0
LINE
8
Black
10
147.228
20
-109.508
11
147.429
21
-109.268
0
LINE
8
Black
10
147.429
20
-109.268
11
147.701
21
-109.111
0
LINE
8
Black
10
147.701
20
-109.111
11
148.01
21
-109.057
0
LINE
8
Black
10
148.01
20
-109.057
11
148.319
21
-109.111
0
LINE
8
Black
10
143.239
20
-109.111
11
143.511
21
-109.268
0
LINE
8
Black
10
143.511
20
-109.268
11
143.712
21
-109.508
0
LINE
8
Black
10
143.712
20
-109.508
11
143.82
21
-109.803
0
LINE
8
Black
10
143.82
20
-109.803
11
143.82
21
-110.117
0
LINE
8
Black
10
143.82
20
-110.117
11
143.712
21
-110.412
0
LINE
8
Black
10
143.712
20
-110.412
11
143.511
21
-110.652
0
LINE
8
Black
10
143.511
20
-110.652
11
143.239
21
-110.809
0
LINE
8
Black
10
143.239
20
-110.809
11
142.93
21
-110.863
0
LINE
8
Black
10
142.93
20
-110.863
11
142.621
21
-110.809
0
LINE
8
Black
10
142.621
20
-110.809
11
142.349
21
-110.652
0
LINE
8
Black
10
142.349
20
-110.652
11
142.148
21
-110.412
0
LINE
8
Black
10
142.148
20
-110.412
11
142.04
21
-110.117
0
LINE
8
Black
10
142.04
20
-110.117
11
142.04
21
-109.803
0
LINE
8
Black
10
142.04
20
-109.803
11
142.148
21
-109.508
0
LINE
8
Black
10
142.148
20
-109.508
11
142.349
21
-109.268
0
LINE
8
Black
10
142.349
20
-109.268
11
142.621
21
-109.111
0
LINE
8
Black
10
142.621
20
-109.111
11
142.93
21
-109.057
0
LINE
8
Black
10
142.93
20
-109.057
11
143.239
21
-109.111
0
LINE
8
Black
10
150.859
20
-109.111
11
151.131
21
-109.268
0
LINE
8
Black
10
151.131
20
-109.268
11
151.332
21
-109.508
0
LINE
8
Black
10
151.332
20
-109.508
11
151.44
21
-109.803
0
LINE
8
Black
10
151.44
20
-109.803
11
151.44
21
-110.117
0
LINE
8
Black
10
151.44
20
-110.117
11
151.332
21
-110.412
0
LINE
8
Black
10
151.332
20
-110.412
11
151.131
21
-110.652
0
LINE
8
Black
10
151.131
20
-110.652
11
150.859
21
-110.809
0
LINE
8
Black
10
150.859
20
-110.809
11
150.55
21
-110.863
0
LINE
8
Black
10
150.55
20
-110.863
11
150.241
21
-110.809
0
LINE
8
Black
10
150.241
20
-110.809
11
149.969
21
-110.652
0
LINE
8
Black
10
149.969
20
-110.652
11
149.768
21
-110.412
0
LINE
8
Black
10
149.768
20
-110.412
11
149.66
21
-110.117
0
LINE
8
Black
10
149.66
20
-110.117
11
149.66
21
-109.803
0
LINE
8
Black
10
149.66
20
-109.803
11
149.768
21
-109.508
0
LINE
8
Black
10
149.768
20
-109.508
11
149.969
21
-109.268
0
LINE
8
Black
10
149.969
20
-109.268
11
150.241
21
-109.111
0
LINE
8
Black
10
150.241
20
-109.111
11
150.55
21
-109.057
0
LINE
8
Black
10
150.55
20
-109.057
11
150.859
21
-109.111
0
LINE
8
Black
10
153.399
20
-109.111
11
153.671
21
-109.268
0
LINE
8
Black
10
153.671
20
-109.268
11
153.872
21
-109.508
0
LINE
8
Black
10
153.872
20
-109.508
11
153.98
21
-109.803
0
LINE
8
Black
10
153.98
20
-109.803
11
153.98
21
-110.117
0
LINE
8
Black
10
153.98
20
-110.117
11
153.872
21
-110.412
0
LINE
8
Black
10
153.872
20
-110.412
11
153.671
21
-110.652
0
LINE
8
Black
10
153.671
20
-110.652
11
153.399
21
-110.809
0
LINE
8
Black
10
153.399
20
-110.809
11
153.09
21
-110.863
0
LINE
8
Black
10
153.09
20
-110.863
11
152.781
21
-110.809
0
LINE
8
Black
10
152.781
20
-110.809
11
152.509
21
-110.652
0
LINE
8
Black
10
152.509
20
-110.652
11
152.308
21
-110.412
0
LINE
8
Black
10
152.308
20
-110.412
11
152.2
21
-110.117
0
LINE
8
Black
10
152.2
20
-110.117
11
152.2
21
-109.803
0
LINE
8
Black
10
152.2
20
-109.803
11
152.308
21
-109.508
0
LINE
8
Black
10
152.308
20
-109.508
11
152.509
21
-109.268
0
LINE
8
Black
10
152.509
20
-109.268
11
152.781
21
-109.111
0
LINE
8
Black
10
152.781
20
-109.111
11
153.09
21
-109.057
0
LINE
8
Black
10
153.09
20
-109.057
11
153.399
21
-109.111
0
LINE
8
Black
10
155.939
20
-109.111
11
156.211
21
-109.268
0
LINE
8
Black
10
156.211
20
-109.268
11
156.412
21
-109.508
0
LINE
8
Black
10
156.412
20
-109.508
11
156.52
21
-109.803
0
LINE
8
Black
10
156.52
20
-109.803
11
156.52
21
-110.117
0
LINE
8
Black
10
156.52
20
-110.117
11
156.412
21
-110.412
0
LINE
8
Black
10
156.412
20
-110.412
11
156.211
21
-110.652
0
LINE
8
Black
10
156.211
20
-110.652
11
155.939
21
-110.809
0
LINE
8
Black
10
155.939
20
-110.809
11
155.63
21
-110.863
0
LINE
8
Black
10
155.63
20
-110.863
11
155.321
21
-110.809
0
LINE
8
Black
10
155.321
20
-110.809
11
155.049
21
-110.652
0
LINE
8
Black
10
155.049
20
-110.652
11
154.848
21
-110.412
0
LINE
8
Black
10
154.848
20
-110.412
11
154.74
21
-110.117
0
LINE
8
Black
10
154.74
20
-110.117
11
154.74
21
-109.803
0
LINE
8
Black
10
154.74
20
-109.803
11
154.848
21
-109.508
0
LINE
8
Black
10
154.848
20
-109.508
11
155.049
21
-109.268
0
LINE
8
Black
10
155.049
20
-109.268
11
155.321
21
-109.111
0
LINE
8
Black
10
155.321
20
-109.111
11
155.63
21
-109.057
0
LINE
8
Black
10
155.63
20
-109.057
11
155.939
21
-109.111
0
LINE
8
Black
10
158.479
20
-109.111
11
158.751
21
-109.268
0
LINE
8
Black
10
158.751
20
-109.268
11
158.952
21
-109.508
0
LINE
8
Black
10
158.952
20
-109.508
11
159.06
21
-109.803
0
LINE
8
Black
10
159.06
20
-109.803
11
159.06
21
-110.117
0
LINE
8
Black
10
159.06
20
-110.117
11
158.952
21
-110.412
0
LINE
8
Black
10
158.952
20
-110.412
11
158.751
21
-110.652
0
LINE
8
Black
10
158.751
20
-110.652
11
158.479
21
-110.809
0
LINE
8
Black
10
158.479
20
-110.809
11
158.17
21
-110.863
0
LINE
8
Black
10
158.17
20
-110.863
11
157.861
21
-110.809
0
LINE
8
Black
10
157.861
20
-110.809
11
157.589
21
-110.652
0
LINE
8
Black
10
157.589
20
-110.652
11
157.388
21
-110.412
0
LINE
8
Black
10
157.388
20
-110.412
11
157.28
21
-110.117
0
LINE
8
Black
10
157.28
20
-110.117
11
157.28
21
-109.803
0
LINE
8
Black
10
157.28
20
-109.803
11
157.388
21
-109.508
0
LINE
8
Black
10
157.388
20
-109.508
11
157.589
21
-109.268
0
LINE
8
Black
10
157.589
20
-109.268
11
157.861
21
-109.111
0
LINE
8
Black
10
157.861
20
-109.111
11
158.17
21
-109.057
0
LINE
8
Black
10
158.17
20
-109.057
11
158.479
21
-109.111
0
LINE
8
Black
10
161.019
20
-109.111
11
161.291
21
-109.268
0
LINE
8
Black
10
161.291
20
-109.268
11
161.492
21
-109.508
0
LINE
8
Black
10
161.492
20
-109.508
11
161.6
21
-109.803
0
LINE
8
Black
10
161.6
20
-109.803
11
161.6
21
-110.117
0
LINE
8
Black
10
161.6
20
-110.117
11
161.492
21
-110.412
0
LINE
8
Black
10
161.492
20
-110.412
11
161.291
21
-110.652
0
LINE
8
Black
10
161.291
20
-110.652
11
161.019
21
-110.809
0
LINE
8
Black
10
161.019
20
-110.809
11
160.71
21
-110.863
0
LINE
8
Black
10
160.71
20
-110.863
11
160.401
21
-110.809
0
LINE
8
Black
10
160.401
20
-110.809
11
160.129
21
-110.652
0
LINE
8
Black
10
160.129
20
-110.652
11
159.928
21
-110.412
0
LINE
8
Black
10
159.928
20
-110.412
11
159.82
21
-110.117
0
LINE
8
Black
10
159.82
20
-110.117
11
159.82
21
-109.803
0
LINE
8
Black
10
159.82
20
-109.803
11
159.928
21
-109.508
0
LINE
8
Black
10
159.928
20
-109.508
11
160.129
21
-109.268
0
LINE
8
Black
10
160.129
20
-109.268
11
160.401
21
-109.111
0
LINE
8
Black
10
160.401
20
-109.111
11
160.71
21
-109.057
0
LINE
8
Black
10
160.71
20
-109.057
11
161.019
21
-109.111
0
LINE
8
Black
10
163.559
20
-109.111
11
163.831
21
-109.268
0
LINE
8
Black
10
163.831
20
-109.268
11
164.032
21
-109.508
0
LINE
8
Black
10
164.032
20
-109.508
11
164.14
21
-109.803
0
LINE
8
Black
10
164.14
20
-109.803
11
164.14
21
-110.117
0
LINE
8
Black
10
164.14
20
-110.117
11
164.032
21
-110.412
0
LINE
8
Black
10
164.032
20
-110.412
11
163.831
21
-110.652
0
LINE
8
Black
10
163.831
20
-110.652
11
163.559
21
-110.809
0
LINE
8
Black
10
163.559
20
-110.809
11
163.25
21
-110.863
0
LINE
8
Black
10
163.25
20
-110.863
11
162.941
21
-110.809
0
LINE
8
Black
10
162.941
20
-110.809
11
162.669
21
-110.652
0
LINE
8
Black
10
162.669
20
-110.652
11
162.468
21
-110.412
0
LINE
8
Black
10
162.468
20
-110.412
11
162.36
21
-110.117
0
LINE
8
Black
10
162.36
20
-110.117
11
162.36
21
-109.803
0
LINE
8
Black
10
162.36
20
-109.803
11
162.468
21
-109.508
0
LINE
8
Black
10
162.468
20
-109.508
11
162.669
21
-109.268
0
LINE
8
Black
10
162.669
20
-109.268
11
162.941
21
-109.111
0
LINE
8
Black
10
162.941
20
-109.111
11
163.25
21
-109.057
0
LINE
8
Black
10
163.25
20
-109.057
11
163.559
21
-109.111
0
LINE
8
Black
10
166.099
20
-109.111
11
166.371
21
-109.268
0
LINE
8
Black
10
166.371
20
-109.268
11
166.572
21
-109.508
0
LINE
8
Black
10
166.572
20
-109.508
11
166.68
21
-109.803
0
LINE
8
Black
10
166.68
20
-109.803
11
166.68
21
-110.117
0
LINE
8
Black
10
166.68
20
-110.117
11
166.572
21
-110.412
0
LINE
8
Black
10
166.572
20
-110.412
11
166.371
21
-110.652
0
LINE
8
Black
10
166.371
20
-110.652
11
166.099
21
-110.809
0
LINE
8
Black
10
166.099
20
-110.809
11
165.79
21
-110.863
0
LINE
8
Black
10
165.79
20
-110.863
11
165.481
21
-110.809
0
LINE
8
Black
10
165.481
20
-110.809
11
165.209
21
-110.652
0
LINE
8
Black
10
165.209
20
-110.652
11
165.008
21
-110.412
0
LINE
8
Black
10
165.008
20
-110.412
11
164.9
21
-110.117
0
LINE
8
Black
10
164.9
20
-110.117
11
164.9
21
-109.803
0
LINE
8
Black
10
164.9
20
-109.803
11
165.008
21
-109.508
0
LINE
8
Black
10
165.008
20
-109.508
11
165.209
21
-109.268
0
LINE
8
Black
10
165.209
20
-109.268
11
165.481
21
-109.111
0
LINE
8
Black
10
165.481
20
-109.111
11
165.79
21
-109.057
0
LINE
8
Black
10
165.79
20
-109.057
11
166.099
21
-109.111
0
LINE
8
Black
10
140.699
20
-109.111
11
140.971
21
-109.268
0
LINE
8
Black
10
140.971
20
-109.268
11
141.172
21
-109.508
0
LINE
8
Black
10
141.172
20
-109.508
11
141.28
21
-109.803
0
LINE
8
Black
10
141.28
20
-109.803
11
141.28
21
-110.117
0
LINE
8
Black
10
141.28
20
-110.117
11
141.172
21
-110.412
0
LINE
8
Black
10
141.172
20
-110.412
11
140.971
21
-110.652
0
LINE
8
Black
10
140.971
20
-110.652
11
140.699
21
-110.809
0
LINE
8
Black
10
140.699
20
-110.809
11
140.39
21
-110.863
0
LINE
8
Black
10
140.39
20
-110.863
11
140.081
21
-110.809
0
LINE
8
Black
10
140.081
20
-110.809
11
139.809
21
-110.652
0
LINE
8
Black
10
139.809
20
-110.652
11
139.608
21
-110.412
0
LINE
8
Black
10
139.608
20
-110.412
11
139.5
21
-110.117
0
LINE
8
Black
10
139.5
20
-110.117
11
139.5
21
-109.803
0
LINE
8
Black
10
139.5
20
-109.803
11
139.608
21
-109.508
0
LINE
8
Black
10
139.608
20
-109.508
11
139.809
21
-109.268
0
LINE
8
Black
10
139.809
20
-109.268
11
140.081
21
-109.111
0
LINE
8
Black
10
140.081
20
-109.111
11
140.39
21
-109.057
0
LINE
8
Black
10
140.39
20
-109.057
11
140.699
21
-109.111
0
LINE
8
Black
10
138.159
20
-109.111
11
138.431
21
-109.268
0
LINE
8
Black
10
138.431
20
-109.268
11
138.632
21
-109.508
0
LINE
8
Black
10
138.632
20
-109.508
11
138.74
21
-109.803
0
LINE
8
Black
10
138.74
20
-109.803
11
138.74
21
-110.117
0
LINE
8
Black
10
138.74
20
-110.117
11
138.632
21
-110.412
0
LINE
8
Black
10
138.632
20
-110.412
11
138.431
21
-110.652
0
LINE
8
Black
10
138.431
20
-110.652
11
138.159
21
-110.809
0
LINE
8
Black
10
138.159
20
-110.809
11
137.85
21
-110.863
0
LINE
8
Black
10
137.85
20
-110.863
11
137.541
21
-110.809
0
LINE
8
Black
10
137.541
20
-110.809
11
137.269
21
-110.652
0
LINE
8
Black
10
137.269
20
-110.652
11
137.068
21
-110.412
0
LINE
8
Black
10
137.068
20
-110.412
11
136.96
21
-110.117
0
LINE
8
Black
10
136.96
20
-110.117
11
136.96
21
-109.803
0
LINE
8
Black
10
136.96
20
-109.803
11
137.068
21
-109.508
0
LINE
8
Black
10
137.068
20
-109.508
11
137.269
21
-109.268
0
LINE
8
Black
10
137.269
20
-109.268
11
137.541
21
-109.111
0
LINE
8
Black
10
137.541
20
-109.111
11
137.85
21
-109.057
0
LINE
8
Black
10
137.85
20
-109.057
11
138.159
21
-109.111
0
LINE
8
Black
10
185.672
20
-107.028
11
185.823
21
-107.116
0
LINE
8
Black
10
185.823
20
-107.116
11
185.935
21
-107.249
0
LINE
8
Black
10
185.935
20
-107.249
11
185.994
21
-107.413
0
LINE
8
Black
10
185.994
20
-107.413
11
185.994
21
-107.587
0
LINE
8
Black
10
185.994
20
-107.587
11
185.935
21
-107.751
0
LINE
8
Black
10
185.935
20
-107.751
11
185.823
21
-107.884
0
LINE
8
Black
10
185.823
20
-107.884
11
185.672
21
-107.972
0
LINE
8
Black
10
185.672
20
-107.972
11
185.5
21
-108.002
0
LINE
8
Black
10
185.5
20
-108.002
11
185.328
21
-107.972
0
LINE
8
Black
10
185.328
20
-107.972
11
185.177
21
-107.884
0
LINE
8
Black
10
185.177
20
-107.884
11
185.065
21
-107.751
0
LINE
8
Black
10
185.065
20
-107.751
11
185.065
21
-107.75
0
LINE
8
Black
10
185.065
20
-107.75
11
153.935
21
-107.75
0
LINE
8
Black
10
153.935
20
-107.75
11
153.935
21
-107.751
0
LINE
8
Black
10
153.935
20
-107.751
11
153.823
21
-107.884
0
LINE
8
Black
10
153.823
20
-107.884
11
153.672
21
-107.972
0
LINE
8
Black
10
153.672
20
-107.972
11
153.5
21
-108.002
0
LINE
8
Black
10
153.5
20
-108.002
11
153.328
21
-107.972
0
LINE
8
Black
10
153.328
20
-107.972
11
153.177
21
-107.884
0
LINE
8
Black
10
153.177
20
-107.884
11
153.065
21
-107.751
0
LINE
8
Black
10
153.065
20
-107.751
11
153.006
21
-107.587
0
LINE
8
Black
10
153.006
20
-107.587
11
153.006
21
-107.413
0
LINE
8
Black
10
153.006
20
-107.413
11
153.065
21
-107.249
0
LINE
8
Black
10
153.065
20
-107.249
11
153.177
21
-107.116
0
LINE
8
Black
10
153.177
20
-107.116
11
153.328
21
-107.028
0
LINE
8
Black
10
153.328
20
-107.028
11
153.5
21
-106.998
0
LINE
8
Black
10
153.5
20
-106.998
11
153.672
21
-107.028
0
LINE
8
Black
10
153.672
20
-107.028
11
153.823
21
-107.116
0
LINE
8
Black
10
153.823
20
-107.116
11
153.935
21
-107.249
0
LINE
8
Black
10
153.935
20
-107.249
11
153.935
21
-107.25
0
LINE
8
Black
10
153.935
20
-107.25
11
185.065
21
-107.25
0
LINE
8
Black
10
185.065
20
-107.25
11
185.065
21
-107.249
0
LINE
8
Black
10
185.065
20
-107.249
11
185.177
21
-107.116
0
LINE
8
Black
10
185.177
20
-107.116
11
185.328
21
-107.028
0
LINE
8
Black
10
185.328
20
-107.028
11
185.5
21
-106.998
0
LINE
8
Black
10
185.5
20
-106.998
11
185.672
21
-107.028
0
LINE
8
Black
10
185.672
20
-105.028
11
185.823
21
-105.116
0
LINE
8
Black
10
185.823
20
-105.116
11
185.935
21
-105.249
0
LINE
8
Black
10
185.935
20
-105.249
11
185.994
21
-105.413
0
LINE
8
Black
10
185.994
20
-105.413
11
185.994
21
-105.587
0
LINE
8
Black
10
185.994
20
-105.587
11
185.935
21
-105.751
0
LINE
8
Black
10
185.935
20
-105.751
11
185.823
21
-105.884
0
LINE
8
Black
10
185.823
20
-105.884
11
185.672
21
-105.972
0
LINE
8
Black
10
185.672
20
-105.972
11
185.5
21
-106.002
0
LINE
8
Black
10
185.5
20
-106.002
11
185.328
21
-105.972
0
LINE
8
Black
10
185.328
20
-105.972
11
185.177
21
-105.884
0
LINE
8
Black
10
185.177
20
-105.884
11
185.065
21
-105.751
0
LINE
8
Black
10
185.065
20
-105.751
11
185.065
21
-105.75
0
LINE
8
Black
10
185.065
20
-105.75
11
148.935
21
-105.75
0
LINE
8
Black
10
148.935
20
-105.75
11
148.935
21
-105.751
0
LINE
8
Black
10
148.935
20
-105.751
11
148.823
21
-105.884
0
LINE
8
Black
10
148.823
20
-105.884
11
148.672
21
-105.972
0
LINE
8
Black
10
148.672
20
-105.972
11
148.5
21
-106.002
0
LINE
8
Black
10
148.5
20
-106.002
11
148.328
21
-105.972
0
LINE
8
Black
10
148.328
20
-105.972
11
148.177
21
-105.884
0
LINE
8
Black
10
148.177
20
-105.884
11
148.065
21
-105.751
0
LINE
8
Black
10
148.065
20
-105.751
11
148.006
21
-105.587
0
LINE
8
Black
10
148.006
20
-105.587
11
148.006
21
-105.413
0
LINE
8
Black
10
148.006
20
-105.413
11
148.065
21
-105.249
0
LINE
8
Black
10
148.065
20
-105.249
11
148.177
21
-105.116
0
LINE
8
Black
10
148.177
20
-105.116
11
148.328
21
-105.028
0
LINE
8
Black
10
148.328
20
-105.028
11
148.5
21
-104.998
0
LINE
8
Black
10
148.5
20
-104.998
11
148.672
21
-105.028
0
LINE
8
Black
10
148.672
20
-105.028
11
148.823
21
-105.116
0
LINE
8
Black
10
148.823
20
-105.116
11
148.935
21
-105.249
0
LINE
8
Black
10
148.935
20
-105.249
11
148.935
21
-105.25
0
LINE
8
Black
10
148.935
20
-105.25
11
185.065
21
-105.25
0
LINE
8
Black
10
185.065
20
-105.25
11
185.065
21
-105.249
0
LINE
8
Black
10
185.065
20
-105.249
11
185.177
21
-105.116
0
LINE
8
Black
10
185.177
20
-105.116
11
185.328
21
-105.028
0
LINE
8
Black
10
185.328
20
-105.028
11
185.5
21
-104.998
0
LINE
8
Black
10
185.5
20
-104.998
11
185.672
21
-105.028
0
LINE
8
Black
10
112
20
-105
11
102
21
-105
0
LINE
8
Black
10
102
20
-105
11
102
21
-100
0
LINE
8
Black
10
102
20
-100
11
112
21
-100
0
LINE
8
Black
10
112
20
-100
11
112
21
-102
0
LINE
8
Black
10
112
20
-102
11
120.5
21
-102
0
LINE
8
Black
10
120.5
20
-102
11
121.989
21
-102
0
LINE
8
Black
10
121.989
20
-102
11
122
21
-101.998
0
LINE
8
Black
10
122
20
-101.998
11
122.011
21
-102
0
LINE
8
Black
10
122.011
20
-102
11
123.793
21
-102
0
LINE
8
Black
10
123.793
20
-102
11
123.85
21
-101.943
0
LINE
8
Black
10
123.85
20
-101.943
11
123.85
21
-95.5087
0
LINE
8
Black
10
123.85
20
-95.5087
11
123.769
21
-95.4621
0
LINE
8
Black
10
123.769
20
-95.4621
11
123.568
21
-95.2217
0
LINE
8
Black
10
123.568
20
-95.2217
11
123.46
21
-94.9269
0
LINE
8
Black
10
123.46
20
-94.9269
11
123.46
21
-94.6131
0
LINE
8
Black
10
123.46
20
-94.6131
11
123.568
21
-94.3183
0
LINE
8
Black
10
123.568
20
-94.3183
11
123.769
21
-94.0779
0
LINE
8
Black
10
123.769
20
-94.0779
11
124.041
21
-93.921
0
LINE
8
Black
10
124.041
20
-93.921
11
124.35
21
-93.8666
0
LINE
8
Black
10
124.35
20
-93.8666
11
124.659
21
-93.921
0
LINE
8
Black
10
124.659
20
-93.921
11
124.931
21
-94.0779
0
LINE
8
Black
10
124.931
20
-94.0779
11
125.132
21
-94.3183
0
LINE
8
Black
10
125.132
20
-94.3183
11
125.24
21
-94.6131
0
LINE
8
Black
10
125.24
20
-94.6131
11
125.24
21
-94.9269
0
LINE
8
Black
10
125.24
20
-94.9269
11
125.132
21
-95.2217
0
LINE
8
Black
10
125.132
20
-95.2217
11
124.931
21
-95.4621
0
LINE
8
Black
10
124.931
20
-95.4621
11
124.85
21
-95.5087
0
LINE
8
Black
10
124.85
20
-95.5087
11
124.85
21
-101.296
0
LINE
8
Black
10
124.85
20
-101.296
11
127.323
21
-98.8232
0
LINE
8
Black
10
127.323
20
-98.8232
11
127.332
21
-98.8169
0
LINE
8
Black
10
127.332
20
-98.8169
11
127.339
21
-98.8085
0
LINE
8
Black
10
127.339
20
-98.8085
11
127.368
21
-98.7922
0
LINE
8
Black
10
127.368
20
-98.7922
11
127.394
21
-98.7734
0
LINE
8
Black
10
127.394
20
-98.7734
11
127.405
21
-98.7706
0
LINE
8
Black
10
127.405
20
-98.7706
11
127.414
21
-98.7651
0
LINE
8
Black
10
127.414
20
-98.7651
11
127.447
21
-98.7594
0
LINE
8
Black
10
127.447
20
-98.7594
11
127.478
21
-98.751
0
LINE
8
Black
10
127.478
20
-98.751
11
127.489
21
-98.7519
0
LINE
8
Black
10
127.489
20
-98.7519
11
127.5
21
-98.75
0
LINE
8
Black
10
127.5
20
-98.75
11
146.065
21
-98.75
0
LINE
8
Black
10
146.065
20
-98.75
11
146.065
21
-98.749
0
LINE
8
Black
10
146.065
20
-98.749
11
146.177
21
-98.6155
0
LINE
8
Black
10
146.177
20
-98.6155
11
146.328
21
-98.5284
0
LINE
8
Black
10
146.328
20
-98.5284
11
146.5
21
-98.4981
0
LINE
8
Black
10
146.5
20
-98.4981
11
146.672
21
-98.5284
0
LINE
8
Black
10
146.672
20
-98.5284
11
146.823
21
-98.6155
0
LINE
8
Black
10
146.823
20
-98.6155
11
146.935
21
-98.749
0
LINE
8
Black
10
146.935
20
-98.749
11
146.994
21
-98.9128
0
LINE
8
Black
10
146.994
20
-98.9128
11
146.994
21
-99.0872
0
LINE
8
Black
10
146.994
20
-99.0872
11
146.935
21
-99.251
0
LINE
8
Black
10
146.935
20
-99.251
11
146.823
21
-99.3845
0
LINE
8
Black
10
146.823
20
-99.3845
11
146.672
21
-99.4716
0
LINE
8
Black
10
146.672
20
-99.4716
11
146.5
21
-99.5019
0
LINE
8
Black
10
146.5
20
-99.5019
11
146.328
21
-99.4716
0
LINE
8
Black
10
146.328
20
-99.4716
11
146.177
21
-99.3845
0
LINE
8
Black
10
146.177
20
-99.3845
11
146.065
21
-99.251
0
LINE
8
Black
10
146.065
20
-99.251
11
146.065
21
-99.25
0
LINE
8
Black
10
146.065
20
-99.25
11
127.604
21
-99.25
0
LINE
8
Black
10
127.604
20
-99.25
11
124.85
21
-102.004
0
LINE
8
Black
10
124.85
20
-102.004
11
124.85
21
-102.15
0
LINE
8
Black
10
124.85
20
-102.15
11
124.846
21
-102.172
0
LINE
8
Black
10
124.846
20
-102.172
11
124.848
21
-102.194
0
LINE
8
Black
10
124.848
20
-102.194
11
124.831
21
-102.257
0
LINE
8
Black
10
124.831
20
-102.257
11
124.82
21
-102.321
0
LINE
8
Black
10
124.82
20
-102.321
11
124.809
21
-102.34
0
LINE
8
Black
10
124.809
20
-102.34
11
124.803
21
-102.361
0
LINE
8
Black
10
124.803
20
-102.361
11
124.766
21
-102.415
0
LINE
8
Black
10
124.766
20
-102.415
11
124.733
21
-102.471
0
LINE
8
Black
10
124.733
20
-102.471
11
124.716
21
-102.486
0
LINE
8
Black
10
124.716
20
-102.486
11
124.704
21
-102.504
0
LINE
8
Black
10
124.704
20
-102.504
11
124.354
21
-102.854
0
LINE
8
Black
10
124.354
20
-102.854
11
124.336
21
-102.866
0
LINE
8
Black
10
124.336
20
-102.866
11
124.321
21
-102.883
0
LINE
8
Black
10
124.321
20
-102.883
11
124.265
21
-102.916
0
LINE
8
Black
10
124.265
20
-102.916
11
124.211
21
-102.953
0
LINE
8
Black
10
124.211
20
-102.953
11
124.19
21
-102.959
0
LINE
8
Black
10
124.19
20
-102.959
11
124.171
21
-102.97
0
LINE
8
Black
10
124.171
20
-102.97
11
124.107
21
-102.981
0
LINE
8
Black
10
124.107
20
-102.981
11
124.044
21
-102.998
0
LINE
8
Black
10
124.044
20
-102.998
11
124.022
21
-102.996
0
LINE
8
Black
10
124.022
20
-102.996
11
124
21
-103
0
LINE
8
Black
10
124
20
-103
11
122.011
21
-103
0
LINE
8
Black
10
122.011
20
-103
11
122
21
-103.002
0
LINE
8
Black
10
122
20
-103.002
11
121.989
21
-103
0
LINE
8
Black
10
121.989
20
-103
11
120.5
21
-103
0
LINE
8
Black
10
120.5
20
-103
11
112
21
-103
0
LINE
8
Black
10
112
20
-103
11
112
21
-105
0
LINE
8
Black
10
168.672
20
-103.028
11
168.823
21
-103.116
0
LINE
8
Black
10
168.823
20
-103.116
11
168.935
21
-103.249
0
LINE
8
Black
10
168.935
20
-103.249
11
168.994
21
-103.413
0
LINE
8
Black
10
168.994
20
-103.413
11
168.994
21
-103.587
0
LINE
8
Black
10
168.994
20
-103.587
11
168.935
21
-103.751
0
LINE
8
Black
10
168.935
20
-103.751
11
168.823
21
-103.884
0
LINE
8
Black
10
168.823
20
-103.884
11
168.672
21
-103.972
0
LINE
8
Black
10
168.672
20
-103.972
11
168.5
21
-104.002
0
LINE
8
Black
10
168.5
20
-104.002
11
168.328
21
-103.972
0
LINE
8
Black
10
168.328
20
-103.972
11
168.177
21
-103.884
0
LINE
8
Black
10
168.177
20
-103.884
11
168.065
21
-103.751
0
LINE
8
Black
10
168.065
20
-103.751
11
168.065
21
-103.75
0
LINE
8
Black
10
168.065
20
-103.75
11
158.935
21
-103.75
0
LINE
8
Black
10
158.935
20
-103.75
11
158.935
21
-103.751
0
LINE
8
Black
10
158.935
20
-103.751
11
158.823
21
-103.884
0
LINE
8
Black
10
158.823
20
-103.884
11
158.672
21
-103.972
0
LINE
8
Black
10
158.672
20
-103.972
11
158.5
21
-104.002
0
LINE
8
Black
10
158.5
20
-104.002
11
158.328
21
-103.972
0
LINE
8
Black
10
158.328
20
-103.972
11
158.177
21
-103.884
0
LINE
8
Black
10
158.177
20
-103.884
11
158.065
21
-103.751
0
LINE
8
Black
10
158.065
20
-103.751
11
158.006
21
-103.587
0
LINE
8
Black
10
158.006
20
-103.587
11
158.006
21
-103.413
0
LINE
8
Black
10
158.006
20
-103.413
11
158.065
21
-103.249
0
LINE
8
Black
10
158.065
20
-103.249
11
158.177
21
-103.116
0
LINE
8
Black
10
158.177
20
-103.116
11
158.328
21
-103.028
0
LINE
8
Black
10
158.328
20
-103.028
11
158.5
21
-102.998
0
LINE
8
Black
10
158.5
20
-102.998
11
158.672
21
-103.028
0
LINE
8
Black
10
158.672
20
-103.028
11
158.823
21
-103.116
0
LINE
8
Black
10
158.823
20
-103.116
11
158.935
21
-103.249
0
LINE
8
Black
10
158.935
20
-103.249
11
158.935
21
-103.25
0
LINE
8
Black
10
158.935
20
-103.25
11
168.065
21
-103.25
0
LINE
8
Black
10
168.065
20
-103.25
11
168.065
21
-103.249
0
LINE
8
Black
10
168.065
20
-103.249
11
168.177
21
-103.116
0
LINE
8
Black
10
168.177
20
-103.116
11
168.328
21
-103.028
0
LINE
8
Black
10
168.328
20
-103.028
11
168.5
21
-102.998
0
LINE
8
Black
10
168.5
20
-102.998
11
168.672
21
-103.028
0
LINE
8
Black
10
118.176
20
-93.5859
11
118.192
21
-93.5874
0
LINE
8
Black
10
118.192
20
-93.5874
11
118.197
21
-93.5897
0
LINE
8
Black
10
118.197
20
-93.5897
11
118.203
21
-93.5907
0
LINE
8
Black
10
118.203
20
-93.5907
11
118.217
21
-93.599
0
LINE
8
Black
10
118.217
20
-93.599
11
118.232
21
-93.606
0
LINE
8
Black
10
118.232
20
-93.606
11
118.236
21
-93.6099
0
LINE
8
Black
10
118.236
20
-93.6099
11
118.241
21
-93.6127
0
LINE
8
Black
10
118.241
20
-93.6127
11
118.251
21
-93.6255
0
LINE
8
Black
10
118.251
20
-93.6255
11
118.263
21
-93.6372
0
LINE
8
Black
10
118.263
20
-93.6372
11
118.266
21
-93.6423
0
LINE
8
Black
10
118.266
20
-93.6423
11
118.269
21
-93.6465
0
LINE
8
Black
10
118.269
20
-93.6465
11
118.275
21
-93.6621
0
LINE
8
Black
10
118.275
20
-93.6621
11
118.282
21
-93.6772
0
LINE
8
Black
10
118.282
20
-93.6772
11
118.282
21
-93.6827
0
LINE
8
Black
10
118.282
20
-93.6827
11
118.284
21
-93.6879
0
LINE
8
Black
10
118.284
20
-93.6879
11
118.284
21
-93.7046
0
LINE
8
Black
10
118.284
20
-93.7046
11
118.286
21
-93.7212
0
LINE
8
Black
10
118.286
20
-93.7212
11
118.284
21
-93.7265
0
LINE
8
Black
10
118.284
20
-93.7265
11
118.284
21
-93.7321
0
LINE
8
Black
10
118.284
20
-93.7321
11
118.279
21
-93.7477
0
LINE
8
Black
10
118.279
20
-93.7477
11
118.274
21
-93.7638
0
LINE
8
Black
10
118.274
20
-93.7638
11
118.271
21
-93.7683
0
LINE
8
Black
10
118.271
20
-93.7683
11
118.269
21
-93.7735
0
LINE
8
Black
10
118.269
20
-93.7735
11
118.258
21
-93.7862
0
LINE
8
Black
10
118.258
20
-93.7862
11
118.249
21
-93.7999
0
LINE
8
Black
10
118.249
20
-93.7999
11
118.074
21
-93.9749
0
LINE
8
Black
10
118.074
20
-93.9749
11
118.069
21
-93.978
0
LINE
8
Black
10
118.069
20
-93.978
11
118.065
21
-93.9823
0
LINE
8
Black
10
118.065
20
-93.9823
11
118.051
21
-93.9906
0
LINE
8
Black
10
118.051
20
-93.9906
11
118.037
21
-94.0001
0
LINE
8
Black
10
118.037
20
-94.0001
11
118.032
21
-94.0016
0
LINE
8
Black
10
118.032
20
-94.0016
11
118.027
21
-94.0043
0
LINE
8
Black
10
118.027
20
-94.0043
11
118.011
21
-94.0072
0
LINE
8
Black
10
118.011
20
-94.0072
11
117.995
21
-94.0115
0
LINE
8
Black
10
117.995
20
-94.0115
11
117.989
21
-94.011
0
LINE
8
Black
10
117.989
20
-94.011
11
117.984
21
-94.012
0
LINE
8
Black
10
117.984
20
-94.012
11
115.274
21
-94.012
0
LINE
8
Black
10
115.274
20
-94.012
11
115.272
21
-94.0115
0
LINE
8
Black
10
115.272
20
-94.0115
11
115.269
21
-94.0119
0
LINE
8
Black
10
115.269
20
-94.0119
11
115.25
21
-94.0077
0
LINE
8
Black
10
115.25
20
-94.0077
11
115.231
21
-94.0043
0
LINE
8
Black
10
115.231
20
-94.0043
11
115.229
21
-94.0029
0
LINE
8
Black
10
115.229
20
-94.0029
11
115.226
21
-94.0023
0
LINE
8
Black
10
115.226
20
-94.0023
11
115.201
21
-93.9922
0
LINE
8
Black
10
115.201
20
-93.9922
11
114.8
21
-93.9918
0
LINE
8
Black
10
114.8
20
-93.9918
11
114.43
21
-94.145
0
LINE
8
Black
10
114.43
20
-94.145
11
114.146
21
-94.4283
0
LINE
8
Black
10
114.146
20
-94.4283
11
113.992
21
-94.7986
0
LINE
8
Black
10
113.992
20
-94.7986
11
113.992
21
-95.1996
0
LINE
8
Black
10
113.992
20
-95.1996
11
114.145
21
-95.5702
0
LINE
8
Black
10
114.145
20
-95.5702
11
114.428
21
-95.854
0
LINE
8
Black
10
114.428
20
-95.854
11
114.799
21
-96.0078
0
LINE
8
Black
10
114.799
20
-96.0078
11
115.2
21
-96.0082
0
LINE
8
Black
10
115.2
20
-96.0082
11
115.57
21
-95.855
0
LINE
8
Black
10
115.57
20
-95.855
11
115.861
21
-95.5651
0
LINE
8
Black
10
115.861
20
-95.5651
11
115.865
21
-95.5619
0
LINE
8
Black
10
115.865
20
-95.5619
11
115.869
21
-95.5577
0
LINE
8
Black
10
115.869
20
-95.5577
11
115.883
21
-95.5494
0
LINE
8
Black
10
115.883
20
-95.5494
11
115.897
21
-95.5399
0
LINE
8
Black
10
115.897
20
-95.5399
11
115.902
21
-95.5384
0
LINE
8
Black
10
115.902
20
-95.5384
11
115.907
21
-95.5357
0
LINE
8
Black
10
115.907
20
-95.5357
11
115.923
21
-95.5328
0
LINE
8
Black
10
115.923
20
-95.5328
11
115.939
21
-95.5285
0
LINE
8
Black
10
115.939
20
-95.5285
11
115.945
21
-95.529
0
LINE
8
Black
10
115.945
20
-95.529
11
115.95
21
-95.528
0
LINE
8
Black
10
115.95
20
-95.528
11
117.985
21
-95.528
0
LINE
8
Black
10
117.985
20
-95.528
11
117.99
21
-95.529
0
LINE
8
Black
10
117.99
20
-95.529
11
117.996
21
-95.5285
0
LINE
8
Black
10
117.996
20
-95.5285
11
118.012
21
-95.5328
0
LINE
8
Black
10
118.012
20
-95.5328
11
118.028
21
-95.5357
0
LINE
8
Black
10
118.028
20
-95.5357
11
118.033
21
-95.5385
0
LINE
8
Black
10
118.033
20
-95.5385
11
118.038
21
-95.5399
0
LINE
8
Black
10
118.038
20
-95.5399
11
118.052
21
-95.5494
0
LINE
8
Black
10
118.052
20
-95.5494
11
118.066
21
-95.5577
0
LINE
8
Black
10
118.066
20
-95.5577
11
118.07
21
-95.562
0
LINE
8
Black
10
118.07
20
-95.562
11
118.074
21
-95.5653
0
LINE
8
Black
10
118.074
20
-95.5653
11
118.234
21
-95.7249
0
LINE
8
Black
10
118.234
20
-95.7249
11
118.242
21
-95.7373
0
LINE
8
Black
10
118.242
20
-95.7373
11
118.252
21
-95.7487
0
LINE
8
Black
10
118.252
20
-95.7487
11
118.255
21
-95.7553
0
LINE
8
Black
10
118.255
20
-95.7553
11
118.259
21
-95.7611
0
LINE
8
Black
10
118.259
20
-95.7611
11
118.263
21
-95.7757
0
LINE
8
Black
10
118.263
20
-95.7757
11
118.268
21
-95.7898
0
LINE
8
Black
10
118.268
20
-95.7898
11
118.341
21
-96.1548
0
LINE
8
Black
10
118.341
20
-96.1548
11
118.566
21
-96.4916
0
LINE
8
Black
10
118.566
20
-96.4916
11
121.287
21
-99.2124
0
LINE
8
Black
10
121.287
20
-99.2124
11
121.287
21
-99.2124
0
LINE
8
Black
10
121.287
20
-99.2124
11
121.287
21
-99.2124
0
LINE
8
Black
10
121.287
20
-99.2124
11
121.428
21
-99.354
0
LINE
8
Black
10
121.428
20
-99.354
11
121.799
21
-99.5078
0
LINE
8
Black
10
121.799
20
-99.5078
11
122.2
21
-99.5082
0
LINE
8
Black
10
122.2
20
-99.5082
11
122.57
21
-99.355
0
LINE
8
Black
10
122.57
20
-99.355
11
122.854
21
-99.0717
0
LINE
8
Black
10
122.854
20
-99.0717
11
123.008
21
-98.7014
0
LINE
8
Black
10
123.008
20
-98.7014
11
123.008
21
-98.3004
0
LINE
8
Black
10
123.008
20
-98.3004
11
122.855
21
-97.9298
0
LINE
8
Black
10
122.855
20
-97.9298
11
122.558
21
-97.6319
0
LINE
8
Black
10
122.558
20
-97.6319
11
122.557
21
-97.6318
0
LINE
8
Black
10
122.557
20
-97.6318
11
122.557
21
-97.6313
0
LINE
8
Black
10
122.557
20
-97.6313
11
122.554
21
-97.6286
0
LINE
8
Black
10
122.554
20
-97.6286
11
122.553
21
-97.628
0
LINE
8
Black
10
122.553
20
-97.628
11
121.247
21
-96.321
0
LINE
8
Black
10
121.247
20
-96.321
11
121.237
21
-96.3073
0
LINE
8
Black
10
121.237
20
-96.3073
11
121.226
21
-96.2945
0
LINE
8
Black
10
121.226
20
-96.2945
11
121.224
21
-96.2894
0
LINE
8
Black
10
121.224
20
-96.2894
11
121.221
21
-96.2849
0
LINE
8
Black
10
121.221
20
-96.2849
11
121.217
21
-96.2688
0
LINE
8
Black
10
121.217
20
-96.2688
11
121.211
21
-96.2531
0
LINE
8
Black
10
121.211
20
-96.2531
11
121.211
21
-96.2476
0
LINE
8
Black
10
121.211
20
-96.2476
11
121.21
21
-96.2423
0
LINE
8
Black
10
121.21
20
-96.2423
11
121.211
21
-96.2257
0
LINE
8
Black
10
121.211
20
-96.2257
11
121.211
21
-96.209
0
LINE
8
Black
10
121.211
20
-96.209
11
121.213
21
-96.2038
0
LINE
8
Black
10
121.213
20
-96.2038
11
121.214
21
-96.1983
0
LINE
8
Black
10
121.214
20
-96.1983
11
121.221
21
-96.1832
0
LINE
8
Black
10
121.221
20
-96.1832
11
121.226
21
-96.1675
0
LINE
8
Black
10
121.226
20
-96.1675
11
121.23
21
-96.1633
0
LINE
8
Black
10
121.23
20
-96.1633
11
121.232
21
-96.1584
0
LINE
8
Black
10
121.232
20
-96.1584
11
121.244
21
-96.1466
0
LINE
8
Black
10
121.244
20
-96.1466
11
121.255
21
-96.1338
0
LINE
8
Black
10
121.255
20
-96.1338
11
121.26
21
-96.1311
0
LINE
8
Black
10
121.26
20
-96.1311
11
121.264
21
-96.1272
0
LINE
8
Black
10
121.264
20
-96.1272
11
121.279
21
-96.1201
0
LINE
8
Black
10
121.279
20
-96.1201
11
121.293
21
-96.1118
0
LINE
8
Black
10
121.293
20
-96.1118
11
121.299
21
-96.1109
0
LINE
8
Black
10
121.299
20
-96.1109
11
121.303
21
-96.1085
0
LINE
8
Black
10
121.303
20
-96.1085
11
121.32
21
-96.1071
0
LINE
8
Black
10
121.32
20
-96.1071
11
121.337
21
-96.1042
0
LINE
8
Black
10
121.337
20
-96.1042
11
121.342
21
-96.1052
0
LINE
8
Black
10
121.342
20
-96.1052
11
121.347
21
-96.1047
0
LINE
8
Black
10
121.347
20
-96.1047
11
121.364
21
-96.109
0
LINE
8
Black
10
121.364
20
-96.109
11
121.38
21
-96.1119
0
LINE
8
Black
10
121.38
20
-96.1119
11
121.589
21
-96.1885
0
LINE
8
Black
10
121.589
20
-96.1885
11
122.152
21
-96.1649
0
LINE
8
Black
10
122.152
20
-96.1649
11
122.522
21
-96.0114
0
LINE
8
Black
10
122.522
20
-96.0114
11
122.565
21
-95.8843
0
LINE
8
Black
10
122.565
20
-95.8843
11
122.234
21
-95.5528
0
LINE
8
Black
10
122.234
20
-95.5528
11
122.119
21
-95.619
0
LINE
8
Black
10
122.119
20
-95.619
11
121.81
21
-95.6734
0
LINE
8
Black
10
121.81
20
-95.6734
11
121.501
21
-95.619
0
LINE
8
Black
10
121.501
20
-95.619
11
121.229
21
-95.4621
0
LINE
8
Black
10
121.229
20
-95.4621
11
121.028
21
-95.2217
0
LINE
8
Black
10
121.028
20
-95.2217
11
120.92
21
-94.9269
0
LINE
8
Black
10
120.92
20
-94.9269
11
120.92
21
-94.6131
0
LINE
8
Black
10
120.92
20
-94.6131
11
121.028
21
-94.3183
0
LINE
8
Black
10
121.028
20
-94.3183
11
121.229
21
-94.0779
0
LINE
8
Black
10
121.229
20
-94.0779
11
121.501
21
-93.921
0
LINE
8
Black
10
121.501
20
-93.921
11
121.81
21
-93.8666
0
LINE
8
Black
10
121.81
20
-93.8666
11
122.119
21
-93.921
0
LINE
8
Black
10
122.119
20
-93.921
11
122.391
21
-94.0779
0
LINE
8
Black
10
122.391
20
-94.0779
11
122.592
21
-94.3183
0
LINE
8
Black
10
122.592
20
-94.3183
11
122.7
21
-94.6131
0
LINE
8
Black
10
122.7
20
-94.6131
11
122.7
21
-94.9269
0
LINE
8
Black
10
122.7
20
-94.9269
11
122.6
21
-95.2008
0
LINE
8
Black
10
122.6
20
-95.2008
11
122.924
21
-95.5251
0
LINE
8
Black
10
122.924
20
-95.5251
11
123
21
-95.4996
0
LINE
8
Black
10
123
20
-95.4996
11
123.007
21
-95.4986
0
LINE
8
Black
10
123.007
20
-95.4986
11
123.013
21
-95.496
0
LINE
8
Black
10
123.013
20
-95.496
11
123.028
21
-95.4953
0
LINE
8
Black
10
123.028
20
-95.4953
11
123.043
21
-95.493
0
LINE
8
Black
10
123.043
20
-95.493
11
123.05
21
-95.4944
0
LINE
8
Black
10
123.05
20
-95.4944
11
123.057
21
-95.4941
0
LINE
8
Black
10
123.057
20
-95.4941
11
123.072
21
-95.4987
0
LINE
8
Black
10
123.072
20
-95.4987
11
123.087
21
-95.5017
0
LINE
8
Black
10
123.087
20
-95.5017
11
123.093
21
-95.5053
0
LINE
8
Black
10
123.093
20
-95.5053
11
123.099
21
-95.5074
0
LINE
8
Black
10
123.099
20
-95.5074
11
123.111
21
-95.5167
0
LINE
8
Black
10
123.111
20
-95.5167
11
123.124
21
-95.5247
0
LINE
8
Black
10
123.124
20
-95.5247
11
123.129
21
-95.53
0
LINE
8
Black
10
123.129
20
-95.53
11
123.134
21
-95.5342
0
LINE
8
Black
10
123.134
20
-95.5342
11
123.142
21
-95.5472
0
LINE
8
Black
10
123.142
20
-95.5472
11
123.152
21
-95.5591
0
LINE
8
Black
10
123.152
20
-95.5591
11
123.154
21
-95.5645
0
LINE
8
Black
10
123.154
20
-95.5645
11
123.305
21
-95.716
0
LINE
8
Black
10
123.305
20
-95.716
11
123.308
21
-95.7205
0
LINE
8
Black
10
123.308
20
-95.7205
11
123.312
21
-95.7241
0
LINE
8
Black
10
123.312
20
-95.7241
11
123.321
21
-95.7385
0
LINE
8
Black
10
123.321
20
-95.7385
11
123.33
21
-95.7522
0
LINE
8
Black
10
123.33
20
-95.7522
11
123.332
21
-95.7575
0
LINE
8
Black
10
123.332
20
-95.7575
11
123.334
21
-95.7623
0
LINE
8
Black
10
123.334
20
-95.7623
11
123.337
21
-95.7787
0
LINE
8
Black
10
123.337
20
-95.7787
11
123.342
21
-95.7948
0
LINE
8
Black
10
123.342
20
-95.7948
11
123.341
21
-95.8003
0
LINE
8
Black
10
123.341
20
-95.8003
11
123.342
21
-95.8057
0
LINE
8
Black
10
123.342
20
-95.8057
11
123.342
21
-101.365
0
LINE
8
Black
10
123.342
20
-101.365
11
123.34
21
-101.376
0
LINE
8
Black
10
123.34
20
-101.376
11
123.34
21
-101.387
0
LINE
8
Black
10
123.34
20
-101.387
11
123.336
21
-101.397
0
LINE
8
Black
10
123.336
20
-101.397
11
123.334
21
-101.408
0
LINE
8
Black
10
123.334
20
-101.408
11
123.329
21
-101.418
0
LINE
8
Black
10
123.329
20
-101.418
11
123.325
21
-101.428
0
LINE
8
Black
10
123.325
20
-101.428
11
123.318
21
-101.437
0
LINE
8
Black
10
123.318
20
-101.437
11
123.312
21
-101.447
0
LINE
8
Black
10
123.312
20
-101.447
11
123.304
21
-101.454
0
LINE
8
Black
10
123.304
20
-101.454
11
123.297
21
-101.462
0
LINE
8
Black
10
123.297
20
-101.462
11
123.287
21
-101.468
0
LINE
8
Black
10
123.287
20
-101.468
11
123.278
21
-101.475
0
LINE
8
Black
10
123.278
20
-101.475
11
123.268
21
-101.479
0
LINE
8
Black
10
123.268
20
-101.479
11
123.258
21
-101.484
0
LINE
8
Black
10
123.258
20
-101.484
11
123.247
21
-101.486
0
LINE
8
Black
10
123.247
20
-101.486
11
123.237
21
-101.49
0
LINE
8
Black
10
123.237
20
-101.49
11
123.226
21
-101.49
0
LINE
8
Black
10
123.226
20
-101.49
11
123.215
21
-101.492
0
LINE
8
Black
10
123.215
20
-101.492
11
122.001
21
-101.492
0
LINE
8
Black
10
122.001
20
-101.492
11
122.001
21
-101.492
0
LINE
8
Black
10
122.001
20
-101.492
11
122.001
21
-101.492
0
LINE
8
Black
10
122.001
20
-101.492
11
121.781
21
-101.492
0
LINE
8
Black
10
121.781
20
-101.492
11
121.78
21
-101.492
0
LINE
8
Black
10
121.78
20
-101.492
11
121.78
21
-101.492
0
LINE
8
Black
10
121.78
20
-101.492
11
121.776
21
-101.492
0
LINE
8
Black
10
121.776
20
-101.492
11
121.775
21
-101.492
0
LINE
8
Black
10
121.775
20
-101.492
11
112.647
21
-101.492
0
LINE
8
Black
10
112.647
20
-101.492
11
112.636
21
-101.49
0
LINE
8
Black
10
112.636
20
-101.49
11
112.625
21
-101.49
0
LINE
8
Black
10
112.625
20
-101.49
11
112.615
21
-101.486
0
LINE
8
Black
10
112.615
20
-101.486
11
112.604
21
-101.484
0
LINE
8
Black
10
112.604
20
-101.484
11
112.594
21
-101.479
0
LINE
8
Black
10
112.594
20
-101.479
11
112.584
21
-101.475
0
LINE
8
Black
10
112.584
20
-101.475
11
112.575
21
-101.468
0
LINE
8
Black
10
112.575
20
-101.468
11
112.566
21
-101.462
0
LINE
8
Black
10
112.566
20
-101.462
11
112.559
21
-101.454
0
LINE
8
Black
10
112.559
20
-101.454
11
112.55
21
-101.447
0
LINE
8
Black
10
112.55
20
-101.447
11
112.545
21
-101.437
0
LINE
8
Black
10
112.545
20
-101.437
11
112.537
21
-101.428
0
LINE
8
Black
10
112.537
20
-101.428
11
112.534
21
-101.418
0
LINE
8
Black
10
112.534
20
-101.418
11
112.528
21
-101.408
0
LINE
8
Black
10
112.528
20
-101.408
11
112.526
21
-101.397
0
LINE
8
Black
10
112.526
20
-101.397
11
112.522
21
-101.387
0
LINE
8
Black
10
112.522
20
-101.387
11
112.522
21
-101.376
0
LINE
8
Black
10
112.522
20
-101.376
11
112.52
21
-101.365
0
LINE
8
Black
10
112.52
20
-101.365
11
112.52
21
-100.012
0
LINE
8
Black
10
112.52
20
-100.012
11
112.483
21
-99.8125
0
LINE
8
Black
10
112.483
20
-99.8125
11
112.371
21
-99.6389
0
LINE
8
Black
10
112.371
20
-99.6389
11
112.201
21
-99.5229
0
LINE
8
Black
10
112.201
20
-99.5229
11
111.987
21
-99.4796
0
LINE
8
Black
10
111.987
20
-99.4796
11
102.21
21
-99.4796
0
LINE
8
Black
10
102.21
20
-99.4796
11
102.199
21
-99.4776
0
LINE
8
Black
10
102.199
20
-99.4776
11
102.188
21
-99.4776
0
LINE
8
Black
10
102.188
20
-99.4776
11
102.178
21
-99.4738
0
LINE
8
Black
10
102.178
20
-99.4738
11
102.167
21
-99.4719
0
LINE
8
Black
10
102.167
20
-99.4719
11
102.157
21
-99.4663
0
LINE
8
Black
10
102.157
20
-99.4663
11
102.146
21
-99.4625
0
LINE
8
Black
10
102.146
20
-99.4625
11
102.138
21
-99.4554
0
LINE
8
Black
10
102.138
20
-99.4554
11
102.128
21
-99.4498
0
LINE
8
Black
10
102.128
20
-99.4498
11
102.121
21
-99.4413
0
LINE
8
Black
10
102.121
20
-99.4413
11
102.113
21
-99.4342
0
LINE
8
Black
10
102.113
20
-99.4342
11
102.107
21
-99.4246
0
LINE
8
Black
10
102.107
20
-99.4246
11
102.1
21
-99.4161
0
LINE
8
Black
10
102.1
20
-99.4161
11
102.096
21
-99.4056
0
LINE
8
Black
10
102.096
20
-99.4056
11
102.091
21
-99.396
0
LINE
8
Black
10
102.091
20
-99.396
11
102.089
21
-99.3851
0
LINE
8
Black
10
102.089
20
-99.3851
11
102.085
21
-99.3746
0
LINE
8
Black
10
102.085
20
-99.3746
11
102.085
21
-99.3635
0
LINE
8
Black
10
102.085
20
-99.3635
11
102.083
21
-99.3526
0
LINE
8
Black
10
102.083
20
-99.3526
11
102.083
21
-98.804
0
LINE
8
Black
10
102.083
20
-98.804
11
102.083
21
-93.71
0
LINE
8
Black
10
102.083
20
-93.71
11
102.085
21
-93.6991
0
LINE
8
Black
10
102.085
20
-93.6991
11
102.085
21
-93.6879
0
LINE
8
Black
10
102.085
20
-93.6879
11
102.089
21
-93.6775
0
LINE
8
Black
10
102.089
20
-93.6775
11
102.091
21
-93.6666
0
LINE
8
Black
10
102.091
20
-93.6666
11
102.096
21
-93.6569
0
LINE
8
Black
10
102.096
20
-93.6569
11
102.1
21
-93.6465
0
LINE
8
Black
10
102.1
20
-93.6465
11
102.107
21
-93.638
0
LINE
8
Black
10
102.107
20
-93.638
11
102.113
21
-93.6284
0
LINE
8
Black
10
102.113
20
-93.6284
11
102.121
21
-93.6212
0
LINE
8
Black
10
102.121
20
-93.6212
11
102.128
21
-93.6127
0
LINE
8
Black
10
102.128
20
-93.6127
11
102.138
21
-93.6072
0
LINE
8
Black
10
102.138
20
-93.6072
11
102.146
21
-93.6
0
LINE
8
Black
10
102.146
20
-93.6
11
102.157
21
-93.5962
0
LINE
8
Black
10
102.157
20
-93.5962
11
102.167
21
-93.5907
0
LINE
8
Black
10
102.167
20
-93.5907
11
102.178
21
-93.5887
0
LINE
8
Black
10
102.178
20
-93.5887
11
102.188
21
-93.5849
0
LINE
8
Black
10
102.188
20
-93.5849
11
102.199
21
-93.5849
0
LINE
8
Black
10
102.199
20
-93.5849
11
102.21
21
-93.583
0
LINE
8
Black
10
102.21
20
-93.583
11
118.159
21
-93.583
0
LINE
8
Black
10
118.159
20
-93.583
11
118.176
21
-93.5859
0
LINE
8
Black
10
114.203
20
-97.3057
11
113.807
21
-97.7014
0
LINE
8
Black
10
113.807
20
-97.7014
11
113.592
21
-98.2187
0
LINE
8
Black
10
113.592
20
-98.2187
11
113.592
21
-98.7788
0
LINE
8
Black
10
113.592
20
-98.7788
11
113.806
21
-99.2965
0
LINE
8
Black
10
113.806
20
-99.2965
11
114.201
21
-99.6929
0
LINE
8
Black
10
114.201
20
-99.6929
11
114.719
21
-99.9078
0
LINE
8
Black
10
114.719
20
-99.9078
11
115.279
21
-99.9082
0
LINE
8
Black
10
115.279
20
-99.9082
11
115.797
21
-99.6943
0
LINE
8
Black
10
115.797
20
-99.6943
11
116.193
21
-99.2986
0
LINE
8
Black
10
116.193
20
-99.2986
11
116.408
21
-98.7813
0
LINE
8
Black
10
116.408
20
-98.7813
11
116.408
21
-98.2212
0
LINE
8
Black
10
116.408
20
-98.2212
11
116.194
21
-97.7035
0
LINE
8
Black
10
116.194
20
-97.7035
11
115.799
21
-97.3071
0
LINE
8
Black
10
115.799
20
-97.3071
11
115.281
21
-97.0922
0
LINE
8
Black
10
115.281
20
-97.0922
11
114.721
21
-97.0918
0
LINE
8
Black
10
114.721
20
-97.0918
11
114.203
21
-97.3057
0
LINE
8
Black
10
115.309
20
-97.651
11
115.581
21
-97.8079
0
LINE
8
Black
10
115.581
20
-97.8079
11
115.782
21
-98.0483
0
LINE
8
Black
10
115.782
20
-98.0483
11
115.89
21
-98.3431
0
LINE
8
Black
10
115.89
20
-98.3431
11
115.89
21
-98.6569
0
LINE
8
Black
10
115.89
20
-98.6569
11
115.782
21
-98.9517
0
LINE
8
Black
10
115.782
20
-98.9517
11
115.581
21
-99.1921
0
LINE
8
Black
10
115.581
20
-99.1921
11
115.309
21
-99.349
0
LINE
8
Black
10
115.309
20
-99.349
11
115
21
-99.4034
0
LINE
8
Black
10
115
20
-99.4034
11
114.691
21
-99.349
0
LINE
8
Black
10
114.691
20
-99.349
11
114.419
21
-99.1921
0
LINE
8
Black
10
114.419
20
-99.1921
11
114.218
21
-98.9517
0
LINE
8
Black
10
114.218
20
-98.9517
11
114.11
21
-98.6569
0
LINE
8
Black
10
114.11
20
-98.6569
11
114.11
21
-98.3431
0
LINE
8
Black
10
114.11
20
-98.3431
11
114.218
21
-98.0483
0
LINE
8
Black
10
114.218
20
-98.0483
11
114.419
21
-97.8079
0
LINE
8
Black
10
114.419
20
-97.8079
11
114.691
21
-97.651
0
LINE
8
Black
10
114.691
20
-97.651
11
115
21
-97.5966
0
LINE
8
Black
10
115
20
-97.5966
11
115.309
21
-97.651
0
LINE
8
Black
10
145.779
20
-93.871
11
146.051
21
-94.0279
0
LINE
8
Black
10
146.051
20
-94.0279
11
146.252
21
-94.2683
0
LINE
8
Black
10
146.252
20
-94.2683
11
146.36
21
-94.5631
0
LINE
8
Black
10
146.36
20
-94.5631
11
146.36
21
-94.8769
0
LINE
8
Black
10
146.36
20
-94.8769
11
146.252
21
-95.1717
0
LINE
8
Black
10
146.252
20
-95.1717
11
146.051
21
-95.4121
0
LINE
8
Black
10
146.051
20
-95.4121
11
146
21
-95.4414
0
LINE
8
Black
10
146
20
-95.4414
11
146
21
-96.7929
0
LINE
8
Black
10
146
20
-96.7929
11
146.207
21
-97
0
LINE
8
Black
10
146.207
20
-97
11
183.5
21
-97
0
LINE
8
Black
10
183.5
20
-97
11
183.522
21
-97.0038
0
LINE
8
Black
10
183.522
20
-97.0038
11
183.544
21
-97.0019
0
LINE
8
Black
10
183.544
20
-97.0019
11
183.607
21
-97.0188
0
LINE
8
Black
10
183.607
20
-97.0188
11
183.671
21
-97.0302
0
LINE
8
Black
10
183.671
20
-97.0302
11
183.69
21
-97.0412
0
LINE
8
Black
10
183.69
20
-97.0412
11
183.711
21
-97.0468
0
LINE
8
Black
10
183.711
20
-97.0468
11
183.765
21
-97.0843
0
LINE
8
Black
10
183.765
20
-97.0843
11
183.821
21
-97.117
0
LINE
8
Black
10
183.821
20
-97.117
11
183.836
21
-97.1338
0
LINE
8
Black
10
183.836
20
-97.1338
11
183.854
21
-97.1464
0
LINE
8
Black
10
183.854
20
-97.1464
11
185.823
21
-99.1155
0
LINE
8
Black
10
185.823
20
-99.1155
11
185.823
21
-99.1155
0
LINE
8
Black
10
185.823
20
-99.1155
11
185.823
21
-99.1155
0
LINE
8
Black
10
185.823
20
-99.1155
11
185.854
21
-99.1464
0
LINE
8
Black
10
185.854
20
-99.1464
11
185.879
21
-99.1823
0
LINE
8
Black
10
185.879
20
-99.1823
11
185.935
21
-99.249
0
LINE
8
Black
10
185.935
20
-99.249
11
185.945
21
-99.2766
0
LINE
8
Black
10
185.945
20
-99.2766
11
185.953
21
-99.2887
0
LINE
8
Black
10
185.953
20
-99.2887
11
185.964
21
-99.3309
0
LINE
8
Black
10
185.964
20
-99.3309
11
185.994
21
-99.4128
0
LINE
8
Black
10
185.994
20
-99.4128
11
185.994
21
-99.4422
0
LINE
8
Black
10
185.994
20
-99.4422
11
185.998
21
-99.4564
0
LINE
8
Black
10
185.998
20
-99.4564
11
185.994
21
-99.5
0
LINE
8
Black
10
185.994
20
-99.5
11
185.994
21
-99.5872
0
LINE
8
Black
10
185.994
20
-99.5872
11
185.984
21
-99.6147
0
LINE
8
Black
10
185.984
20
-99.6147
11
185.983
21
-99.6294
0
LINE
8
Black
10
185.983
20
-99.6294
11
185.964
21
-99.6691
0
LINE
8
Black
10
185.964
20
-99.6691
11
185.935
21
-99.751
0
LINE
8
Black
10
185.935
20
-99.751
11
185.916
21
-99.7734
0
LINE
8
Black
10
185.916
20
-99.7734
11
185.91
21
-99.7868
0
LINE
8
Black
10
185.91
20
-99.7868
11
185.879
21
-99.8177
0
LINE
8
Black
10
185.879
20
-99.8177
11
185.823
21
-99.8845
0
LINE
8
Black
10
185.823
20
-99.8845
11
185.797
21
-99.8992
0
LINE
8
Black
10
185.797
20
-99.8992
11
185.787
21
-99.9096
0
LINE
8
Black
10
185.787
20
-99.9096
11
185.747
21
-99.9281
0
LINE
8
Black
10
185.747
20
-99.9281
11
185.672
21
-99.9716
0
LINE
8
Black
10
185.672
20
-99.9716
11
185.643
21
-99.9767
0
LINE
8
Black
10
185.643
20
-99.9767
11
185.629
21
-99.983
0
LINE
8
Black
10
185.629
20
-99.983
11
185.586
21
-99.9868
0
LINE
8
Black
10
185.586
20
-99.9868
11
185.5
21
-100.002
0
LINE
8
Black
10
185.5
20
-100.002
11
185.471
21
-99.9968
0
LINE
8
Black
10
185.471
20
-99.9968
11
185.456
21
-99.9981
0
LINE
8
Black
10
185.456
20
-99.9981
11
185.414
21
-99.9868
0
LINE
8
Black
10
185.414
20
-99.9868
11
185.328
21
-99.9716
0
LINE
8
Black
10
185.328
20
-99.9716
11
185.303
21
-99.957
0
LINE
8
Black
10
185.303
20
-99.957
11
185.289
21
-99.9532
0
LINE
8
Black
10
185.289
20
-99.9532
11
185.253
21
-99.9281
0
LINE
8
Black
10
185.253
20
-99.9281
11
185.177
21
-99.8845
0
LINE
8
Black
10
185.177
20
-99.8845
11
185.159
21
-99.862
0
LINE
8
Black
10
185.159
20
-99.862
11
185.146
21
-99.8536
0
LINE
8
Black
10
185.146
20
-99.8536
11
183.293
21
-98
0
LINE
8
Black
10
183.293
20
-98
11
146
21
-98
0
LINE
8
Black
10
146
20
-98
11
145.978
21
-97.9962
0
LINE
8
Black
10
145.978
20
-97.9962
11
145.956
21
-97.9981
0
LINE
8
Black
10
145.956
20
-97.9981
11
145.893
21
-97.9812
0
LINE
8
Black
10
145.893
20
-97.9812
11
145.829
21
-97.9698
0
LINE
8
Black
10
145.829
20
-97.9698
11
145.81
21
-97.9588
0
LINE
8
Black
10
145.81
20
-97.9588
11
145.789
21
-97.9532
0
LINE
8
Black
10
145.789
20
-97.9532
11
145.735
21
-97.9157
0
LINE
8
Black
10
145.735
20
-97.9157
11
145.679
21
-97.883
0
LINE
8
Black
10
145.679
20
-97.883
11
145.664
21
-97.8662
0
LINE
8
Black
10
145.664
20
-97.8662
11
145.646
21
-97.8536
0
LINE
8
Black
10
145.646
20
-97.8536
11
145.177
21
-97.3845
0
LINE
8
Black
10
145.177
20
-97.3845
11
145.177
21
-97.3845
0
LINE
8
Black
10
145.177
20
-97.3845
11
145.177
21
-97.3845
0
LINE
8
Black
10
145.177
20
-97.3845
11
145.146
21
-97.3536
0
LINE
8
Black
10
145.146
20
-97.3536
11
145.134
21
-97.3355
0
LINE
8
Black
10
145.134
20
-97.3355
11
145.117
21
-97.3214
0
LINE
8
Black
10
145.117
20
-97.3214
11
145.101
21
-97.2929
0
LINE
8
Black
10
145.101
20
-97.2929
11
145.065
21
-97.251
0
LINE
8
Black
10
145.065
20
-97.251
11
145.055
21
-97.2234
0
LINE
8
Black
10
145.055
20
-97.2234
11
145.047
21
-97.2113
0
LINE
8
Black
10
145.047
20
-97.2113
11
145.041
21
-97.1901
0
LINE
8
Black
10
145.041
20
-97.1901
11
145.03
21
-97.171
0
LINE
8
Black
10
145.03
20
-97.171
11
145.024
21
-97.1386
0
LINE
8
Black
10
145.024
20
-97.1386
11
145.006
21
-97.0872
0
LINE
8
Black
10
145.006
20
-97.0872
11
145.006
21
-97.0578
0
LINE
8
Black
10
145.006
20
-97.0578
11
145.002
21
-97.0436
0
LINE
8
Black
10
145.002
20
-97.0436
11
145.004
21
-97.0217
0
LINE
8
Black
10
145.004
20
-97.0217
11
145
21
-97
0
LINE
8
Black
10
145
20
-97
11
145
21
-95.476
0
LINE
8
Black
10
145
20
-95.476
11
144.889
21
-95.4121
0
LINE
8
Black
10
144.889
20
-95.4121
11
144.688
21
-95.1717
0
LINE
8
Black
10
144.688
20
-95.1717
11
144.58
21
-94.8769
0
LINE
8
Black
10
144.58
20
-94.8769
11
144.58
21
-94.5631
0
LINE
8
Black
10
144.58
20
-94.5631
11
144.688
21
-94.2683
0
LINE
8
Black
10
144.688
20
-94.2683
11
144.889
21
-94.0279
0
LINE
8
Black
10
144.889
20
-94.0279
11
145.161
21
-93.871
0
LINE
8
Black
10
145.161
20
-93.871
11
145.47
21
-93.8166
0
LINE
8
Black
10
145.47
20
-93.8166
11
145.779
21
-93.871
0
LINE
8
Black
10
136.705
20
-93.5859
11
136.722
21
-93.5874
0
LINE
8
Black
10
136.722
20
-93.5874
11
136.727
21
-93.5897
0
LINE
8
Black
10
136.727
20
-93.5897
11
136.732
21
-93.5907
0
LINE
8
Black
10
136.732
20
-93.5907
11
136.747
21
-93.599
0
LINE
8
Black
10
136.747
20
-93.599
11
136.762
21
-93.606
0
LINE
8
Black
10
136.762
20
-93.606
11
136.766
21
-93.6099
0
LINE
8
Black
10
136.766
20
-93.6099
11
136.771
21
-93.6127
0
LINE
8
Black
10
136.771
20
-93.6127
11
136.781
21
-93.6255
0
LINE
8
Black
10
136.781
20
-93.6255
11
136.793
21
-93.6372
0
LINE
8
Black
10
136.793
20
-93.6372
11
136.795
21
-93.6423
0
LINE
8
Black
10
136.795
20
-93.6423
11
136.799
21
-93.6465
0
LINE
8
Black
10
136.799
20
-93.6465
11
136.805
21
-93.6621
0
LINE
8
Black
10
136.805
20
-93.6621
11
136.812
21
-93.6772
0
LINE
8
Black
10
136.812
20
-93.6772
11
136.812
21
-93.6827
0
LINE
8
Black
10
136.812
20
-93.6827
11
136.814
21
-93.6879
0
LINE
8
Black
10
136.814
20
-93.6879
11
136.814
21
-93.7046
0
LINE
8
Black
10
136.814
20
-93.7046
11
136.816
21
-93.7212
0
LINE
8
Black
10
136.816
20
-93.7212
11
136.814
21
-93.7265
0
LINE
8
Black
10
136.814
20
-93.7265
11
136.814
21
-93.7321
0
LINE
8
Black
10
136.814
20
-93.7321
11
136.808
21
-93.7477
0
LINE
8
Black
10
136.808
20
-93.7477
11
136.804
21
-93.7638
0
LINE
8
Black
10
136.804
20
-93.7638
11
136.801
21
-93.7683
0
LINE
8
Black
10
136.801
20
-93.7683
11
136.799
21
-93.7735
0
LINE
8
Black
10
136.799
20
-93.7735
11
136.788
21
-93.7863
0
LINE
8
Black
10
136.788
20
-93.7863
11
136.779
21
-93.7999
0
LINE
8
Black
10
136.779
20
-93.7999
11
136.657
21
-93.9214
0
LINE
8
Black
10
136.657
20
-93.9214
11
136.442
21
-94.4387
0
LINE
8
Black
10
136.442
20
-94.4387
11
136.442
21
-94.9988
0
LINE
8
Black
10
136.442
20
-94.9988
11
136.656
21
-95.5165
0
LINE
8
Black
10
136.656
20
-95.5165
11
137.051
21
-95.9129
0
LINE
8
Black
10
137.051
20
-95.9129
11
137.569
21
-96.1278
0
LINE
8
Black
10
137.569
20
-96.1278
11
138.129
21
-96.1282
0
LINE
8
Black
10
138.129
20
-96.1282
11
138.647
21
-95.9143
0
LINE
8
Black
10
138.647
20
-95.9143
11
138.851
21
-95.7103
0
LINE
8
Black
10
138.851
20
-95.7103
11
139.044
21
-95.5171
0
LINE
8
Black
10
139.044
20
-95.5171
11
139.046
21
-95.5154
0
LINE
8
Black
10
139.046
20
-95.5154
11
139.048
21
-95.509
0
LINE
8
Black
10
139.048
20
-95.509
11
139.057
21
-95.4969
0
LINE
8
Black
10
139.057
20
-95.4969
11
139.066
21
-95.4839
0
LINE
8
Black
10
139.066
20
-95.4839
11
139.071
21
-95.4798
0
LINE
8
Black
10
139.071
20
-95.4798
11
139.075
21
-95.4745
0
LINE
8
Black
10
139.075
20
-95.4745
11
139.088
21
-95.4665
0
LINE
8
Black
10
139.088
20
-95.4665
11
139.101
21
-95.4571
0
LINE
8
Black
10
139.101
20
-95.4571
11
139.107
21
-95.4551
0
LINE
8
Black
10
139.107
20
-95.4551
11
139.113
21
-95.4515
0
LINE
8
Black
10
139.113
20
-95.4515
11
139.128
21
-95.4485
0
LINE
8
Black
10
139.128
20
-95.4485
11
139.143
21
-95.4439
0
LINE
8
Black
10
139.143
20
-95.4439
11
139.15
21
-95.4442
0
LINE
8
Black
10
139.15
20
-95.4442
11
139.156
21
-95.4428
0
LINE
8
Black
10
139.156
20
-95.4428
11
139.171
21
-95.4452
0
LINE
8
Black
10
139.171
20
-95.4452
11
139.187
21
-95.4458
0
LINE
8
Black
10
139.187
20
-95.4458
11
139.193
21
-95.4484
0
LINE
8
Black
10
139.193
20
-95.4484
11
139.2
21
-95.4495
0
LINE
8
Black
10
139.2
20
-95.4495
11
139.276
21
-95.4751
0
LINE
8
Black
10
139.276
20
-95.4751
11
139.6
21
-95.1508
0
LINE
8
Black
10
139.6
20
-95.1508
11
139.5
21
-94.8769
0
LINE
8
Black
10
139.5
20
-94.8769
11
139.5
21
-94.5631
0
LINE
8
Black
10
139.5
20
-94.5631
11
139.608
21
-94.2683
0
LINE
8
Black
10
139.608
20
-94.2683
11
139.809
21
-94.0279
0
LINE
8
Black
10
139.809
20
-94.0279
11
140.081
21
-93.871
0
LINE
8
Black
10
140.081
20
-93.871
11
140.39
21
-93.8166
0
LINE
8
Black
10
140.39
20
-93.8166
11
140.699
21
-93.871
0
LINE
8
Black
10
140.699
20
-93.871
11
140.971
21
-94.0279
0
LINE
8
Black
10
140.971
20
-94.0279
11
141.172
21
-94.2683
0
LINE
8
Black
10
141.172
20
-94.2683
11
141.28
21
-94.5631
0
LINE
8
Black
10
141.28
20
-94.5631
11
141.28
21
-94.8769
0
LINE
8
Black
10
141.28
20
-94.8769
11
141.18
21
-95.1508
0
LINE
8
Black
10
141.18
20
-95.1508
11
141.504
21
-95.4751
0
LINE
8
Black
10
141.504
20
-95.4751
11
141.58
21
-95.4496
0
LINE
8
Black
10
141.58
20
-95.4496
11
141.587
21
-95.4486
0
LINE
8
Black
10
141.587
20
-95.4486
11
141.593
21
-95.446
0
LINE
8
Black
10
141.593
20
-95.446
11
141.608
21
-95.4453
0
LINE
8
Black
10
141.608
20
-95.4453
11
141.623
21
-95.443
0
LINE
8
Black
10
141.623
20
-95.443
11
141.63
21
-95.4444
0
LINE
8
Black
10
141.63
20
-95.4444
11
141.637
21
-95.4441
0
LINE
8
Black
10
141.637
20
-95.4441
11
141.652
21
-95.4487
0
LINE
8
Black
10
141.652
20
-95.4487
11
141.667
21
-95.4517
0
LINE
8
Black
10
141.667
20
-95.4517
11
141.673
21
-95.4553
0
LINE
8
Black
10
141.673
20
-95.4553
11
141.679
21
-95.4574
0
LINE
8
Black
10
141.679
20
-95.4574
11
141.691
21
-95.4667
0
LINE
8
Black
10
141.691
20
-95.4667
11
141.704
21
-95.4747
0
LINE
8
Black
10
141.704
20
-95.4747
11
141.709
21
-95.48
0
LINE
8
Black
10
141.709
20
-95.48
11
141.714
21
-95.4842
0
LINE
8
Black
10
141.714
20
-95.4842
11
141.722
21
-95.4972
0
LINE
8
Black
10
141.722
20
-95.4972
11
141.732
21
-95.5091
0
LINE
8
Black
10
141.732
20
-95.5091
11
141.734
21
-95.5145
0
LINE
8
Black
10
141.734
20
-95.5145
11
142.131
21
-95.9129
0
LINE
8
Black
10
142.131
20
-95.9129
11
142.649
21
-96.1278
0
LINE
8
Black
10
142.649
20
-96.1278
11
143.209
21
-96.1282
0
LINE
8
Black
10
143.209
20
-96.1282
11
143.727
21
-95.9143
0
LINE
8
Black
10
143.727
20
-95.9143
11
144.111
21
-95.5309
0
LINE
8
Black
10
144.111
20
-95.5309
11
144.12
21
-95.5246
0
LINE
8
Black
10
144.12
20
-95.5246
11
144.128
21
-95.5167
0
LINE
8
Black
10
144.128
20
-95.5167
11
144.138
21
-95.512
0
LINE
8
Black
10
144.138
20
-95.512
11
144.147
21
-95.5057
0
LINE
8
Black
10
144.147
20
-95.5057
11
144.157
21
-95.5028
0
LINE
8
Black
10
144.157
20
-95.5028
11
144.168
21
-95.4981
0
LINE
8
Black
10
144.168
20
-95.4981
11
144.179
21
-95.4972
0
LINE
8
Black
10
144.179
20
-95.4972
11
144.189
21
-95.4943
0
LINE
8
Black
10
144.189
20
-95.4943
11
144.2
21
-95.4953
0
LINE
8
Black
10
144.2
20
-95.4953
11
144.212
21
-95.4943
0
LINE
8
Black
10
144.212
20
-95.4943
11
144.222
21
-95.4972
0
LINE
8
Black
10
144.222
20
-95.4972
11
144.233
21
-95.4982
0
LINE
8
Black
10
144.233
20
-95.4982
11
144.243
21
-95.5029
0
LINE
8
Black
10
144.243
20
-95.5029
11
144.254
21
-95.5058
0
LINE
8
Black
10
144.254
20
-95.5058
11
144.263
21
-95.5121
0
LINE
8
Black
10
144.263
20
-95.5121
11
144.273
21
-95.5168
0
LINE
8
Black
10
144.273
20
-95.5168
11
144.281
21
-95.5247
0
LINE
8
Black
10
144.281
20
-95.5247
11
144.29
21
-95.5311
0
LINE
8
Black
10
144.29
20
-95.5311
11
144.455
21
-95.6961
0
LINE
8
Black
10
144.455
20
-95.6961
11
144.458
21
-95.7006
0
LINE
8
Black
10
144.458
20
-95.7006
11
144.462
21
-95.7041
0
LINE
8
Black
10
144.462
20
-95.7041
11
144.471
21
-95.7186
0
LINE
8
Black
10
144.471
20
-95.7186
11
144.48
21
-95.7322
0
LINE
8
Black
10
144.48
20
-95.7322
11
144.482
21
-95.7376
0
LINE
8
Black
10
144.482
20
-95.7376
11
144.484
21
-95.7423
0
LINE
8
Black
10
144.484
20
-95.7423
11
144.487
21
-95.7587
0
LINE
8
Black
10
144.487
20
-95.7587
11
144.492
21
-95.7748
0
LINE
8
Black
10
144.492
20
-95.7748
11
144.491
21
-95.7803
0
LINE
8
Black
10
144.491
20
-95.7803
11
144.492
21
-95.7858
0
LINE
8
Black
10
144.492
20
-95.7858
11
144.492
21
-96.999
0
LINE
8
Black
10
144.492
20
-96.999
11
144.492
21
-96.9991
0
LINE
8
Black
10
144.492
20
-96.9991
11
144.492
21
-96.9991
0
LINE
8
Black
10
144.492
20
-96.9991
11
144.492
21
-97.1996
0
LINE
8
Black
10
144.492
20
-97.1996
11
144.645
21
-97.5702
0
LINE
8
Black
10
144.645
20
-97.5702
11
144.942
21
-97.8681
0
LINE
8
Black
10
144.942
20
-97.8681
11
144.943
21
-97.8682
0
LINE
8
Black
10
144.943
20
-97.8682
11
144.943
21
-97.8687
0
LINE
8
Black
10
144.943
20
-97.8687
11
144.946
21
-97.8714
0
LINE
8
Black
10
144.946
20
-97.8714
11
144.947
21
-97.872
0
LINE
8
Black
10
144.947
20
-97.872
11
145.1
21
-98.0252
0
LINE
8
Black
10
145.1
20
-98.0252
11
145.109
21
-98.0388
0
LINE
8
Black
10
145.109
20
-98.0388
11
145.12
21
-98.0515
0
LINE
8
Black
10
145.12
20
-98.0515
11
145.122
21
-98.0568
0
LINE
8
Black
10
145.122
20
-98.0568
11
145.125
21
-98.0613
0
LINE
8
Black
10
145.125
20
-98.0613
11
145.129
21
-98.0774
0
LINE
8
Black
10
145.129
20
-98.0774
11
145.135
21
-98.0929
0
LINE
8
Black
10
145.135
20
-98.0929
11
145.135
21
-98.0985
0
LINE
8
Black
10
145.135
20
-98.0985
11
145.136
21
-98.1039
0
LINE
8
Black
10
145.136
20
-98.1039
11
145.135
21
-98.1205
0
LINE
8
Black
10
145.135
20
-98.1205
11
145.135
21
-98.1371
0
LINE
8
Black
10
145.135
20
-98.1371
11
145.133
21
-98.1423
0
LINE
8
Black
10
145.133
20
-98.1423
11
145.133
21
-98.1479
0
LINE
8
Black
10
145.133
20
-98.1479
11
145.126
21
-98.1629
0
LINE
8
Black
10
145.126
20
-98.1629
11
145.12
21
-98.1785
0
LINE
8
Black
10
145.12
20
-98.1785
11
145.116
21
-98.1828
0
LINE
8
Black
10
145.116
20
-98.1828
11
145.114
21
-98.1878
0
LINE
8
Black
10
145.114
20
-98.1878
11
145.102
21
-98.1996
0
LINE
8
Black
10
145.102
20
-98.1996
11
145.092
21
-98.2123
0
LINE
8
Black
10
145.092
20
-98.2123
11
145.087
21
-98.2151
0
LINE
8
Black
10
145.087
20
-98.2151
11
145.083
21
-98.219
0
LINE
8
Black
10
145.083
20
-98.219
11
145.068
21
-98.226
0
LINE
8
Black
10
145.068
20
-98.226
11
145.053
21
-98.2343
0
LINE
8
Black
10
145.053
20
-98.2343
11
145.048
21
-98.2353
0
LINE
8
Black
10
145.048
20
-98.2353
11
145.043
21
-98.2377
0
LINE
8
Black
10
145.043
20
-98.2377
11
145.026
21
-98.2391
0
LINE
8
Black
10
145.026
20
-98.2391
11
145.01
21
-98.242
0
LINE
8
Black
10
145.01
20
-98.242
11
127.513
21
-98.242
0
LINE
8
Black
10
127.513
20
-98.242
11
127.242
21
-98.2957
0
LINE
8
Black
10
127.242
20
-98.2957
11
127.242
21
-98.2957
0
LINE
8
Black
10
127.242
20
-98.2957
11
127.211
21
-98.302
0
LINE
8
Black
10
127.211
20
-98.302
11
126.955
21
-98.4729
0
LINE
8
Black
10
126.955
20
-98.4729
11
125.575
21
-99.8532
0
LINE
8
Black
10
125.575
20
-99.8532
11
125.561
21
-99.8627
0
LINE
8
Black
10
125.561
20
-99.8627
11
125.548
21
-99.8734
0
LINE
8
Black
10
125.548
20
-99.8734
11
125.543
21
-99.8753
0
LINE
8
Black
10
125.543
20
-99.8753
11
125.539
21
-99.8785
0
LINE
8
Black
10
125.539
20
-99.8785
11
125.523
21
-99.8828
0
LINE
8
Black
10
125.523
20
-99.8828
11
125.507
21
-99.8885
0
LINE
8
Black
10
125.507
20
-99.8885
11
125.501
21
-99.8885
0
LINE
8
Black
10
125.501
20
-99.8885
11
125.496
21
-99.8899
0
LINE
8
Black
10
125.496
20
-99.8899
11
125.48
21
-99.8885
0
LINE
8
Black
10
125.48
20
-99.8885
11
125.463
21
-99.8885
0
LINE
8
Black
10
125.463
20
-99.8885
11
125.458
21
-99.8866
0
LINE
8
Black
10
125.458
20
-99.8866
11
125.452
21
-99.8861
0
LINE
8
Black
10
125.452
20
-99.8861
11
125.437
21
-99.8791
0
LINE
8
Black
10
125.437
20
-99.8791
11
125.421
21
-99.8734
0
LINE
8
Black
10
125.421
20
-99.8734
11
125.417
21
-99.8698
0
LINE
8
Black
10
125.417
20
-99.8698
11
125.412
21
-99.8675
0
LINE
8
Black
10
125.412
20
-99.8675
11
125.4
21
-99.8557
0
LINE
8
Black
10
125.4
20
-99.8557
11
125.388
21
-99.8451
0
LINE
8
Black
10
125.388
20
-99.8451
11
125.385
21
-99.8402
0
LINE
8
Black
10
125.385
20
-99.8402
11
125.381
21
-99.8363
0
LINE
8
Black
10
125.381
20
-99.8363
11
125.374
21
-99.8212
0
LINE
8
Black
10
125.374
20
-99.8212
11
125.366
21
-99.8069
0
LINE
8
Black
10
125.366
20
-99.8069
11
125.365
21
-99.8014
0
LINE
8
Black
10
125.365
20
-99.8014
11
125.362
21
-99.7963
0
LINE
8
Black
10
125.362
20
-99.7963
11
125.361
21
-99.7798
0
LINE
8
Black
10
125.361
20
-99.7798
11
125.358
21
-99.7634
0
LINE
8
Black
10
125.358
20
-99.7634
11
125.358
21
-96.0579
0
LINE
8
Black
10
125.358
20
-96.0579
11
125.359
21
-96.0499
0
LINE
8
Black
10
125.359
20
-96.0499
11
125.359
21
-96.0419
0
LINE
8
Black
10
125.359
20
-96.0419
11
125.363
21
-96.0284
0
LINE
8
Black
10
125.363
20
-96.0284
11
125.366
21
-96.0144
0
LINE
8
Black
10
125.366
20
-96.0144
11
125.37
21
-96.0074
0
LINE
8
Black
10
125.37
20
-96.0074
11
125.372
21
-95.9997
0
LINE
8
Black
10
125.372
20
-95.9997
11
125.381
21
-95.9885
0
LINE
8
Black
10
125.381
20
-95.9885
11
125.388
21
-95.9762
0
LINE
8
Black
10
125.388
20
-95.9762
11
125.394
21
-95.971
0
LINE
8
Black
10
125.394
20
-95.971
11
125.399
21
-95.9646
0
LINE
8
Black
10
125.399
20
-95.9646
11
125.411
21
-95.957
0
LINE
8
Black
10
125.411
20
-95.957
11
125.421
21
-95.9479
0
LINE
8
Black
10
125.421
20
-95.9479
11
125.429
21
-95.9451
0
LINE
8
Black
10
125.429
20
-95.9451
11
125.436
21
-95.9408
0
LINE
8
Black
10
125.436
20
-95.9408
11
125.45
21
-95.9376
0
LINE
8
Black
10
125.45
20
-95.9376
11
125.463
21
-95.9328
0
LINE
8
Black
10
125.463
20
-95.9328
11
125.471
21
-95.9328
0
LINE
8
Black
10
125.471
20
-95.9328
11
125.479
21
-95.931
0
LINE
8
Black
10
125.479
20
-95.931
11
125.493
21
-95.9328
0
LINE
8
Black
10
125.493
20
-95.9328
11
125.507
21
-95.9328
0
LINE
8
Black
10
125.507
20
-95.9328
11
125.515
21
-95.9356
0
LINE
8
Black
10
125.515
20
-95.9356
11
125.523
21
-95.9366
0
LINE
8
Black
10
125.523
20
-95.9366
11
125.535
21
-95.943
0
LINE
8
Black
10
125.535
20
-95.943
11
125.548
21
-95.9479
0
LINE
8
Black
10
125.548
20
-95.9479
11
125.555
21
-95.9531
0
LINE
8
Black
10
125.555
20
-95.9531
11
125.562
21
-95.9568
0
LINE
8
Black
10
125.562
20
-95.9568
11
125.571
21
-95.9671
0
LINE
8
Black
10
125.571
20
-95.9671
11
125.582
21
-95.9762
0
LINE
8
Black
10
125.582
20
-95.9762
11
125.586
21
-95.9832
0
LINE
8
Black
10
125.586
20
-95.9832
11
125.592
21
-95.9891
0
LINE
8
Black
10
125.592
20
-95.9891
11
125.619
21
-96.0311
0
LINE
8
Black
10
125.619
20
-96.0311
11
125.789
21
-96.1471
0
LINE
8
Black
10
125.789
20
-96.1471
11
126.003
21
-96.1904
0
LINE
8
Black
10
126.003
20
-96.1904
11
127.778
21
-96.1904
0
LINE
8
Black
10
127.778
20
-96.1904
11
127.977
21
-96.1529
0
LINE
8
Black
10
127.977
20
-96.1529
11
128.151
21
-96.0412
0
LINE
8
Black
10
128.151
20
-96.0412
11
128.267
21
-95.8715
0
LINE
8
Black
10
128.267
20
-95.8715
11
128.31
21
-95.6573
0
LINE
8
Black
10
128.31
20
-95.6573
11
128.31
21
-93.8818
0
LINE
8
Black
10
128.31
20
-93.8818
11
128.283
21
-93.7335
0
LINE
8
Black
10
128.283
20
-93.7335
11
128.283
21
-93.7327
0
LINE
8
Black
10
128.283
20
-93.7327
11
128.282
21
-93.7321
0
LINE
8
Black
10
128.282
20
-93.7321
11
128.282
21
-93.7107
0
LINE
8
Black
10
128.282
20
-93.7107
11
128.282
21
-93.6894
0
LINE
8
Black
10
128.282
20
-93.6894
11
128.282
21
-93.6887
0
LINE
8
Black
10
128.282
20
-93.6887
11
128.282
21
-93.6879
0
LINE
8
Black
10
128.282
20
-93.6879
11
128.29
21
-93.6679
0
LINE
8
Black
10
128.29
20
-93.6679
11
128.297
21
-93.6478
0
LINE
8
Black
10
128.297
20
-93.6478
11
128.297
21
-93.6472
0
LINE
8
Black
10
128.297
20
-93.6472
11
128.297
21
-93.6465
0
LINE
8
Black
10
128.297
20
-93.6465
11
128.311
21
-93.6302
0
LINE
8
Black
10
128.311
20
-93.6302
11
128.325
21
-93.6137
0
LINE
8
Black
10
128.325
20
-93.6137
11
128.325
21
-93.6133
0
LINE
8
Black
10
128.325
20
-93.6133
11
128.326
21
-93.6127
0
LINE
8
Black
10
128.326
20
-93.6127
11
128.344
21
-93.602
0
LINE
8
Black
10
128.344
20
-93.602
11
128.363
21
-93.5912
0
LINE
8
Black
10
128.363
20
-93.5912
11
128.363
21
-93.591
0
LINE
8
Black
10
128.363
20
-93.591
11
128.364
21
-93.5907
0
LINE
8
Black
10
128.364
20
-93.5907
11
128.385
21
-93.587
0
LINE
8
Black
10
128.385
20
-93.587
11
128.406
21
-93.583
0
LINE
8
Black
10
128.406
20
-93.583
11
128.407
21
-93.5831
0
LINE
8
Black
10
128.407
20
-93.5831
11
128.407
21
-93.583
0
LINE
8
Black
10
128.407
20
-93.583
11
136.689
21
-93.583
0
LINE
8
Black
10
136.689
20
-93.583
11
136.705
21
-93.5859
0
LINE
8
Black
10
139.635
20
-95.8343
11
139.677
21
-95.9583
0
LINE
8
Black
10
139.677
20
-95.9583
11
140.169
21
-96.1385
0
LINE
8
Black
10
140.169
20
-96.1385
11
140.732
21
-96.1149
0
LINE
8
Black
10
140.732
20
-96.1149
11
141.102
21
-95.9614
0
LINE
8
Black
10
141.102
20
-95.9614
11
141.145
21
-95.8343
0
LINE
8
Black
10
141.145
20
-95.8343
11
140.814
21
-95.5028
0
LINE
8
Black
10
140.814
20
-95.5028
11
140.699
21
-95.569
0
LINE
8
Black
10
140.699
20
-95.569
11
140.39
21
-95.6234
0
LINE
8
Black
10
140.39
20
-95.6234
11
140.081
21
-95.569
0
LINE
8
Black
10
140.081
20
-95.569
11
139.966
21
-95.5028
0
LINE
8
Black
10
139.966
20
-95.5028
11
139.635
21
-95.8343
0
LINE
8
Black
10
119.579
20
-93.921
11
119.851
21
-94.0779
0
LINE
8
Black
10
119.851
20
-94.0779
11
120.052
21
-94.3183
0
LINE
8
Black
10
120.052
20
-94.3183
11
120.16
21
-94.6131
0
LINE
8
Black
10
120.16
20
-94.6131
11
120.16
21
-94.9269
0
LINE
8
Black
10
120.16
20
-94.9269
11
120.052
21
-95.2217
0
LINE
8
Black
10
120.052
20
-95.2217
11
119.851
21
-95.4621
0
LINE
8
Black
10
119.851
20
-95.4621
11
119.77
21
-95.5087
0
LINE
8
Black
10
119.77
20
-95.5087
11
119.77
21
-95.5629
0
LINE
8
Black
10
119.77
20
-95.5629
11
122.323
21
-98.1155
0
LINE
8
Black
10
122.323
20
-98.1155
11
122.323
21
-98.1155
0
LINE
8
Black
10
122.323
20
-98.1155
11
122.323
21
-98.1155
0
LINE
8
Black
10
122.323
20
-98.1155
11
122.354
21
-98.1464
0
LINE
8
Black
10
122.354
20
-98.1464
11
122.379
21
-98.1823
0
LINE
8
Black
10
122.379
20
-98.1823
11
122.435
21
-98.249
0
LINE
8
Black
10
122.435
20
-98.249
11
122.445
21
-98.2766
0
LINE
8
Black
10
122.445
20
-98.2766
11
122.453
21
-98.2887
0
LINE
8
Black
10
122.453
20
-98.2887
11
122.464
21
-98.3309
0
LINE
8
Black
10
122.464
20
-98.3309
11
122.494
21
-98.4128
0
LINE
8
Black
10
122.494
20
-98.4128
11
122.494
21
-98.4422
0
LINE
8
Black
10
122.494
20
-98.4422
11
122.498
21
-98.4564
0
LINE
8
Black
10
122.498
20
-98.4564
11
122.494
21
-98.5
0
LINE
8
Black
10
122.494
20
-98.5
11
122.494
21
-98.5872
0
LINE
8
Black
10
122.494
20
-98.5872
11
122.484
21
-98.6147
0
LINE
8
Black
10
122.484
20
-98.6147
11
122.483
21
-98.6294
0
LINE
8
Black
10
122.483
20
-98.6294
11
122.464
21
-98.6691
0
LINE
8
Black
10
122.464
20
-98.6691
11
122.435
21
-98.751
0
LINE
8
Black
10
122.435
20
-98.751
11
122.416
21
-98.7734
0
LINE
8
Black
10
122.416
20
-98.7734
11
122.41
21
-98.7868
0
LINE
8
Black
10
122.41
20
-98.7868
11
122.379
21
-98.8177
0
LINE
8
Black
10
122.379
20
-98.8177
11
122.323
21
-98.8845
0
LINE
8
Black
10
122.323
20
-98.8845
11
122.297
21
-98.8992
0
LINE
8
Black
10
122.297
20
-98.8992
11
122.287
21
-98.9096
0
LINE
8
Black
10
122.287
20
-98.9096
11
122.247
21
-98.9281
0
LINE
8
Black
10
122.247
20
-98.9281
11
122.172
21
-98.9716
0
LINE
8
Black
10
122.172
20
-98.9716
11
122.143
21
-98.9767
0
LINE
8
Black
10
122.143
20
-98.9767
11
122.129
21
-98.983
0
LINE
8
Black
10
122.129
20
-98.983
11
122.086
21
-98.9868
0
LINE
8
Black
10
122.086
20
-98.9868
11
122
21
-99.0019
0
LINE
8
Black
10
122
20
-99.0019
11
121.971
21
-98.9968
0
LINE
8
Black
10
121.971
20
-98.9968
11
121.956
21
-98.9981
0
LINE
8
Black
10
121.956
20
-98.9981
11
121.914
21
-98.9868
0
LINE
8
Black
10
121.914
20
-98.9868
11
121.828
21
-98.9716
0
LINE
8
Black
10
121.828
20
-98.9716
11
121.803
21
-98.957
0
LINE
8
Black
10
121.803
20
-98.957
11
121.789
21
-98.9532
0
LINE
8
Black
10
121.789
20
-98.9532
11
121.753
21
-98.9281
0
LINE
8
Black
10
121.753
20
-98.9281
11
121.677
21
-98.8845
0
LINE
8
Black
10
121.677
20
-98.8845
11
121.659
21
-98.862
0
LINE
8
Black
10
121.659
20
-98.862
11
121.646
21
-98.8536
0
LINE
8
Black
10
121.646
20
-98.8536
11
118.916
21
-96.1236
0
LINE
8
Black
10
118.916
20
-96.1236
11
118.904
21
-96.1055
0
LINE
8
Black
10
118.904
20
-96.1055
11
118.887
21
-96.0914
0
LINE
8
Black
10
118.887
20
-96.0914
11
118.854
21
-96.0348
0
LINE
8
Black
10
118.854
20
-96.0348
11
118.817
21
-95.9813
0
LINE
8
Black
10
118.817
20
-95.9813
11
118.811
21
-95.9601
0
LINE
8
Black
10
118.811
20
-95.9601
11
118.8
21
-95.941
0
LINE
8
Black
10
118.8
20
-95.941
11
118.789
21
-95.8767
0
LINE
8
Black
10
118.789
20
-95.8767
11
118.772
21
-95.8136
0
LINE
8
Black
10
118.772
20
-95.8136
11
118.774
21
-95.7917
0
LINE
8
Black
10
118.774
20
-95.7917
11
118.77
21
-95.77
0
LINE
8
Black
10
118.77
20
-95.77
11
118.77
21
-95.5087
0
LINE
8
Black
10
118.77
20
-95.5087
11
118.689
21
-95.4621
0
LINE
8
Black
10
118.689
20
-95.4621
11
118.488
21
-95.2217
0
LINE
8
Black
10
118.488
20
-95.2217
11
118.414
21
-95.02
0
LINE
8
Black
10
118.414
20
-95.02
11
115.494
21
-95.02
0
LINE
8
Black
10
115.494
20
-95.02
11
115.494
21
-95.0872
0
LINE
8
Black
10
115.494
20
-95.0872
11
115.435
21
-95.251
0
LINE
8
Black
10
115.435
20
-95.251
11
115.323
21
-95.3845
0
LINE
8
Black
10
115.323
20
-95.3845
11
115.172
21
-95.4716
0
LINE
8
Black
10
115.172
20
-95.4716
11
115
21
-95.5019
0
LINE
8
Black
10
115
20
-95.5019
11
114.828
21
-95.4716
0
LINE
8
Black
10
114.828
20
-95.4716
11
114.677
21
-95.3845
0
LINE
8
Black
10
114.677
20
-95.3845
11
114.565
21
-95.251
0
LINE
8
Black
10
114.565
20
-95.251
11
114.506
21
-95.0872
0
LINE
8
Black
10
114.506
20
-95.0872
11
114.506
21
-94.9128
0
LINE
8
Black
10
114.506
20
-94.9128
11
114.565
21
-94.749
0
LINE
8
Black
10
114.565
20
-94.749
11
114.677
21
-94.6155
0
LINE
8
Black
10
114.677
20
-94.6155
11
114.828
21
-94.5284
0
LINE
8
Black
10
114.828
20
-94.5284
11
115
21
-94.4981
0
LINE
8
Black
10
115
20
-94.4981
11
115.172
21
-94.5284
0
LINE
8
Black
10
115.172
20
-94.5284
11
115.174
21
-94.5298
0
LINE
8
Black
10
115.174
20
-94.5298
11
115.177
21
-94.5294
0
LINE
8
Black
10
115.177
20
-94.5294
11
115.208
21
-94.521
0
LINE
8
Black
10
115.208
20
-94.521
11
115.219
21
-94.5219
0
LINE
8
Black
10
115.219
20
-94.5219
11
115.23
21
-94.52
0
LINE
8
Black
10
115.23
20
-94.52
11
118.414
21
-94.52
0
LINE
8
Black
10
118.414
20
-94.52
11
118.488
21
-94.3183
0
LINE
8
Black
10
118.488
20
-94.3183
11
118.689
21
-94.0779
0
LINE
8
Black
10
118.689
20
-94.0779
11
118.961
21
-93.921
0
LINE
8
Black
10
118.961
20
-93.921
11
119.27
21
-93.8666
0
LINE
8
Black
10
119.27
20
-93.8666
11
119.579
21
-93.921
0
LINE
8
Black
10
127.79
20
-95.67
11
125.99
21
-95.67
0
LINE
8
Black
10
125.99
20
-95.67
11
125.99
21
-93.87
0
LINE
8
Black
10
125.99
20
-93.87
11
127.79
21
-93.87
0
LINE
8
Black
10
127.79
20
-93.87
11
127.79
21
-95.67
0
LINE
8
Black
10
161.019
20
-93.871
11
161.291
21
-94.0279
0
LINE
8
Black
10
161.291
20
-94.0279
11
161.492
21
-94.2683
0
LINE
8
Black
10
161.492
20
-94.2683
11
161.6
21
-94.5631
0
LINE
8
Black
10
161.6
20
-94.5631
11
161.6
21
-94.8769
0
LINE
8
Black
10
161.6
20
-94.8769
11
161.492
21
-95.1717
0
LINE
8
Black
10
161.492
20
-95.1717
11
161.291
21
-95.4121
0
LINE
8
Black
10
161.291
20
-95.4121
11
161.019
21
-95.569
0
LINE
8
Black
10
161.019
20
-95.569
11
160.71
21
-95.6234
0
LINE
8
Black
10
160.71
20
-95.6234
11
160.401
21
-95.569
0
LINE
8
Black
10
160.401
20
-95.569
11
160.129
21
-95.4121
0
LINE
8
Black
10
160.129
20
-95.4121
11
159.928
21
-95.1717
0
LINE
8
Black
10
159.928
20
-95.1717
11
159.82
21
-94.8769
0
LINE
8
Black
10
159.82
20
-94.8769
11
159.82
21
-94.5631
0
LINE
8
Black
10
159.82
20
-94.5631
11
159.928
21
-94.2683
0
LINE
8
Black
10
159.928
20
-94.2683
11
160.129
21
-94.0279
0
LINE
8
Black
10
160.129
20
-94.0279
11
160.401
21
-93.871
0
LINE
8
Black
10
160.401
20
-93.871
11
160.71
21
-93.8166
0
LINE
8
Black
10
160.71
20
-93.8166
11
161.019
21
-93.871
0
LINE
8
Black
10
143.239
20
-93.871
11
143.511
21
-94.0279
0
LINE
8
Black
10
143.511
20
-94.0279
11
143.712
21
-94.2683
0
LINE
8
Black
10
143.712
20
-94.2683
11
143.82
21
-94.5631
0
LINE
8
Black
10
143.82
20
-94.5631
11
143.82
21
-94.8769
0
LINE
8
Black
10
143.82
20
-94.8769
11
143.712
21
-95.1717
0
LINE
8
Black
10
143.712
20
-95.1717
11
143.511
21
-95.4121
0
LINE
8
Black
10
143.511
20
-95.4121
11
143.239
21
-95.569
0
LINE
8
Black
10
143.239
20
-95.569
11
142.93
21
-95.6234
0
LINE
8
Black
10
142.93
20
-95.6234
11
142.621
21
-95.569
0
LINE
8
Black
10
142.621
20
-95.569
11
142.349
21
-95.4121
0
LINE
8
Black
10
142.349
20
-95.4121
11
142.148
21
-95.1717
0
LINE
8
Black
10
142.148
20
-95.1717
11
142.04
21
-94.8769
0
LINE
8
Black
10
142.04
20
-94.8769
11
142.04
21
-94.5631
0
LINE
8
Black
10
142.04
20
-94.5631
11
142.148
21
-94.2683
0
LINE
8
Black
10
142.148
20
-94.2683
11
142.349
21
-94.0279
0
LINE
8
Black
10
142.349
20
-94.0279
11
142.621
21
-93.871
0
LINE
8
Black
10
142.621
20
-93.871
11
142.93
21
-93.8166
0
LINE
8
Black
10
142.93
20
-93.8166
11
143.239
21
-93.871
0
LINE
8
Black
10
148.319
20
-93.871
11
148.591
21
-94.0279
0
LINE
8
Black
10
148.591
20
-94.0279
11
148.792
21
-94.2683
0
LINE
8
Black
10
148.792
20
-94.2683
11
148.9
21
-94.5631
0
LINE
8
Black
10
148.9
20
-94.5631
11
148.9
21
-94.8769
0
LINE
8
Black
10
148.9
20
-94.8769
11
148.792
21
-95.1717
0
LINE
8
Black
10
148.792
20
-95.1717
11
148.591
21
-95.4121
0
LINE
8
Black
10
148.591
20
-95.4121
11
148.319
21
-95.569
0
LINE
8
Black
10
148.319
20
-95.569
11
148.01
21
-95.6234
0
LINE
8
Black
10
148.01
20
-95.6234
11
147.701
21
-95.569
0
LINE
8
Black
10
147.701
20
-95.569
11
147.429
21
-95.4121
0
LINE
8
Black
10
147.429
20
-95.4121
11
147.228
21
-95.1717
0
LINE
8
Black
10
147.228
20
-95.1717
11
147.12
21
-94.8769
0
LINE
8
Black
10
147.12
20
-94.8769
11
147.12
21
-94.5631
0
LINE
8
Black
10
147.12
20
-94.5631
11
147.228
21
-94.2683
0
LINE
8
Black
10
147.228
20
-94.2683
11
147.429
21
-94.0279
0
LINE
8
Black
10
147.429
20
-94.0279
11
147.701
21
-93.871
0
LINE
8
Black
10
147.701
20
-93.871
11
148.01
21
-93.8166
0
LINE
8
Black
10
148.01
20
-93.8166
11
148.319
21
-93.871
0
LINE
8
Black
10
150.859
20
-93.871
11
151.131
21
-94.0279
0
LINE
8
Black
10
151.131
20
-94.0279
11
151.332
21
-94.2683
0
LINE
8
Black
10
151.332
20
-94.2683
11
151.44
21
-94.5631
0
LINE
8
Black
10
151.44
20
-94.5631
11
151.44
21
-94.8769
0
LINE
8
Black
10
151.44
20
-94.8769
11
151.332
21
-95.1717
0
LINE
8
Black
10
151.332
20
-95.1717
11
151.131
21
-95.4121
0
LINE
8
Black
10
151.131
20
-95.4121
11
150.859
21
-95.569
0
LINE
8
Black
10
150.859
20
-95.569
11
150.55
21
-95.6234
0
LINE
8
Black
10
150.55
20
-95.6234
11
150.241
21
-95.569
0
LINE
8
Black
10
150.241
20
-95.569
11
149.969
21
-95.4121
0
LINE
8
Black
10
149.969
20
-95.4121
11
149.768
21
-95.1717
0
LINE
8
Black
10
149.768
20
-95.1717
11
149.66
21
-94.8769
0
LINE
8
Black
10
149.66
20
-94.8769
11
149.66
21
-94.5631
0
LINE
8
Black
10
149.66
20
-94.5631
11
149.768
21
-94.2683
0
LINE
8
Black
10
149.768
20
-94.2683
11
149.969
21
-94.0279
0
LINE
8
Black
10
149.969
20
-94.0279
11
150.241
21
-93.871
0
LINE
8
Black
10
150.241
20
-93.871
11
150.55
21
-93.8166
0
LINE
8
Black
10
150.55
20
-93.8166
11
150.859
21
-93.871
0
LINE
8
Black
10
153.399
20
-93.871
11
153.671
21
-94.0279
0
LINE
8
Black
10
153.671
20
-94.0279
11
153.872
21
-94.2683
0
LINE
8
Black
10
153.872
20
-94.2683
11
153.98
21
-94.5631
0
LINE
8
Black
10
153.98
20
-94.5631
11
153.98
21
-94.8769
0
LINE
8
Black
10
153.98
20
-94.8769
11
153.872
21
-95.1717
0
LINE
8
Black
10
153.872
20
-95.1717
11
153.671
21
-95.4121
0
LINE
8
Black
10
153.671
20
-95.4121
11
153.399
21
-95.569
0
LINE
8
Black
10
153.399
20
-95.569
11
153.09
21
-95.6234
0
LINE
8
Black
10
153.09
20
-95.6234
11
152.781
21
-95.569
0
LINE
8
Black
10
152.781
20
-95.569
11
152.509
21
-95.4121
0
LINE
8
Black
10
152.509
20
-95.4121
11
152.308
21
-95.1717
0
LINE
8
Black
10
152.308
20
-95.1717
11
152.2
21
-94.8769
0
LINE
8
Black
10
152.2
20
-94.8769
11
152.2
21
-94.5631
0
LINE
8
Black
10
152.2
20
-94.5631
11
152.308
21
-94.2683
0
LINE
8
Black
10
152.308
20
-94.2683
11
152.509
21
-94.0279
0
LINE
8
Black
10
152.509
20
-94.0279
11
152.781
21
-93.871
0
LINE
8
Black
10
152.781
20
-93.871
11
153.09
21
-93.8166
0
LINE
8
Black
10
153.09
20
-93.8166
11
153.399
21
-93.871
0
LINE
8
Black
10
138.159
20
-93.871
11
138.431
21
-94.0279
0
LINE
8
Black
10
138.431
20
-94.0279
11
138.632
21
-94.2683
0
LINE
8
Black
10
138.632
20
-94.2683
11
138.74
21
-94.5631
0
LINE
8
Black
10
138.74
20
-94.5631
11
138.74
21
-94.8769
0
LINE
8
Black
10
138.74
20
-94.8769
11
138.632
21
-95.1717
0
LINE
8
Black
10
138.632
20
-95.1717
11
138.431
21
-95.4121
0
LINE
8
Black
10
138.431
20
-95.4121
11
138.159
21
-95.569
0
LINE
8
Black
10
138.159
20
-95.569
11
137.85
21
-95.6234
0
LINE
8
Black
10
137.85
20
-95.6234
11
137.541
21
-95.569
0
LINE
8
Black
10
137.541
20
-95.569
11
137.269
21
-95.4121
0
LINE
8
Black
10
137.269
20
-95.4121
11
137.068
21
-95.1717
0
LINE
8
Black
10
137.068
20
-95.1717
11
136.96
21
-94.8769
0
LINE
8
Black
10
136.96
20
-94.8769
11
136.96
21
-94.5631
0
LINE
8
Black
10
136.96
20
-94.5631
11
137.068
21
-94.2683
0
LINE
8
Black
10
137.068
20
-94.2683
11
137.269
21
-94.0279
0
LINE
8
Black
10
137.269
20
-94.0279
11
137.541
21
-93.871
0
LINE
8
Black
10
137.541
20
-93.871
11
137.85
21
-93.8166
0
LINE
8
Black
10
137.85
20
-93.8166
11
138.159
21
-93.871
0
LINE
8
Black
10
155.939
20
-93.871
11
156.211
21
-94.0279
0
LINE
8
Black
10
156.211
20
-94.0279
11
156.412
21
-94.2683
0
LINE
8
Black
10
156.412
20
-94.2683
11
156.52
21
-94.5631
0
LINE
8
Black
10
156.52
20
-94.5631
11
156.52
21
-94.8769
0
LINE
8
Black
10
156.52
20
-94.8769
11
156.412
21
-95.1717
0
LINE
8
Black
10
156.412
20
-95.1717
11
156.211
21
-95.4121
0
LINE
8
Black
10
156.211
20
-95.4121
11
155.939
21
-95.569
0
LINE
8
Black
10
155.939
20
-95.569
11
155.63
21
-95.6234
0
LINE
8
Black
10
155.63
20
-95.6234
11
155.321
21
-95.569
0
LINE
8
Black
10
155.321
20
-95.569
11
155.049
21
-95.4121
0
LINE
8
Black
10
155.049
20
-95.4121
11
154.848
21
-95.1717
0
LINE
8
Black
10
154.848
20
-95.1717
11
154.74
21
-94.8769
0
LINE
8
Black
10
154.74
20
-94.8769
11
154.74
21
-94.5631
0
LINE
8
Black
10
154.74
20
-94.5631
11
154.848
21
-94.2683
0
LINE
8
Black
10
154.848
20
-94.2683
11
155.049
21
-94.0279
0
LINE
8
Black
10
155.049
20
-94.0279
11
155.321
21
-93.871
0
LINE
8
Black
10
155.321
20
-93.871
11
155.63
21
-93.8166
0
LINE
8
Black
10
155.63
20
-93.8166
11
155.939
21
-93.871
0
LINE
8
Black
10
158.479
20
-93.871
11
158.751
21
-94.0279
0
LINE
8
Black
10
158.751
20
-94.0279
11
158.952
21
-94.2683
0
LINE
8
Black
10
158.952
20
-94.2683
11
159.06
21
-94.5631
0
LINE
8
Black
10
159.06
20
-94.5631
11
159.06
21
-94.8769
0
LINE
8
Black
10
159.06
20
-94.8769
11
158.952
21
-95.1717
0
LINE
8
Black
10
158.952
20
-95.1717
11
158.751
21
-95.4121
0
LINE
8
Black
10
158.751
20
-95.4121
11
158.479
21
-95.569
0
LINE
8
Black
10
158.479
20
-95.569
11
158.17
21
-95.6234
0
LINE
8
Black
10
158.17
20
-95.6234
11
157.861
21
-95.569
0
LINE
8
Black
10
157.861
20
-95.569
11
157.589
21
-95.4121
0
LINE
8
Black
10
157.589
20
-95.4121
11
157.388
21
-95.1717
0
LINE
8
Black
10
157.388
20
-95.1717
11
157.28
21
-94.8769
0
LINE
8
Black
10
157.28
20
-94.8769
11
157.28
21
-94.5631
0
LINE
8
Black
10
157.28
20
-94.5631
11
157.388
21
-94.2683
0
LINE
8
Black
10
157.388
20
-94.2683
11
157.589
21
-94.0279
0
LINE
8
Black
10
157.589
20
-94.0279
11
157.861
21
-93.871
0
LINE
8
Black
10
157.861
20
-93.871
11
158.17
21
-93.8166
0
LINE
8
Black
10
158.17
20
-93.8166
11
158.479
21
-93.871
0
LINE
8
Black
10
163.559
20
-93.871
11
163.831
21
-94.0279
0
LINE
8
Black
10
163.831
20
-94.0279
11
164.032
21
-94.2683
0
LINE
8
Black
10
164.032
20
-94.2683
11
164.14
21
-94.5631
0
LINE
8
Black
10
164.14
20
-94.5631
11
164.14
21
-94.8769
0
LINE
8
Black
10
164.14
20
-94.8769
11
164.032
21
-95.1717
0
LINE
8
Black
10
164.032
20
-95.1717
11
163.831
21
-95.4121
0
LINE
8
Black
10
163.831
20
-95.4121
11
163.559
21
-95.569
0
LINE
8
Black
10
163.559
20
-95.569
11
163.25
21
-95.6234
0
LINE
8
Black
10
163.25
20
-95.6234
11
162.941
21
-95.569
0
LINE
8
Black
10
162.941
20
-95.569
11
162.669
21
-95.4121
0
LINE
8
Black
10
162.669
20
-95.4121
11
162.468
21
-95.1717
0
LINE
8
Black
10
162.468
20
-95.1717
11
162.36
21
-94.8769
0
LINE
8
Black
10
162.36
20
-94.8769
11
162.36
21
-94.5631
0
LINE
8
Black
10
162.36
20
-94.5631
11
162.468
21
-94.2683
0
LINE
8
Black
10
162.468
20
-94.2683
11
162.669
21
-94.0279
0
LINE
8
Black
10
162.669
20
-94.0279
11
162.941
21
-93.871
0
LINE
8
Black
10
162.941
20
-93.871
11
163.25
21
-93.8166
0
LINE
8
Black
10
163.25
20
-93.8166
11
163.559
21
-93.871
0
LINE
8
Black
10
166.099
20
-93.871
11
166.371
21
-94.0279
0
LINE
8
Black
10
166.371
20
-94.0279
11
166.572
21
-94.2683
0
LINE
8
Black
10
166.572
20
-94.2683
11
166.68
21
-94.5631
0
LINE
8
Black
10
166.68
20
-94.5631
11
166.68
21
-94.8769
0
LINE
8
Black
10
166.68
20
-94.8769
11
166.572
21
-95.1717
0
LINE
8
Black
10
166.572
20
-95.1717
11
166.371
21
-95.4121
0
LINE
8
Black
10
166.371
20
-95.4121
11
166.099
21
-95.569
0
LINE
8
Black
10
166.099
20
-95.569
11
165.79
21
-95.6234
0
LINE
8
Black
10
165.79
20
-95.6234
11
165.481
21
-95.569
0
LINE
8
Black
10
165.481
20
-95.569
11
165.209
21
-95.4121
0
LINE
8
Black
10
165.209
20
-95.4121
11
165.008
21
-95.1717
0
LINE
8
Black
10
165.008
20
-95.1717
11
164.9
21
-94.8769
0
LINE
8
Black
10
164.9
20
-94.8769
11
164.9
21
-94.5631
0
LINE
8
Black
10
164.9
20
-94.5631
11
165.008
21
-94.2683
0
LINE
8
Black
10
165.008
20
-94.2683
11
165.209
21
-94.0279
0
LINE
8
Black
10
165.209
20
-94.0279
11
165.481
21
-93.871
0
LINE
8
Black
10
165.481
20
-93.871
11
165.79
21
-93.8166
0
LINE
8
Black
10
165.79
20
-93.8166
11
166.099
21
-93.871
0
CIRCLE
8
Black
10
168.5
20
-103.5
40
0.3
0
CIRCLE
8
Black
10
158.5
20
-103.5
40
0.3
0
CIRCLE
8
Black
10
115
20
-95
40
0.3
0
CIRCLE
8
Black
10
185.5
20
-99.5
40
0.3
0
CIRCLE
8
Black
10
122
20
-98.5
40
0.3
0
CIRCLE
8
Black
10
145.5
20
-97
40
0.3
0
CIRCLE
8
Black
10
146.5
20
-99
40
0.3
0
CIRCLE
8
Black
10
122
20
-102.5
40
0.3
0
CIRCLE
8
Black
10
153.5
20
-107.5
40
0.3
0
CIRCLE
8
Black
10
185.5
20
-107.5
40
0.3
0
CIRCLE
8
Black
10
148.5
20
-105.5
40
0.3
0
CIRCLE
8
Black
10
185.5
20
-105.5
40
0.3
  0
ENDSEC
  0
EOF
