M48
INCH,TZ
T10C0.024
T11C0.039
%
T10
X045276Y-37402
X047146Y-38780
X048031Y-40354
X057283Y-38189
X057677Y-38976
X058465Y-41457
X060433Y-42323
X062402Y-40551
X066339Y-40551
X073031Y-41454
X073031Y-39173
X073031Y-42323
T11
X045276Y-38780
X045276Y-41780
X045276Y-42780
X046957Y-37311
X047957Y-37311
X048957Y-37311
X049957Y-37311
X051276Y-39780
X051276Y-40780
X051276Y-41780
X054272Y-37291
X054272Y-43291
X055272Y-37291
X055272Y-43291
X056272Y-37291
X056272Y-43291
X057272Y-37291
X057272Y-43291
X058272Y-37291
X058272Y-43291
X059272Y-37291
X059272Y-43291
X060272Y-37291
X060272Y-43291
X061272Y-37291
X061272Y-43291
X062272Y-37291
X062272Y-43291
X063272Y-37291
X063272Y-43291
X064272Y-37291
X064272Y-43291
X065272Y-37291
X065272Y-43291
M30

