  0
SECTION
  2
HEADER
  9
$ANGBASE
  50
0.0
  9
$ANGDIR
  70
  1
  9
$MEASUREMENT
  70
0
  0
ENDSEC
  0
SECTION
  2
TABLES
  0
TABLE
  2
LTYPE
  70
1
  0
LTYPE
  2
CONTINUOUS
  70
0
  3
Solid line
  72
65
  73
0
  40
0.0
  0
ENDTAB
  0
TABLE
  2
STYLE
  70
4
  0
STYLE
  2
KICAD
  70
0
  40
0
  41
1
  42
1
  50
0
  71
0
  3
isocp.shx
  0
STYLE
  2
KICADB
  70
0
  40
0
  41
1
  42
1
  50
0
  71
0
  3
isocp.shx
  0
STYLE
  2
KICADI
  70
0
  40
0
  41
1
  42
1
  50
15
  71
0
  3
isocp.shx
  0
STYLE
  2
KICADBI
  70
0
  40
0
  41
1
  42
1
  50
15
  71
0
  3
isocp.shx
  0
ENDTAB
  0
TABLE
  2
LAYER
  70
30
  0
LAYER
  2
BLACK
  70
0
  62
7
  6
CONTINUOUS
  0
LAYER
  2
GRAY1
  70
0
  62
251
  6
CONTINUOUS
  0
LAYER
  2
GRAY2
  70
0
  62
8
  6
CONTINUOUS
  0
LAYER
  2
GRAY3
  70
0
  62
9
  6
CONTINUOUS
  0
LAYER
  2
WHITE
  70
0
  62
7
  6
CONTINUOUS
  0
LAYER
  2
LYELLOW
  70
0
  62
51
  6
CONTINUOUS
  0
LAYER
  2
BLUE1
  70
0
  62
178
  6
CONTINUOUS
  0
LAYER
  2
GREEN1
  70
0
  62
98
  6
CONTINUOUS
  0
LAYER
  2
CYAN1
  70
0
  62
138
  6
CONTINUOUS
  0
LAYER
  2
RED1
  70
0
  62
18
  6
CONTINUOUS
  0
LAYER
  2
MAGENTA1
  70
0
  62
228
  6
CONTINUOUS
  0
LAYER
  2
BROWN1
  70
0
  62
58
  6
CONTINUOUS
  0
LAYER
  2
BLUE2
  70
0
  62
5
  6
CONTINUOUS
  0
LAYER
  2
GREEN2
  70
0
  62
3
  6
CONTINUOUS
  0
LAYER
  2
CYAN2
  70
0
  62
4
  6
CONTINUOUS
  0
LAYER
  2
RED2
  70
0
  62
1
  6
CONTINUOUS
  0
LAYER
  2
MAGENTA2
  70
0
  62
6
  6
CONTINUOUS
  0
LAYER
  2
BROWN2
  70
0
  62
54
  6
CONTINUOUS
  0
LAYER
  2
BLUE3
  70
0
  62
171
  6
CONTINUOUS
  0
LAYER
  2
GREEN3
  70
0
  62
91
  6
CONTINUOUS
  0
LAYER
  2
CYAN3
  70
0
  62
131
  6
CONTINUOUS
  0
LAYER
  2
RED3
  70
0
  62
11
  6
CONTINUOUS
  0
LAYER
  2
MAGENTA3
  70
0
  62
221
  6
CONTINUOUS
  0
LAYER
  2
YELLOW3
  70
0
  62
2
  6
CONTINUOUS
  0
LAYER
  2
BLUE4
  70
0
  62
5
  6
CONTINUOUS
  0
LAYER
  2
GREEN4
  70
0
  62
3
  6
CONTINUOUS
  0
LAYER
  2
CYAN4
  70
0
  62
4
  6
CONTINUOUS
  0
LAYER
  2
RED4
  70
0
  62
1
  6
CONTINUOUS
  0
LAYER
  2
MAGENTA4
  70
0
  62
6
  6
CONTINUOUS
  0
LAYER
  2
YELLOW4
  70
0
  62
2
  6
CONTINUOUS
  0
ENDTAB
  0
ENDSEC
  0
SECTION
  2
ENTITIES
0
LINE
8
Black
10
201.506
20
-92.9261
11
201.513
21
-92.9261
0
LINE
8
Black
10
201.513
20
-92.9261
11
201.519
21
-92.9284
0
LINE
8
Black
10
201.519
20
-92.9284
11
201.526
21
-92.9295
0
LINE
8
Black
10
201.526
20
-92.9295
11
201.531
21
-92.9328
0
LINE
8
Black
10
201.531
20
-92.9328
11
201.537
21
-92.935
0
LINE
8
Black
10
201.537
20
-92.935
11
201.543
21
-92.9393
0
LINE
8
Black
10
201.543
20
-92.9393
11
201.548
21
-92.9425
0
LINE
8
Black
10
201.548
20
-92.9425
11
201.552
21
-92.9476
0
LINE
8
Black
10
201.552
20
-92.9476
11
201.557
21
-92.9518
0
LINE
8
Black
10
201.557
20
-92.9518
11
201.561
21
-92.9575
0
LINE
8
Black
10
201.561
20
-92.9575
11
201.565
21
-92.9625
0
LINE
8
Black
10
201.565
20
-92.9625
11
201.567
21
-92.9687
0
LINE
8
Black
10
201.567
20
-92.9687
11
201.57
21
-92.9743
0
LINE
8
Black
10
201.57
20
-92.9743
11
201.572
21
-92.9808
0
LINE
8
Black
10
201.572
20
-92.9808
11
201.574
21
-92.987
0
LINE
8
Black
10
201.574
20
-92.987
11
201.574
21
-92.9935
0
LINE
8
Black
10
201.574
20
-92.9935
11
201.575
21
-93
0
LINE
8
Black
10
201.575
20
-93
11
201.575
21
-112
0
LINE
8
Black
10
201.575
20
-112
11
201.574
21
-112.006
0
LINE
8
Black
10
201.574
20
-112.006
11
201.574
21
-112.013
0
LINE
8
Black
10
201.574
20
-112.013
11
201.572
21
-112.019
0
LINE
8
Black
10
201.572
20
-112.019
11
201.57
21
-112.026
0
LINE
8
Black
10
201.57
20
-112.026
11
201.567
21
-112.031
0
LINE
8
Black
10
201.567
20
-112.031
11
201.565
21
-112.037
0
LINE
8
Black
10
201.565
20
-112.037
11
201.561
21
-112.043
0
LINE
8
Black
10
201.561
20
-112.043
11
201.557
21
-112.048
0
LINE
8
Black
10
201.557
20
-112.048
11
201.552
21
-112.052
0
LINE
8
Black
10
201.552
20
-112.052
11
201.548
21
-112.057
0
LINE
8
Black
10
201.548
20
-112.057
11
201.543
21
-112.061
0
LINE
8
Black
10
201.543
20
-112.061
11
201.537
21
-112.065
0
LINE
8
Black
10
201.537
20
-112.065
11
201.531
21
-112.067
0
LINE
8
Black
10
201.531
20
-112.067
11
201.526
21
-112.07
0
LINE
8
Black
10
201.526
20
-112.07
11
201.519
21
-112.072
0
LINE
8
Black
10
201.519
20
-112.072
11
201.513
21
-112.074
0
LINE
8
Black
10
201.513
20
-112.074
11
201.506
21
-112.074
0
LINE
8
Black
10
201.506
20
-112.074
11
201.5
21
-112.075
0
LINE
8
Black
10
201.5
20
-112.075
11
101.5
21
-112.075
0
LINE
8
Black
10
101.5
20
-112.075
11
101.494
21
-112.074
0
LINE
8
Black
10
101.494
20
-112.074
11
101.487
21
-112.074
0
LINE
8
Black
10
101.487
20
-112.074
11
101.481
21
-112.072
0
LINE
8
Black
10
101.481
20
-112.072
11
101.474
21
-112.07
0
LINE
8
Black
10
101.474
20
-112.07
11
101.469
21
-112.067
0
LINE
8
Black
10
101.469
20
-112.067
11
101.462
21
-112.065
0
LINE
8
Black
10
101.462
20
-112.065
11
101.457
21
-112.061
0
LINE
8
Black
10
101.457
20
-112.061
11
101.452
21
-112.057
0
LINE
8
Black
10
101.452
20
-112.057
11
101.448
21
-112.052
0
LINE
8
Black
10
101.448
20
-112.052
11
101.443
21
-112.048
0
LINE
8
Black
10
101.443
20
-112.048
11
101.439
21
-112.043
0
LINE
8
Black
10
101.439
20
-112.043
11
101.435
21
-112.037
0
LINE
8
Black
10
101.435
20
-112.037
11
101.433
21
-112.031
0
LINE
8
Black
10
101.433
20
-112.031
11
101.43
21
-112.026
0
LINE
8
Black
10
101.43
20
-112.026
11
101.428
21
-112.019
0
LINE
8
Black
10
101.428
20
-112.019
11
101.426
21
-112.013
0
LINE
8
Black
10
101.426
20
-112.013
11
101.426
21
-112.006
0
LINE
8
Black
10
101.426
20
-112.006
11
101.425
21
-112
0
LINE
8
Black
10
101.425
20
-112
11
101.425
21
-93
0
LINE
8
Black
10
101.425
20
-93
11
101.426
21
-92.9935
0
LINE
8
Black
10
101.426
20
-92.9935
11
101.426
21
-92.987
0
LINE
8
Black
10
101.426
20
-92.987
11
101.428
21
-92.9808
0
LINE
8
Black
10
101.428
20
-92.9808
11
101.43
21
-92.9743
0
LINE
8
Black
10
101.43
20
-92.9743
11
101.433
21
-92.9687
0
LINE
8
Black
10
101.433
20
-92.9687
11
101.435
21
-92.9625
0
LINE
8
Black
10
101.435
20
-92.9625
11
101.439
21
-92.9575
0
LINE
8
Black
10
101.439
20
-92.9575
11
101.443
21
-92.9518
0
LINE
8
Black
10
101.443
20
-92.9518
11
101.448
21
-92.9476
0
LINE
8
Black
10
101.448
20
-92.9476
11
101.452
21
-92.9425
0
LINE
8
Black
10
101.452
20
-92.9425
11
101.457
21
-92.9393
0
LINE
8
Black
10
101.457
20
-92.9393
11
101.462
21
-92.935
0
LINE
8
Black
10
101.462
20
-92.935
11
101.469
21
-92.9328
0
LINE
8
Black
10
101.469
20
-92.9328
11
101.474
21
-92.9295
0
LINE
8
Black
10
101.474
20
-92.9295
11
101.481
21
-92.9284
0
LINE
8
Black
10
101.481
20
-92.9284
11
101.487
21
-92.9261
0
LINE
8
Black
10
101.487
20
-92.9261
11
101.494
21
-92.9261
0
LINE
8
Black
10
101.494
20
-92.9261
11
101.5
21
-92.925
0
LINE
8
Black
10
101.5
20
-92.925
11
201.5
21
-92.925
0
LINE
8
Black
10
201.5
20
-92.925
11
201.506
21
-92.9261
0
LINE
8
Black
10
101.575
20
-93.075
11
101.575
21
-111.925
0
LINE
8
Black
10
101.575
20
-111.925
11
201.425
21
-111.925
0
LINE
8
Black
10
201.425
20
-111.925
11
201.425
21
-93.075
0
LINE
8
Black
10
201.425
20
-93.075
11
101.575
21
-93.075
  0
ENDSEC
  0
EOF
