M48
;DRILL file {KiCad 4.0.6} date 04/17/17 01:37:48
;FORMAT={3:3/ absolute / metric / suppress leading zeros}
FMAT,2
METRIC,TZ
T1C0.600
T2C1.000
%
G90
G05
M71
T1
X115000Y-95000
X119750Y-98500
X122000Y-102500
X145500Y-97000
X146500Y-99000
X148500Y-105300
X153500Y-107500
X158500Y-103000
X168500Y-103000
X185498Y-105294
X185500Y-99500
X185500Y-107500
T2
X115000Y-98500
X115000Y-106120
X115000Y-108660
X119270Y-94770
X121810Y-94770
X124350Y-94770
X126890Y-94770
X130240Y-101040
X130240Y-103580
X130240Y-106120
X137850Y-94720
X137850Y-109960
X140390Y-94720
X140390Y-109960
X142930Y-94720
X142930Y-109960
X145470Y-94720
X145470Y-109960
X148010Y-94720
X148010Y-109960
X150550Y-94720
X150550Y-109960
X153090Y-94720
X153090Y-109960
X155630Y-94720
X155630Y-109960
X158170Y-94720
X158170Y-109960
X160710Y-94720
X160710Y-109960
X163250Y-94720
X163250Y-109960
X165790Y-94720
X165790Y-109960
T0
M30
